<svg width="147" height="47" viewBox="0 0 147 47" fill="none" xmlns="http://www.w3.org/2000/svg">
<path d="M42.4565 30.0419C42.4565 30.0419 41.5163 39.7567 41.2656 41.4489H44.5248C44.5248 41.4489 44.9008 38.8166 45.7783 31.3581C45.9663 29.9792 46.1544 27.2842 46.1544 27.2842L42.4565 30.0419Z" fill="url(#paint0_linear)"/>
<path d="M33.4939 5.15978C37.6305 4.28231 40.827 5.97456 42.1432 14.3105C42.5192 16.7548 42.7073 19.6379 42.7073 22.3957C43.9608 21.3928 45.1516 20.4527 46.2798 19.5126V19.3872C46.1544 16.0654 45.7784 12.8689 45.0889 9.86047C43.7101 3.46753 39.6361 0.772461 35.4368 0.772461C34.8728 0.772461 34.3087 0.835137 33.6819 0.960489L33.4939 5.15978Z" fill="url(#paint1_linear)"/>
<path d="M35.4995 0.772461C30.6734 0.772461 21.8361 4.90907 12.9361 14.6238C2.84531 25.5295 0.463623 34.1161 0.463623 38.6287C0.463623 43.1414 3.47207 46.7139 8.8622 46.7139C14.2523 46.7139 23.027 43.2668 36.0009 34.5548C48.9748 25.8428 61.51 14.9372 61.51 14.9372L58.8149 8.73231C56.0572 10.9886 43.7727 22.7717 27.4143 33.3013C11.7453 43.3921 6.73122 41.7625 6.04178 40.4463C5.4777 39.3808 4.28686 35.4949 10.6798 25.2161C17.0727 14.9372 26.9755 7.66682 31.9896 5.72386C33.2431 5.22245 34.3713 4.97175 35.4368 4.90907L35.4995 0.772461Z" fill="#5C2D91"/>
<path d="M143.741 22.4585V32.0479V41.6373H145.37H147V32.0479V22.4585H145.37H143.741Z" fill="#5C2D91"/>
<path d="M83.9479 30.919V28.2866H78.9338H73.481V31.1697H80.062L73.293 38.9415L74.4838 41.6366H78.7458H84.1986V38.7535H77.0535L83.9479 30.919Z" fill="#5C2D91"/>
<path d="M61.4475 22.4585L53.1743 41.6373H56.8722L58.8152 37.1247H63.1398H67.4644L69.4074 41.6373H73.1053L64.832 22.4585H61.4475ZM60.006 34.1789L63.0771 26.9085L66.1482 34.1789H63.0771H60.006Z" fill="#5C2D91"/>
<path d="M130.015 28.0371C125.878 28.0371 123.183 31.0456 123.183 34.9941C123.183 39.1308 125.878 41.9512 129.952 41.9512C132.459 41.9512 134.527 40.9484 135.781 39.1934L133.399 37.4385C132.71 38.504 131.456 39.0681 130.015 39.0681C128.009 39.0681 126.693 37.8146 126.505 35.9343H129.889H136.47V34.6181C136.407 30.4188 133.963 28.0371 130.015 28.0371ZM126.567 33.5526C126.943 31.6723 128.134 30.5441 129.952 30.5441C131.644 30.5441 132.898 31.547 133.211 33.5526H129.889H126.567Z" fill="#5C2D91"/>
<path d="M138.288 41.6373H139.917H141.547V32.0479V22.4585H139.917H138.288V32.0479V41.6373Z" fill="#5C2D91"/>
<path d="M115.912 30.9194C117.416 30.9194 118.67 31.7342 119.234 33.1757L122.054 31.6715C120.926 29.2898 119.109 27.9736 115.787 27.9736C111.65 27.9736 108.83 30.8567 108.83 34.9307C108.83 39.0046 111.525 41.8877 115.662 41.8877C118.607 41.8877 120.738 40.5088 121.992 38.2525L119.171 36.7483C118.482 38.0645 117.416 38.9419 115.85 38.9419C113.719 38.9419 112.152 37.187 112.152 34.868C112.214 32.6743 113.781 30.9194 115.912 30.9194Z" fill="#5C2D91"/>
<path d="M103.566 30.2301H103.378V28.2872H100.118V35.6202V41.6371H103.378V35.4322C103.378 33.0505 104.694 31.1702 106.637 31.1702C107.138 31.1702 107.64 31.2329 108.078 31.3583V28.2245C107.514 28.0991 107.263 28.0991 106.95 28.0991C105.446 28.0991 104.067 28.9766 103.566 30.2301Z" fill="#5C2D91"/>
<path d="M91.9703 28.0371C87.8337 28.0371 85.1387 31.0456 85.1387 34.9941C85.1387 39.1308 87.8337 41.9512 91.9077 41.9512C94.4147 41.9512 96.483 40.9484 97.7365 39.1934L95.3548 37.4385C94.6654 38.504 93.4119 39.0681 91.9703 39.0681C89.9647 39.0681 88.6485 37.8146 88.4605 35.9343H91.7823H98.3633V34.6181C98.3006 30.4188 95.9189 28.0371 91.9703 28.0371ZM88.4605 33.5526C88.8365 31.6723 90.0274 30.5441 91.845 30.5441C93.5372 30.5441 94.7908 31.547 95.1041 33.5526H91.7823H88.4605Z" fill="#5C2D91"/>
<defs>
<linearGradient id="paint0_linear" x1="41.179" y1="30.6142" x2="47.2183" y2="39.5679" gradientUnits="userSpaceOnUse">
<stop offset="0.0744277" stop-color="#5C2D91" stop-opacity="0.5"/>
<stop offset="0.7" stop-color="#5C2D91"/>
</linearGradient>
<linearGradient id="paint1_linear" x1="47.1399" y1="18.8651" x2="33.0268" y2="1.43683" gradientUnits="userSpaceOnUse">
<stop offset="0.0746891" stop-color="#5C2D91" stop-opacity="0.5"/>
<stop offset="0.6" stop-color="#5C2D91"/>
</linearGradient>
</defs>
</svg>
