<?xml version="1.0" encoding="UTF-8"?>
<svg width="965px" height="965px" viewBox="0 0 965 965" version="1.1" xmlns="http://www.w3.org/2000/svg" xmlns:xlink="http://www.w3.org/1999/xlink">
    <!-- Generator: Sketch 52 (66869) - http://www.bohemiancoding.com/sketch -->
    <title>First Bank Nigeria Logo</title>
    <desc>Created with Sketch.</desc>
    <g id="Page-1" stroke="none" stroke-width="1" fill="none" fill-rule="evenodd">
        <g id="First-Bank-Nigeria-Logo">
            <rect id="Rectangle" fill="#162D4C" x="0" y="0" width="965" height="965"></rect>
            <polygon id="Path" fill="#E4B935" points="421.53 144.49 421.53 144 712.53 144 712.53 144.51"></polygon>
            <path d="M421.53,144.49 L712.53,144.49 C710.33,155.07 708.17,165.66 705.92,176.23 C697.306667,216.676667 688.666667,257.11 680,297.53 C676.5,313.96 673,330.4 669.46,346.81 C669.01,348.81 669.21,349.52 671.46,349.55 C679.46,349.67 687.46,349.55 695.46,349.24 C699.373107,349.007121 703.299985,349.262418 707.15,350 C714.15,351.48 716.1,356.53 711.91,362.4 C709.567135,365.454368 706.520604,367.897082 703.03,369.52 C695.14,373.59 686.6,375.33 677.91,376.46 C673.627808,377.117021 669.302294,377.451296 664.97,377.46 C663.29,377.46 662.86,378.24 662.58,379.59 C659.913333,392.256667 657.223333,404.95 654.51,417.67 L629.82,534.09 C629.32,536.45 628.82,538.8 628.35,541.18 C628.11,542.52 627.63,543.33 626.1,543.05 C625.684298,543.009905 625.265702,543.009905 624.85,543.05 L340.12,543.05 C336.68,543.05 336.69,543.05 337.43,539.53 C351.683333,472.41 365.93,405.29 380.17,338.17 C383.35,323.196667 386.54,308.23 389.74,293.27 C390.017946,292.404236 389.960848,291.465686 389.58,290.64 C385.33,282.23 383.98,273.1 383.09,263.88 C380.82,240.44 386.27,218.05 392.66,195.83 C394.51,189.43 401.47,185.49 409.06,186.35 C411.85,186.66 412.65,185.9 413.17,183.26 C415.7,170.62 418.47,158.03 421.17,145.42 C421.261746,145.099791 421.382236,144.788525 421.53,144.49 Z M520.53,351.49 C521.274514,351.409821 522.025486,351.409821 522.77,351.49 C531.91,353.57 536.59,348.17 540.29,341.12 C540.71,340.31 541.14,339.49 541.5,338.66 C544.07,332.81 544.06,332.8 539.33,328.66 C539.01858,328.367039 538.684176,328.099516 538.33,327.86 C536.26,326.6 536.27,325.25 537.54,323.19 C545.586309,310.100247 560.74746,303.173612 575.91,305.66 C578.445988,306.003375 580.837536,307.041673 582.82,308.66 C589.32,313.87 596.04,318.78 602.9,323.52 C609.210398,328.000086 615.796776,332.078163 622.62,335.73 C625.15,337.05 625.29,336.99 625.06,334.27 C624.62,329.13 624.11,323.993333 623.53,318.86 C622.24,307.32 618.75,296.69 611.37,287.42 C606.08,280.78 601.05,273.93 595.65,267.37 C594.585001,266.225526 594.108824,264.653034 594.36,263.11 C595.56,253.65 595.58,253.59 589.68,246.11 C576.68,229.63 561.24,215.51 545.46,201.77 C544.531193,201.065598 543.447972,200.592546 542.3,200.39 C531.390432,197.705953 520.229305,196.174231 509,195.82 C502.48,195.52 496.44,196.24 491.09,200.24 C486.72,203.51 482.09,204.05 476.6,203.14 C458.88,200.19 441.07,197.77 423.28,195.25 C418.1,194.52 412.97,193.25 407.68,193.51 C403.13,193.72 400.6,195.3 399.45,199.05 C393.78,217.57 389.45,236.36 390.08,255.91 C390.408462,273.952014 396.38157,291.437695 407.16,305.91 C419.16,322.09 435.4,332.47 453.97,339.5 C475.38,347.58 497.76,350.47 520.48,351.45 L520.53,351.49 Z M518.53,474.22 C517.48,474.91 516.79,475.37 516.09,475.81 C507.42,481.25 498.76,486.71 490.04,492.07 C488.28,493.15 488.2,493.71 489.84,495.07 C503.84,506.62 517.78,518.26 531.75,529.86 C532.1,530.16 532.42,530.67 533.16,530.32 C533.31,527.74 533.61,525.09 533.57,522.44 C533.564933,519.448294 534.19552,516.489648 535.42,513.76 C539.31,504.48 543.03,495.13 546.85,485.82 C547.338984,484.678419 547.561282,483.440386 547.5,482.2 C547.16,473.96 546.84,465.72 546.59,457.48 C546.547872,455.989287 546.094512,454.539228 545.28,453.29 C536.44,438.99 527.66,424.66 518.79,410.37 C517.992256,409.21854 517.784687,407.758139 518.23,406.43 C519.71,401.32 521.05,396.17 522.52,391.05 C523.074591,389.04674 523.244255,386.956478 523.02,384.89 C522.5,379.25 522.02,373.61 521.63,367.96 C521.52,366.08 520.99,365.46 519,365.45 C505.75612,365.459413 492.544235,364.149614 479.56,361.54 C445.75,354.54 418.5,337.62 399.06,308.75 C398.67,308.18 398.48,307.36 397.44,307.13 C397.33,307.6 397.21,308.06 397.11,308.52 C388.483333,349.44 379.86,390.366667 371.24,431.3 C370.16,436.41 370.16,436.47 375.3,437.01 C378.62,437.36 381.78,438.42 385.3,437.14 C402.35,431.01 419.51,425.19 436.61,419.14 C438.339853,418.344318 440.371485,418.600211 441.85,419.8 C464.55,436 487.296667,452.14 510.09,468.22 L518.53,474.22 Z M438.59,428.65 C438.59,440.89 438.59,452.96 438.59,465.04 C438.611679,467.100694 438.20651,469.143563 437.4,471.04 C430.8,486.75 424.28,502.5 417.66,518.21 C416.89509,519.690119 416.96343,521.46315 417.84,522.88 C419.24,525.34 420.48,527.88 421.63,530.47 C422.066654,531.819837 423.389168,532.679262 424.8,532.53 C440.72,532.44 456.63,532.53 472.54,532.46 C473.23,532.46 474.02,532.78 474.76,531.97 C473.3,528.97 471.89,525.86 470.31,522.86 C469.500084,521.416472 469.257619,519.722784 469.63,518.11 C473.53,499.05 477.33,479.96 481.29,460.91 C481.69,459.02 481.29,458.08 479.79,457.03 C466.736667,447.943333 453.706667,438.823333 440.7,429.67 C440.125175,429.059399 439.345506,428.682025 438.51,428.61 L438.59,428.65 Z M658.74,371.11 C660.57,371.11 662.4,371.17 664.23,371.11 C675.16,370.67 685.95,369.32 696.35,365.72 C699.549975,364.764555 702.499977,363.115422 704.99,360.89 C706.17,359.76 707.24,358.43 706.55,356.72 C705.94,355.2 704.29,355.09 702.91,355.08 C699.58,355.08 696.23,354.99 692.91,355.29 C678.864654,356.631382 664.69352,355.579789 651,352.18 C626.64,346.13 604.93,334.64 584.85,319.88 C582.245087,317.844658 579.132506,316.561583 575.85,316.17 C566.48,315.17 558.34,317.34 552.28,325.1 C551.16,326.53 551.13,327.44 552.6,328.74 C560.329732,335.590528 568.659958,341.731936 577.49,347.09 C602.39,362.27 629.24,371.09 658.66,371.07 L658.74,371.11 Z M584.2,360.29 C584.46,362.03 584.7,363.29 584.83,364.64 C585.24,368.94 586.65,373.12 586.22,377.5 C584.9,390.93 582.04,404.13 580.28,417.5 C578.92,427.91 577.53,438.33 578.09,448.85 C578.54,457.35 581.3,465.01 588.51,470.06 C595.31,474.82 602.78,476.27 610.63,472.22 C611.882391,471.691074 612.650142,470.414183 612.53,469.06 C612.498452,466.23124 612.220737,463.410595 611.7,460.63 C611.35,458.87 610.78,458.41 608.88,458.75 C601.82,460.02 596.97,454.94 598.35,447.93 C599.56,441.77 602.01,436.03 604.35,430.26 C610.04,416.41 616.8,403.03 622.71,389.26 C624.219264,385.381163 625.145976,381.300258 625.46,377.15 C625.62,375.79 625.46,375.09 623.76,374.87 C620.961749,374.461333 618.190212,373.886991 615.46,373.15 C604.512849,370.277402 593.999488,365.952328 584.2,360.29 Z" id="Shape" fill="#DFAC0F" fill-rule="nonzero"></path>
            <path d="M525.06,658.62 C527.990125,659.090637 530.862603,659.868251 533.63,660.94 C542.71,664.73 547.55,671.76 547.99,681.35 C548.81,699.06 540.28,712.07 526.2,721.82 C517.150452,728.052438 506.407897,731.361062 495.42,731.3 C480.85,731.41 466.27,731.3 451.69,731.3 C447.79,731.3 446.91,730.2 447.69,726.42 C456.51,683.68 465.333333,640.94 474.16,598.2 C475.06,593.81 476.16,592.95 480.56,592.95 C489.97,592.95 499.38,592.95 508.8,592.95 C517.51,592.95 526.1,593.95 534.16,597.5 C542.9,601.35 549.46,607.39 550.4,617.35 C551.74,631.56 546.95,643.51 535.5,652.47 C532.239932,654.872324 528.741544,656.933156 525.06,658.62 Z M486.49,715.15 L486.49,715 C489.57,715 492.65,715.13 495.72,715 C510.51,714.29 520.21,705.76 522.88,691.22 C525.04,679.4 519.3,671.22 507.51,669.44 C500.15,668.35 492.72,669.18 485.33,668.92 C484.11,668.92 484.04,669.6 483.87,670.44 C483.05,674.51 482.2,678.58 481.35,682.64 C479.27,692.64 477.23,702.64 475.08,712.64 C474.64,714.64 475.02,715.39 477.26,715.24 C480.32,715 483.41,715.15 486.49,715.15 Z M494.79,652.74 C497.946956,652.930306 501.115339,652.749064 504.23,652.2 C515.72,649.57 524.49,639.34 525.63,627.2 C526.54,617.55 522.29,611.81 512.84,609.87 C508.65,609.01 504.4,609.25 500.18,608.98 C497.28,608.79 496.3,609.67 495.75,612.56 C493.34,625.28 490.67,637.95 487.95,650.62 C487.52,652.62 488.12,652.85 489.8,652.74 C491.48,652.63 493.12,652.74 494.79,652.74 Z" id="Shape" fill="#FFFFFF" fill-rule="nonzero"></path>
            <path d="M641.47,643.78 C642.78,640.53 643.99,637.78 644.99,635.01 C645.572289,632.746688 647.726113,631.252633 650.05,631.5 C654.3,631.59 658.55,631.5 662.8,631.5 C665.95,631.5 666.87,632.67 666.27,635.68 C661.603333,658.74 656.936667,681.803333 652.27,704.87 C651.795736,706.730357 651.633532,708.656529 651.79,710.57 C652.22,713.77 653.29,714.9 656.49,715.32 C658.49,715.58 659.33,716.68 658.99,718.56 C658.42,721.75 657.76,724.93 656.99,728.08 C656.648884,730.070601 654.877398,731.494653 652.86,731.4 C648.858223,731.586266 644.850469,731.195595 640.96,730.24 C634.81,728.62 631.45,724.65 630.67,718.24 C630.58,717.51 630.55,716.77 630.48,715.91 C629.4,716.17 629.02,717.07 628.48,717.69 C616.08,731.23 600.72,736.03 582.82,732.92 C570.76,730.82 563.26,723.29 560.56,711.26 C558.25,701.01 559.49,690.89 561.56,680.8 C564,668.8 568.11,657.49 575.56,647.51 C588.43,630.12 609.15,626.43 624.91,630.38 C632.2,632.27 637.58,636.69 641.47,643.78 Z M582.47,699.23 C582.471833,701.485735 582.665868,703.737212 583.05,705.96 C584.14,712.6 587.8,716.28 594.44,717.39 C607.44,719.57 619.88,713.92 626.35,702.26 C632.7664,690.517785 635.896357,677.262108 635.41,663.89 C635.18,654.43 630.69,648.56 622.73,646.23 C618.058932,644.94877 613.155532,644.760572 608.4,645.68 C599.98,647.1 595.07,652.74 591.63,659.92 C585.67,672.34 583.55,685.67 582.47,699.23 Z" id="Shape" fill="#FFFFFF" fill-rule="nonzero"></path>
            <path d="M834.32,593.8 C831.553333,607.266667 828.78,620.706667 826,634.12 C823.24,647.55 820.49,660.98 817.71,674.5 C819.01,674.42 819.43,673.5 820.04,672.9 C832.53,660.53 845.04,648.18 857.44,635.72 C859.996267,632.931057 863.661326,631.424718 867.44,631.61 C872.01,631.78 876.6,631.61 881.18,631.7 C882.18,631.7 883.44,631.43 883.88,632.43 C884.32,633.43 883.1,634.13 882.41,634.77 C867.076667,649.203333 851.696667,663.61 836.27,677.99 C834.65,679.5 834.65,680.44 835.8,682.22 C845.36,697.03 854.8,711.92 864.31,726.78 C864.76,727.48 865.21,728.19 865.6,728.91 C866.42,730.41 865.97,731.46 864.27,731.47 C857.02,731.47 849.77,731.54 842.53,731.38 C840.36,731.38 839.11,729.61 838.05,727.8 C830.856667,715.44 823.636667,703.106667 816.39,690.8 C815.95,690.05 815.74,689.09 814.63,688.57 C812.57,698.57 810.54,708.44 808.49,718.33 C807.85,721.43 807.24,724.53 806.54,727.61 C805.84,730.69 804.67,731.52 801.68,731.54 C797.02,731.54 792.35,731.54 787.68,731.54 C783.52,731.54 782.74,730.62 783.57,726.63 C786.13,714.26 788.73,701.89 791.29,689.51 C796.903333,662.503333 802.473333,635.536667 808,608.61 C808.176605,607.215093 809.072622,606.015342 810.36,605.45 C817.51,601.91 824.6,598.25 831.72,594.66 C832.477487,594.112548 833.385473,593.812214 834.32,593.8 Z" id="Path" fill="#FFFFFF"></path>
            <path d="M711.13,647.64 C714.597507,642.997775 718.598246,638.778874 723.05,635.07 C733.56,626.47 754.86,627.81 764.74,636.84 C772.74,644.17 774.91,653.56 773.18,663.74 C770.93,676.93 767.94,689.99 765.33,703.12 C764.76,705.97 764.22,708.86 765.01,711.78 C765.56,713.83 766.44,715.48 769.01,715.46 C771.17,715.46 772.01,716.78 771.65,718.77 C771.08,721.95 770.44,725.14 769.7,728.29 C769.347472,730.19992 767.640224,731.557182 765.7,731.47 C761.701127,731.688798 757.692645,731.280527 753.82,730.26 C744.82,727.73 740.38,721.26 740.82,711.26 C741.11,704.47 743.1,697.99 744.29,691.37 C745.91,682.37 748.62,673.57 749.12,664.37 C749.234988,662.545143 749.234988,660.714857 749.12,658.89 C748.42,648.79 742.12,643.97 732.21,645.65 C725.948763,646.662309 720.418091,650.300909 717.01,655.65 C712.55,662.19 710.66,669.65 709.08,677.27 C705.633333,693.87 702.156667,710.47 698.65,727.07 C697.91,730.57 696.72,731.48 693.14,731.49 C688.31,731.49 683.47,731.49 678.64,731.49 C675.57,731.49 674.64,730.23 675.22,727.21 C679.886667,704.403333 684.573333,681.596667 689.28,658.79 C689.8,656.27 690.42,653.79 689.66,651.15 C689.06,649.15 687.98,647.85 685.66,647.66 C682.87,647.43 682.27,646.46 682.83,643.66 C683.39,640.86 683.95,638.11 684.53,635.35 C684.792093,633.17136 686.666262,631.548234 688.86,631.6 C692.943777,631.338834 697.04296,631.737272 701,632.78 C707.59,634.69 710.34,638.06 711,644.88 C711,645.6 711,646.32 711.13,647.64 Z" id="Path" fill="#FFFFFF"></path>
            <path d="M127.09,652.48 L142.19,652.48 C149.69,652.48 157.19,652.48 164.69,652.48 C168.3,652.48 169.17,653.54 168.46,657.08 C167.9,659.85 167.3,662.61 166.68,665.37 C165.89,668.85 164.68,669.81 160.89,669.81 C149.39,669.81 137.89,669.81 126.4,669.73 C124.21,669.73 123.3,670.15 122.83,672.52 C119.35,690.14 115.65,707.71 112.04,725.31 C111.04,730.31 110.24,730.99 105.04,730.99 C100.29,730.99 95.54,730.99 90.8,730.99 C87.36,730.99 86.47,729.88 87.17,726.5 C91.37,706.14 95.58,685.786667 99.8,665.44 C104.4,643.206667 108.986667,620.976667 113.56,598.75 C114.68,593.31 115.43,592.65 121.05,592.66 L186.05,592.78 C190.69,592.78 191.39,593.63 190.44,598.06 C189.88,600.66 189.35,603.27 188.73,605.86 C187.96,609.09 186.82,609.99 183.5,609.99 C168.5,609.99 153.5,609.99 138.5,609.99 C136.5,609.99 135.66,610.36 135.24,612.49 C132.64,625.74 129.86,639 127.09,652.48 Z" id="Path" fill="#FFFFFF"></path>
            <path d="M323.8,733.5 C315.885256,733.426377 308.034284,732.075672 300.55,729.5 C297.912293,728.67949 295.511173,727.235388 293.55,725.29 C291.55,723.2 291.55,721.29 293.3,719.05 C294.44,717.62 295.71,716.3 296.93,714.92 C299.93,711.49 300.43,711.37 304.93,712.92 C311.17,715.02 317.45,716.92 324.08,717.25 C329.95,717.56 335.72,717.33 341.26,715.07 C345.690529,713.332406 348.946632,709.478473 349.92,704.82 C350.85,701.21 349.8,698.72 346.63,696.72 C343.255912,694.739646 339.648089,693.187677 335.89,692.1 C331.63,690.72 327.38,689.23 323.05,688.1 C307.55,683.97 303.82,672.28 306.85,658.97 C310.46,643.12 323,631.97 339.67,629.59 C351.54,627.92 363.26,628.59 374.44,633.52 C376.686231,634.40774 378.76059,635.680104 380.57,637.28 C382.43,639.06 382.57,640.54 380.97,642.51 C378.97,644.89 376.89,647.13 374.9,649.51 C373.9,650.68 372.81,650.6 371.53,650.23 C366.66,648.84 362.01,646.71 357,645.8 C351.29,644.8 345.57,644.45 339.93,646.07 C334.983976,647.376191 331.076534,651.166145 329.62,656.07 C327.82,661.42 329.79,665.24 335.17,666.93 C341.83,669.02 348.52,671 355.17,673.03 C358.531725,673.96385 361.76596,675.30725 364.8,677.03 C370.42,680.38 373.2,685.41 373.53,691.84 C374.42,709.1 365.13,722.79 348.01,729.51 C340.66,732.39 333,733.53 323.8,733.5 Z" id="Path" fill="#FFFFFF"></path>
            <path d="M407.38,646.49 C404.33,646.49 401.25,646.49 398.18,646.49 C394.62,646.49 393.83,645.56 394.51,642.15 C395,639.7 395.51,637.26 396.1,634.84 C396.444299,632.764693 398.30008,631.284384 400.4,631.41 C403.15,631.41 405.91,631.25 408.65,631.41 C410.49,631.54 411.05,630.84 411.34,629.14 C412.1,624.64 413.08,620.14 413.94,615.67 C414.1,614.85 414.17,614.1 415.08,613.67 C423.31,609.53 431.53,605.35 439.99,601.06 C440.21,603.75 439.34,606 438.91,608.28 C437.6,615.28 436.17,622.15 434.69,629.07 C434.3,630.88 434.57,631.57 436.64,631.46 C440.04,631.29 443.47,631.38 446.88,631.46 C449.64,631.51 450.5,632.51 450.01,635.24 C449.52,637.97 448.93,640.45 448.3,643.03 C447.67,645.61 446.07,646.6 443.56,646.58 C439.98,646.58 436.39,646.58 432.81,646.58 C431.53,646.58 430.88,646.87 430.6,648.23 C426.886667,666.83 423.14,685.416667 419.36,703.99 C418.901035,706.120362 419.007913,708.33377 419.67,710.41 C420.706548,713.33228 423.510682,715.251536 426.61,715.16 C433.22,715.33 433.28,715.39 432.02,721.9 C431.63,723.9 431.19,725.97 430.72,727.99 C430.434931,729.900517 428.781491,731.306155 426.85,731.28 C421.53,731.41 416.16,731.76 410.85,730.82 C400.45,728.96 395.3,722.82 395.12,712.14 C395,705.14 396.91,698.47 398.28,691.71 C401.28,676.88 404.37,662.06 407.41,647.23 C407.433049,646.983099 407.422959,646.734225 407.38,646.49 Z" id="Path" fill="#FFFFFF"></path>
            <path d="M269.31,642.57 C270.2786,641.328211 271.309942,640.136661 272.4,639 C279.87,631.92 289,629.55 299.02,629.74 C301.02,629.74 301.89,630.38 301.35,632.63 C300.27,637.07 299.44,641.57 298.48,646.04 C297.63,650.04 296.32,650.7 292.33,650.21 C282.1,648.96 270.91,652.48 267.58,667.21 C263.14,686.91 258.89,706.66 254.58,726.39 C253.58,731.1 252.7,731.82 247.82,731.81 C243.41,731.81 238.99,731.81 234.58,731.81 C231.13,731.81 230.28,730.7 231.01,727.3 C235.923333,704.46 240.843333,681.626667 245.77,658.8 C246.298408,656.786236 246.560641,654.711909 246.55,652.63 C246.39,649.31 245.19,647.93 241.86,647.39 C239.86,647.07 238.92,645.95 239.31,643.91 C239.88,640.91 240.45,637.91 241.13,634.91 C241.4192,632.819946 243.230635,631.279581 245.34,631.33 C250.5,631.25 255.67,631.33 260.68,632.86 C265.34,634.28 268.2,637.28 268.6,642.34 L269.31,642.57 Z" id="Path" fill="#FFFFFF"></path>
            <path d="M181.83,714.34 C182.04,707.21 184.1,700.4 185.58,693.5 C189.65,674.5 193.83,655.5 197.98,636.5 C198.74,633.01 199.98,632.06 203.48,632.04 C208.146667,632.04 212.813333,632.04 217.48,632.04 C220.99,632.04 221.84,633.04 221.11,636.43 C216.196667,659.19 211.266667,681.943333 206.32,704.69 C205.642909,707.44546 205.396657,710.289164 205.59,713.12 C205.89,716.31 207.02,717.52 210.1,717.98 C211.94,718.26 212.79,719.35 212.48,721.1 C211.9,724.38 211.24,727.64 210.48,730.87 C210.088919,732.65125 208.493288,733.907652 206.67,733.87 C201.67,734.03 196.67,733.63 191.97,731.64 C185,728.74 181.65,722.88 181.83,714.34 Z" id="Path" fill="#FFFFFF"></path>
            <path d="M531.19,792.46 C539.63,797.25 540.37,806.86 533.19,813.79 C527.95,818.89 516.51,820.53 510.01,817.13 C506.916046,815.640951 504.965857,812.493347 505.01,809.06 C504.608525,803.171262 507.601595,797.569447 512.72,794.63 C513.97,793.85 515.34,793.26 516.64,792.63 C516.64,792.44 516.64,792.21 516.56,792.17 C509.45,788.49 511.03,781.74 514.75,776.45 C516.630638,773.969672 519.325034,772.231238 522.36,771.54 C525.755143,770.643983 529.306064,770.507409 532.76,771.14 C536.08,771.69 539.12,773.07 540.15,776.63 C541.428289,780.48651 540.614401,784.73008 538,787.84 C536.23,789.92 533.89,791.17 531.19,792.46 Z M513.53,806.56 C513.376603,809.512251 515.479324,812.102872 518.4,812.56 C525.01,813.98 531.4,807.22 529.75,800.56 C529.20286,797.845582 526.819011,795.892499 524.05,795.89 C518.42,795.65 513.51,800.61 513.53,806.56 Z M527.36,776.88 C525.43014,776.866698 523.574184,777.62128 522.20112,778.977462 C520.828056,780.333644 520.050573,782.180124 520.04,784.11 C519.958276,785.451523 520.420073,786.76946 521.321246,787.766582 C522.222418,788.763703 523.487074,789.356039 524.83,789.41 C528.48,789.47 532.33,785.41 532.41,781.5 C532.46,778.76 530.42,776.9 527.36,776.88 Z" id="Shape" fill="#FFFFFF" fill-rule="nonzero"></path>
            <path d="M577.44,780.14 C577.016029,775.563424 573.578019,771.838572 569.05,771.05 C565.918863,770.489857 562.696432,770.741179 559.69,771.78 C551.07,774.89 547.94,781.91 547.13,790.2 C546.28,799.12 551.46,803.72 560.4,802.68 C563.78,802.28 566.11,800.39 568.51,798.18 C568.274989,801.090843 567.353104,803.904476 565.82,806.39 C563.23,811.07 559.36,813.45 553.88,812.53 C552.06431,812.321989 550.272767,811.94024 548.53,811.39 C545.53,810.26 545.46,812.91 544.61,814.28 C543.55,815.99 545.4,816.36 546.38,816.84 C554.65,820.95 563.73,819.18 569.38,811.68 C576.46,802.41 578.94,791.66 577.44,780.14 Z M570.28,784.57 C569.914251,787.383902 569.007594,790.100476 567.61,792.57 C566.03,795.16 563.86,796.72 560.67,796.57 C556.67,796.47 554.92,794.68 555.01,790.1 C555.194567,787.383922 555.900775,784.728854 557.09,782.28 C557.836957,780.596625 559.078664,779.18052 560.65,778.22 C562.98,776.87 565.55,776.14 567.96,777.68 C570.37,779.22 570.73,781.87 570.28,784.57 Z" id="Shape" fill="#FFFFFF" fill-rule="nonzero"></path>
            <path d="M600,807 L582.3,807 C579.85,807 579.38,806.23 580.5,804 C580.944655,803.207112 581.48909,802.474478 582.12,801.82 C590.21,792.54 598.43,783.37 606.36,773.96 C608.69,771.19 611.36,771.48 614.25,771.63 C615.88,771.71 615.25,773.06 615.06,773.94 C613.646667,780.86 612.22,787.773333 610.78,794.68 C610.53445,796.240994 610.200581,797.786809 609.78,799.31 C609.21,801.07 609.99,801.17 611.43,801.25 C612.56,801.31 614.57,800.25 614.52,802.75 C614.45,806.15 613.71,807.23 611.17,806.96 C608.63,806.69 607.74,807.7 607.58,809.96 C607.464862,810.782274 607.301244,811.597026 607.09,812.4 C605.84,818.52 605.84,818.47 599.59,818.13 C598.04,818.04 597.76,817.42 598.04,816.13 C598.69,813.2 599.3,810.27 600,807 Z M604.68,784.16 L590.43,801.16 C594.05,801.16 597,801.16 599.95,801.16 C600.321825,801.210891 600.697952,801.103523 600.986881,800.864015 C601.275811,800.624508 601.451061,800.274814 601.47,799.9 C602.47,794.9 603.5,789.88 604.67,784.15 L604.68,784.16 Z" id="Shape" fill="#FFFFFF" fill-rule="nonzero"></path>
            <path d="M314.75,818.68 C310.932501,818.67472 307.152417,817.927534 303.62,816.48 C302.74,816.1 301.01,815.87 301.8,814.48 C302.59,813.09 302.73,810.39 305.55,811.06 C309.411539,812.084746 313.395197,812.575974 317.39,812.52 C319.489936,812.470618 321.547433,811.918523 323.39,810.91 C328.04,808.31 328.21,803.35 323.61,800.64 C321.346545,799.438257 319.008423,798.382762 316.61,797.48 C306.74,793.23 304.91,783.6 312.74,776.14 C319.04,770.14 326.63,769.63 334.66,771.69 C335.38,771.88 336.08,772.14 336.79,772.38 C340.6,773.69 340.67,773.97 338.59,777.26 C338.371849,777.747088 337.968064,778.12678 337.468492,778.314589 C336.96892,778.502398 336.415005,778.482744 335.93,778.26 C332.026445,777.043613 327.924132,776.595347 323.85,776.94 C321.046982,777.114177 318.498418,778.624713 317,781 C315,784.25 315.74,787.2 319.15,788.87 C321.46,790 323.9,790.87 326.26,791.87 C336.44,796.19 337.88,807.55 329.14,814.37 C325.5,817.17 320.69,818.65 314.75,818.68 Z" id="Path" fill="#FFFFFF"></path>
            <path d="M373.76,789.48 C376.09,786.97 378.04,784.6 381.29,783.88 C390.1,781.94 396.18,787.82 394.38,796.64 C393.54,800.79 392.65,804.93 391.85,809.09 C391.57,810.57 391.4,811.9 393.39,812.72 C394.95,813.36 393.6,814.91 393.55,816.05 C393.589251,816.55289 393.41569,817.049176 393.071583,817.417997 C392.727476,817.786819 392.244401,817.994332 391.74,817.99 C386.28,818.61 382.86,815.1 383.82,809.66 C384.54,805.57 385.42,801.51 386.22,797.43 C386.365999,796.772097 386.456319,796.103065 386.49,795.43 C386.56,793.06 386.49,790.66 383.98,789.43 C381.82,788.36 378.43,789.27 376.49,791.43 C374.55,793.59 373.66,796.43 373.06,799.33 C371.9,804.86 370.7,810.38 369.61,815.93 C369.587932,816.551203 369.302923,817.133763 368.826027,817.532449 C368.349131,817.931134 367.72528,818.10838 367.11,818.02 C361.26,818.16 361.27,818.21 362.45,812.48 C363.75,806.126667 365.04,799.776667 366.32,793.43 C366.63,791.88 367.07,790.24 364.78,789.66 C363.78,789.4 364,788.45 364.26,787.79 C364.72,786.64 364.15,784.97 365.91,784.47 C367.624067,783.928018 369.490202,784.173698 371.005589,785.140843 C372.520976,786.107989 373.529712,787.697099 373.76,789.48 Z" id="Path" fill="#FFFFFF"></path>
            <path d="M448.71,803.94 C446.55,803.94 444.37,804.05 442.22,803.94 C440.62,803.84 440.22,804.52 440.22,805.94 C440.01,811.2 442.85,813.99 448.06,813.35 C450.202638,813.080564 452.313075,812.598178 454.36,811.91 C455.95,811.38 456.54,811.91 457.17,813.26 C457.8,814.61 457.52,815.65 456.17,816.33 C452.060485,818.416828 447.430936,819.257932 442.85,818.75 C435.1,817.99 431.59,813.5 432.32,805.7 C432.633567,801.461577 433.750055,797.321408 435.61,793.5 C439.44,785.87 446.61,782.35 454.83,784 C459.61,785 462.43,788.13 462.67,793 C462.750268,794.496644 462.649539,795.997504 462.37,797.47 C461.37,802.29 459.37,803.92 454.46,804.02 C452.55,804.02 450.63,804.02 448.72,804.02 L448.71,803.94 Z M441.54,798.47 L452.21,798.47 C453.044206,798.569134 453.86115,798.180114 454.31,797.47 C455.39,795.62 454.88,791.74 453.31,790.22 C451.74,788.7 449.4,788.58 447.08,789.9 C443.83,791.73 442.64,795 441.54,798.47 Z" id="Shape" fill="#FFFFFF" fill-rule="nonzero"></path>
            <path d="M218.37,594 C221.03,594 223.69,593.94 226.37,594 C228.79,594.07 229.74,595.18 229.28,597.5 C228.24,602.713333 227.14,607.906667 225.98,613.08 C225.37,615.75 223.98,616.84 221.18,616.86 C216.18,616.86 211.18,616.86 206.18,616.86 C203.06,616.81 202.18,615.62 202.85,612.58 C203.85,607.71 204.93,602.84 206.02,597.99 C206.67,595.09 207.96,594.06 210.87,593.99 C213.36,593.99 215.87,593.99 218.35,593.99 L218.37,594 Z" id="Path" fill="#FFFFFF"></path>
            <path d="M491.61,781.17 C488.91,782.29 486.49,783.3 484.05,784.27 C483.45,784.51 482.58,784.93 482.21,784.69 C481.49,784.23 482.06,783.32 482.1,782.6 C482.25,780 483.58,778.49 486.1,777.54 C490.68,775.78 495.1,773.69 499.63,771.76 C500.29,771.47 501.02,770.76 501.63,771.18 C502.24,771.6 501.72,772.57 501.63,773.25 C498.76,787.35 495.84,801.44 493,815.54 C492.62,817.43 491.78,818.11 489.81,818.08 C484.12,818 484.16,818.08 485.33,812.53 C487.41,802.69 489.43,792.83 491.47,782.98 C491.54,782.51 491.53,782 491.61,781.17 Z" id="Path" fill="#FFFFFF"></path>
            <path d="M400.91,806.72 C401.012822,802.125684 402.111436,797.608403 404.13,793.48 C408.3,784.78 419.42,780.87 427.91,785.15 C428.99,785.7 431,785.98 430.29,787.97 C429.48,790.19 427.51,791.14 425.57,790.22 C417.92,786.62 412.51,791.15 410.46,797.53 C409.357996,800.67533 408.855976,803.999515 408.98,807.33 C409.24,811.47 411.81,813.67 415.98,813.33 C417.958748,813.068697 419.899175,812.57184 421.76,811.85 C422.76,811.52 423.66,811.2 424.17,812.59 C424.59,813.74 425.4,814.74 424.03,815.91 C419.82,819.5 408.96,819.78 404.63,816.32 C401.47,813.86 400.83,810.42 400.91,806.72 Z" id="Path" fill="#FFFFFF"></path>
            <path d="M341.61,810.47 C342.53,805.88 343.61,800.47 344.74,794.98 C345.32,792.13 346,789.3 346.5,786.44 C346.516482,785.817892 346.798057,785.232487 347.273783,784.831272 C347.74951,784.430056 348.37403,784.251286 348.99,784.34 C354.9,784.16 354.87,784.11 353.69,789.81 C352.38,796.16 351.08,802.5 349.83,808.86 C349.53,810.4 349.24,811.86 351.39,812.69 C352.91,813.27 351.62,814.69 351.57,815.8 C351.52,816.91 351.22,817.72 349.95,817.97 C345.46,818.85 341.61,815.82 341.61,810.47 Z" id="Path" fill="#FFFFFF"></path>
            <path d="M353.74,770.07 C354.74,770.07 355.51,770.07 356.25,770.07 C356.99,770.07 357.66,770.39 357.51,771.23 C357.17,773.1 356.75,774.95 356.29,776.79 C356.11,777.49 355.47,777.73 354.77,777.86 C348.87,778.92 348.19,778.09 349.39,772.3 C350,769.16 352.26,770.34 353.74,770.07 Z" id="Path" fill="#FFFFFF"></path>
            <path d="M520.48,351.45 C497.76,350.45 475.38,347.58 453.95,339.45 C435.38,332.45 419.14,322.04 407.14,305.86 C396.36157,291.387695 390.388462,273.902014 390.06,255.86 C389.47,236.31 393.76,217.52 399.43,199 C400.58,195.25 403.11,193.67 407.66,193.46 C412.95,193.2 418.08,194.46 423.26,195.2 C441.05,197.72 458.86,200.14 476.58,203.09 C482.06,204 486.7,203.46 491.07,200.19 C496.42,196.19 502.46,195.47 508.98,195.77 C520.215492,196.149741 531.380046,197.708288 542.29,200.42 C543.437972,200.622546 544.521193,201.095598 545.45,201.8 C561.23,215.54 576.64,229.66 589.67,246.14 C595.57,253.6 595.55,253.66 594.35,263.14 C594.098824,264.683034 594.575001,266.255526 595.64,267.4 C601.04,273.96 606.07,280.81 611.36,287.45 C618.74,296.72 622.23,307.35 623.52,318.89 C624.1,324.016667 624.61,329.153333 625.05,334.3 C625.28,337.02 625.14,337.08 622.61,335.76 C615.786776,332.108163 609.200398,328.030086 602.89,323.55 C596.03,318.81 589.31,313.9 582.81,308.69 C580.827536,307.071673 578.435988,306.033375 575.9,305.69 C560.73746,303.203612 545.576309,310.130247 537.53,323.22 C536.26,325.28 536.25,326.63 538.32,327.89 C538.674176,328.129516 539.00858,328.397039 539.32,328.69 C544.05,332.79 544.06,332.8 541.49,338.69 C541.13,339.52 540.7,340.34 540.28,341.15 C536.58,348.15 531.9,353.6 522.76,351.52 C522.004824,351.41362 521.240279,351.390147 520.48,351.45 Z M544.72,264.24 L531.21,249.08 C530.08,247.81 529.46,249.08 528.8,249.62 C521.96,255.58 515.133333,261.56 508.32,267.56 C507.74,268.07 506.88,268.41 506.76,269.51 L544.72,264.24 Z" id="Shape" fill="#162D4C" fill-rule="nonzero"></path>
            <path d="M518.45,474.18 L510.04,468.18 C487.28,452.06 464.533333,435.93 441.8,419.79 C440.321485,418.590211 438.289853,418.334318 436.56,419.13 C419.46,425.13 402.3,430.96 385.25,437.13 C381.7,438.41 378.54,437.35 375.25,437 C370.11,436.46 370.11,436.4 371.19,431.29 C379.79,390.336667 388.393333,349.396667 397,308.47 C397.1,308.01 397.22,307.55 397.33,307.08 C398.33,307.31 398.56,308.13 398.95,308.7 C418.39,337.57 445.64,354.53 479.45,361.49 C492.434235,364.099614 505.64612,365.409413 518.89,365.4 C520.89,365.4 521.41,366.03 521.52,367.91 C521.87,373.56 522.39,379.2 522.91,384.84 C523.134255,386.906478 522.964591,388.99674 522.41,391 C520.94,396.12 519.6,401.27 518.12,406.38 C517.674687,407.708139 517.882256,409.16854 518.68,410.32 C527.55,424.61 536.33,438.94 545.17,453.24 C545.984512,454.489228 546.437872,455.939287 546.48,457.43 C546.73,465.67 547.05,473.91 547.39,482.15 C547.451282,483.390386 547.228984,484.628419 546.74,485.77 C542.92,495.08 539.2,504.43 535.31,513.71 C534.08552,516.439648 533.454933,519.398294 533.46,522.39 C533.46,525.04 533.2,527.69 533.05,530.27 C532.31,530.62 531.99,530.11 531.64,529.81 C517.64,518.21 503.74,506.57 489.73,495.02 C488.09,493.67 488.17,493.11 489.93,492.02 C498.65,486.66 507.31,481.2 515.98,475.76 C516.71,475.33 517.4,474.87 518.45,474.18 Z" id="Path" fill="#162D4C"></path>
            <path d="M438.51,428.61 C439.327784,428.693831 440.087757,429.070266 440.65,429.67 C453.683333,438.79 466.713333,447.9 479.74,457 C481.26,458.05 481.64,459 481.24,460.88 C477.24,479.88 473.48,499.02 469.58,518.08 C469.207619,519.692784 469.450084,521.386472 470.26,522.83 C471.84,525.83 473.26,528.92 474.71,531.94 C473.97,532.75 473.18,532.43 472.49,532.43 C456.58,532.43 440.67,532.43 424.75,532.5 C423.339168,532.649262 422.016654,531.789837 421.58,530.44 C420.43,527.86 419.19,525.31 417.79,522.85 C416.91343,521.43315 416.84509,519.660119 417.61,518.18 C424.23,502.47 430.75,486.72 437.35,471.01 C438.15651,469.113563 438.561679,467.070694 438.54,465.01 C438.47,452.92 438.51,440.85 438.51,428.61 Z" id="Path" fill="#162D4C"></path>
            <path d="M658.66,371.07 C629.24,371.07 602.39,362.27 577.43,347.07 C568.599958,341.711936 560.269732,335.570528 552.54,328.72 C551.07,327.42 551.1,326.51 552.22,325.08 C558.28,317.32 566.42,315.16 575.79,316.15 C579.072506,316.541583 582.185087,317.824658 584.79,319.86 C604.87,334.62 626.58,346.11 650.94,352.16 C664.620285,355.537373 678.773993,356.572021 692.8,355.22 C696.11,354.92 699.46,354.98 702.8,355.01 C704.18,355.01 705.8,355.13 706.44,356.65 C707.13,358.36 706.06,359.65 704.88,360.82 C702.389977,363.045422 699.439975,364.694555 696.24,365.65 C685.84,369.25 675.05,370.6 664.12,371.04 C662.32,371.13 660.49,371.07 658.66,371.07 Z" id="Path" fill="#162D4C"></path>
            <path d="M584.2,360.29 C594.008368,365.958263 604.531995,370.286773 615.49,373.16 C618.220212,373.896991 620.991749,374.471333 623.79,374.88 C625.44,375.1 625.65,375.8 625.49,377.16 C625.175976,381.310258 624.249264,385.391163 622.74,389.27 C616.83,403.02 610.07,416.4 604.38,430.27 C602.01,436.04 599.56,441.78 598.38,447.94 C597,454.94 601.85,460.03 608.91,458.76 C610.81,458.42 611.38,458.88 611.73,460.64 C612.250737,463.420595 612.528452,466.24124 612.56,469.07 C612.680142,470.424183 611.912391,471.701074 610.66,472.23 C602.81,476.28 595.34,474.83 588.54,470.07 C581.33,465.02 578.54,457.36 578.12,448.86 C577.56,438.34 578.95,427.92 580.31,417.51 C582.07,404.15 584.93,390.95 586.25,377.51 C586.68,373.13 585.25,368.95 584.86,364.65 C584.7,363.33 584.46,362 584.2,360.29 Z" id="Path" fill="#162D4C"></path>
            <path d="M544.72,264.24 L506.72,269.51 C506.84,268.41 507.72,268.07 508.28,267.56 C515.086667,261.56 521.913333,255.58 528.76,249.62 C529.42,249.05 530.04,247.81 531.17,249.08 L544.72,264.24 Z" id="Path" fill="#DCAA10"></path>
        </g>
    </g>
</svg>