<svg width="462" height="1369" viewBox="0 0 462 1369" fill="none" xmlns="http://www.w3.org/2000/svg">
<path fill-rule="evenodd" clip-rule="evenodd" d="M2.36503 922.725L2.3736 922.7C57.1115 768.066 57.1115 599.015 2.3736 444.38L2.36503 444.356L2.35677 444.332C-5.12388 422.304 6.96413 400.522 27.4162 391.919L27.5675 391.855L27.7234 391.804C50.0028 384.514 72.1631 396.25 80.9642 416.407L81.0204 416.536L81.0674 416.668C141.781 587.505 141.789 776.866 81.0921 947.707C75.1984 966.404 58.9469 978.111 41.0499 978.111C36.3787 978.111 31.8315 976.622 27.9905 975.364L27.7234 975.277C5.29778 967.94 -5.01244 944.449 2.35677 922.749L2.36503 922.725ZM77.2984 946.437C137.712 776.444 137.712 588.001 77.2984 418.008C69.2432 399.559 49.1052 389.017 28.9673 395.606C10.1719 403.512 -0.568314 423.279 6.14433 443.046C61.188 598.544 61.188 768.537 6.14433 924.035C-0.568314 943.802 8.82934 964.886 28.9673 971.475C32.9948 972.793 37.0223 974.111 41.0499 974.111C57.1603 974.111 71.9282 963.569 77.2984 946.437Z" fill="#161718"/>
<path fill-rule="evenodd" clip-rule="evenodd" d="M126.081 1093.52L126.085 1093.52C258.404 836.379 258.404 529.382 126.085 272.246L126.081 272.239L126.077 272.231C115.636 251.735 124.598 226.996 143.883 216.804L143.936 216.776L143.989 216.749C164.734 206.568 189.864 215.252 200.275 234.23L200.301 234.277L200.325 234.324C344.545 514.799 344.567 848.183 200.391 1128.67C192.953 1146.05 177.987 1153.37 163.205 1153.37C157.299 1153.37 149.972 1151.95 143.989 1149.01C123.077 1138.75 115.724 1113.85 126.077 1093.53L126.081 1093.52ZM196.768 1126.97C340.419 847.603 340.419 515.523 196.768 236.154C187.37 219.022 164.547 211.116 145.752 220.34C128.299 229.565 120.244 251.967 129.641 270.416C262.552 528.701 262.552 837.061 129.641 1095.35C120.244 1113.79 126.956 1136.2 145.752 1145.42C151.122 1148.06 157.835 1149.37 163.205 1149.37C176.63 1149.37 190.055 1142.79 196.768 1126.97Z" fill="#161718"/>
<path fill-rule="evenodd" clip-rule="evenodd" d="M221.482 1360.96L221.375 1360.89C202.073 1347.77 197.584 1322.84 210.957 1303.88C291.198 1189.68 347.371 1063.66 379.478 928.44C383.974 906.56 406.224 891.95 428.581 897.728C450.978 902.195 464.231 924.169 459.8 945.915L459.79 945.967L459.778 946.018C426.098 1091.48 365.471 1227.69 277.898 1350.68L277.886 1350.69L277.874 1350.71C270.542 1360.79 258.678 1368.17 245.104 1368.17C237.488 1368.17 228.735 1365.23 221.593 1361.03L221.482 1360.96ZM427.688 901.629C407.55 896.358 387.412 909.536 383.384 929.303C351.163 1065.03 294.777 1191.54 214.225 1306.19C202.143 1323.32 206.17 1345.72 223.623 1357.58C230.336 1361.53 238.391 1364.17 245.104 1364.17C257.186 1364.17 267.927 1357.58 274.639 1348.36C361.904 1225.8 422.318 1090.07 455.881 945.116C459.908 925.35 447.826 905.583 427.688 901.629Z" fill="#161718"/>
<path fill-rule="evenodd" clip-rule="evenodd" d="M279.25 17.7353L279.257 17.7445C365.474 140.719 426.092 276.914 461.112 422.345L461.129 422.414L461.143 422.483C465.566 444.19 452.366 466.125 430.04 470.645C425.532 472.086 422.398 472.086 419.65 472.086H419.633C400.288 472.086 383.935 458.914 379.49 440.01C347.385 304.769 291.207 178.734 210.954 64.5118C197.585 45.5528 202.074 20.6236 221.375 7.50795C240.593 -5.55185 265.883 -1.21731 279.25 17.7353ZM214.225 62.2098C294.777 176.857 351.163 303.363 383.384 439.095C387.412 456.226 402.18 468.086 419.633 468.086C422.318 468.086 425.003 468.086 429.03 466.768C449.168 462.815 461.251 443.048 457.223 423.281C422.318 278.326 361.904 142.594 275.982 20.0408C263.899 2.90968 241.076 -1.04366 223.623 10.8164C206.17 22.6764 202.143 45.0786 214.225 62.2098Z" fill="#161718"/>
</svg>
