<?xml version="1.0" encoding="UTF-8"?>
<svg width="988px" height="988px" viewBox="0 0 988 988" version="1.1" xmlns="http://www.w3.org/2000/svg" xmlns:xlink="http://www.w3.org/1999/xlink">
    <!-- Generator: Sketch 52 (66869) - http://www.bohemiancoding.com/sketch -->
    <title>First City Monument Bank Ltd Logo</title>
    <desc>Created with Sketch.</desc>
    <g id="Page-1" stroke="none" stroke-width="1" fill="none" fill-rule="evenodd">
        <g id="First-City-Monument-Bank-Ltd-Logo">
            <rect id="Rectangle" fill="#5C2682" x="0" y="0" width="988" height="988" rx="39.46"></rect>
            <polygon id="Path" fill="#FFFFFF" points="190.87 398.31 190.87 434.81 271.61 434.81 271.61 468.42 190.87 468.42 190.87 533.93 153.64 533.93 153.64 364.71 282.48 364.71 282.48 398.31"></polygon>
            <path d="M447.35,519.18 C442.607805,522.92911 437.458733,526.132604 432,528.73 C426.182775,531.463397 420.054334,533.478227 413.75,534.73 C406.425762,536.169466 398.974025,536.85969 391.51,536.79 C379.647076,536.898017 367.885873,534.594767 356.94,530.02 C346.62878,525.725322 337.26402,519.442506 329.38,511.53 C321.565771,503.592962 315.403526,494.184746 311.25,483.85 C306.861885,473.023944 304.643212,461.441316 304.72,449.76 L304.72,449.28 C304.631739,437.626802 306.851057,426.071391 311.25,415.28 C315.458299,404.94131 321.613115,395.507094 329.38,387.49 C337.282212,379.395574 346.737942,372.980644 357.18,368.63 C368.533694,363.950187 380.720972,361.629773 393,361.81 C400.255324,361.755387 407.498961,362.401721 414.63,363.74 C420.7185,364.905794 426.672521,366.688315 432.4,369.06 C437.60096,371.255459 442.546886,374.011764 447.15,377.28 C451.624301,380.47646 455.82844,384.035095 459.72,387.92 L436,415.23 C429.942559,409.661163 423.149105,404.950496 415.81,401.23 C408.610702,397.772114 400.705711,396.036371 392.72,396.16 C385.93414,396.096971 379.214571,397.498871 373.02,400.27 C367.087451,402.927111 361.776878,406.796778 357.43,411.63 C353.028277,416.547793 349.585696,422.245858 347.28,428.43 C344.830213,434.960545 343.59983,441.885262 343.65,448.86 L343.65,449.34 C343.607614,456.353129 344.837517,463.315804 347.28,469.89 C349.550242,476.094232 352.939706,481.829203 357.28,486.81 C366.23871,496.944728 379.164253,502.679274 392.69,502.52 C402.363333,502.52 410.543333,500.746667 417.23,497.2 C424.47939,493.255066 431.182708,488.380537 437.17,482.7 L460.86,506.63 C456.680718,511.149162 452.164409,515.344549 447.35,519.18 Z" id="Path" fill="#FFFFFF"></path>
            <polygon id="Path" fill="#FFFFFF" points="623.09 533.93 623.09 423.45 575.46 495.73 574.46 495.73 527.32 424.18 527.32 533.93 490.62 533.93 490.62 364.71 530.74 364.71 575.22 436.27 619.7 364.71 659.83 364.71 659.83 533.93"></polygon>
            <path d="M839.57,507.82 C836.576832,513.640383 832.181218,518.623683 826.78,522.32 C820.700469,526.419045 813.922168,529.370994 806.78,531.03 C798.262644,533.045385 789.532095,534.019177 780.78,533.93 L700.44,533.93 L700.44,364.71 L778.87,364.71 C796.236667,364.71 809.866667,368.66 819.76,376.56 C829.653333,384.46 834.603333,395.096667 834.61,408.47 L834.61,409 C834.678881,413.338293 834.068154,417.660625 832.8,421.81 C831.673038,425.350417 830.057454,428.716219 828,431.81 C826.041741,434.741387 823.68591,437.386648 821,439.67 C818.383248,441.912488 815.525767,443.857721 812.48,445.47 C822.26,449.183333 829.96,454.22 835.58,460.58 C841.2,466.94 844.006667,475.746667 844,487 L844,487.48 C844.17152,494.516742 842.65234,501.491941 839.57,507.82 Z M797.86,414.75 C797.86,409.11 795.766667,404.8 791.58,401.82 C787.393333,398.84 781.35,397.35 773.45,397.35 L736.7,397.35 L736.7,433.12 L771,433.12 C779.22,433.12 785.746667,431.71 790.58,428.89 C795.413333,426.07 797.83,421.516667 797.83,415.23 L797.86,414.75 Z M807.29,482.44 C807.467405,477.156311 805.023395,472.126068 800.76,469 C796.406667,465.7 789.406667,464.033333 779.76,464 L736.76,464 L736.76,501.23 L781,501.23 C789.22,501.23 795.666667,499.74 800.34,496.76 C805.013333,493.78 807.346667,489.146667 807.34,482.86 L807.29,482.44 Z" id="Shape" fill="#FFFFFF" fill-rule="nonzero"></path>
            <path d="M841.22,642.359999 L841.22,725.22 L149.939999,725.22 L149.94,681.64 C149.937347,671.221483 154.074911,661.22892 161.441915,653.861915 C168.80892,646.494911 178.801483,642.357347 189.22,642.36 L841.22,642.359999 Z" id="Path" fill="#FAB613"></path>
            <path d="M149.939995,752.05 L841.22,752.05 L841.22,834.910001 L189.22,834.91 C178.79975,834.912655 168.80567,830.773718 161.438378,823.40455 C154.071086,816.035383 149.934693,806.040249 149.94,795.62 L149.939995,752.05 Z" id="Path" fill="#FAB613"></path>
        </g>
    </g>
</svg>