<svg width="21" height="21" viewBox="0 0 21 21" fill="none" xmlns="http://www.w3.org/2000/svg">
<path d="M20.9689 0H0V20.966H20.9689V0Z" fill="#FFCB0A"/>
<path d="M15.1708 4.72878L15.5543 4.57944L15.1063 3.47258L12.7638 4.30126L13.0595 5.02746H13.039C13.039 5.02746 13.0595 5.04795 13.0595 5.07138L13.1444 5.30564C13.6774 6.64968 15.7652 12.7609 10.6086 13.1679H10.3304C4.83125 12.7433 7.58084 5.75365 7.85902 5.09188L8.24261 4.19585L5.92054 3.32031L5.4491 4.42717L5.8532 4.57651C3.03919 9.45491 3.38179 11.8004 3.38179 11.8004C3.89423 17.2352 9.68915 17.6187 10.2865 17.6392H10.307C10.3275 17.6627 10.3275 17.6627 10.3275 17.6627V17.6392H10.6057V17.6627C10.6057 17.6627 17.0184 17.5338 17.5748 11.8004C17.5807 11.8033 17.8998 9.50176 15.1708 4.72878Z" fill="black"/>
<path d="M6.39207 8.03199C6.39207 8.28674 6.15782 8.5005 5.87964 8.5005C5.60146 8.5005 5.39062 8.28674 5.39062 8.03199C5.39062 7.77431 5.60438 7.56055 5.87964 7.56055C6.15782 7.56348 6.39207 7.77723 6.39207 8.03199Z" fill="#FFCB0A"/>
<path d="M5.47557 11.3792C5.47557 11.6369 5.26181 11.8477 4.98363 11.8477C4.70545 11.8477 4.47119 11.6369 4.47119 11.3792C4.47119 11.101 4.70545 10.8902 4.98363 10.8902C5.26474 10.8872 5.47557 11.101 5.47557 11.3792Z" fill="#FFCB0A"/>
<path d="M6.67039 14.6379C6.67039 14.8927 6.43614 15.1065 6.15796 15.1065C5.87978 15.1065 5.66895 14.8927 5.66895 14.6379C5.66895 14.3832 5.87978 14.1694 6.15796 14.1694C6.43614 14.1694 6.67039 14.3832 6.67039 14.6379Z" fill="#FFCB0A"/>
<path d="M14.6816 8.03199C14.6816 8.28674 14.9159 8.5005 15.1941 8.5005C15.4898 8.5005 15.727 8.28674 15.727 8.03199C15.727 7.77431 15.4928 7.56055 15.1941 7.56055C14.9159 7.56348 14.6816 7.77723 14.6816 8.03199Z" fill="#FFCB0A"/>
<path d="M15.4287 11.3792C15.4287 11.6369 15.663 11.8477 15.9616 11.8477C16.2398 11.8477 16.4712 11.6369 16.4712 11.3792C16.4712 11.101 16.2369 10.8902 15.9616 10.8902C15.66 10.8872 15.4287 11.101 15.4287 11.3792Z" fill="#FFCB0A"/>
<path d="M14.3833 14.6379C14.3833 14.8927 14.6176 15.1065 14.9162 15.1065C15.1944 15.1065 15.4287 14.8927 15.4287 14.6379C15.4287 14.3832 15.1944 14.1694 14.9162 14.1694C14.6176 14.1694 14.3833 14.3832 14.3833 14.6379Z" fill="#FFCB0A"/>
</svg>
