<svg width="71" height="67" viewBox="0 0 71 67" fill="none" xmlns="http://www.w3.org/2000/svg">
<path fill-rule="evenodd" clip-rule="evenodd" d="M70.6569 37.7563C73.0876 20.9318 61.5988 3.04662 42.3896 0.342454C22.1766 -2.49786 6.92696 12.8219 4.72263 28.075C3.74139 34.884 5.87831 40.2252 5.13993 45.3557C4.3748 50.6299 2.01971 53.1065 0.638144 55.2269C-0.334353 56.7098 -0.23556 59.0731 1.21289 60.8497C2.77095 62.7654 4.68867 63.1058 6.74532 62.3829C8.8277 61.6432 11.6099 60.4392 16.4266 60.9193C22.9567 61.571 25.2768 64.803 32.9286 65.879C52.693 68.6568 68.2771 54.2333 70.6569 37.7563Z" fill="#D43157"/>
<path fill-rule="evenodd" clip-rule="evenodd" d="M64.9039 23.8637C65.9263 24.17 66.5165 25.2587 66.215 26.3007C65.9701 27.1262 65.207 27.7063 64.3544 27.7063C64.1712 27.7063 63.9844 27.6779 63.8049 27.624C63.2929 27.4706 62.7562 27.3929 62.2159 27.3929C59.1199 27.3929 56.6007 29.9431 56.6007 33.073V40.614C56.6007 41.694 55.7321 42.5714 54.6634 42.5714C53.5937 42.5714 52.7246 41.694 52.7246 40.614V33.073C52.7246 27.778 56.9814 23.4715 62.2159 23.4715C63.1282 23.4715 64.0333 23.6036 64.9039 23.8637ZM19.7528 23.472C25.0073 23.472 29.2838 27.7769 29.2838 33.0715V40.613C29.2838 41.6945 28.4116 42.5719 27.3393 42.5719C26.2623 42.5719 25.3896 41.6945 25.3896 40.613V33.0715C25.3896 29.9416 22.8612 27.3914 19.7528 27.3914C16.6439 27.3914 14.1154 29.9416 14.1154 33.0715V40.613C14.1154 41.6945 13.2391 42.5719 12.1637 42.5719C11.0939 42.5719 10.2197 41.6945 10.2197 40.613V33.0715C10.2197 27.7769 14.4982 23.472 19.7528 23.472ZM50.0955 37.947C50.0955 36.4128 50.7274 34.9081 50.7274 32.874C50.7274 28.313 46.9074 23.1968 40.8687 23.1968C35.1299 23.1968 31.0094 27.9655 31.0094 32.9923C31.0094 37.9145 34.9652 42.7823 40.8687 42.7823C43.1599 42.7823 43.5278 42.1874 45.4692 42.1874C48.2926 42.1874 49.2522 43.523 50.4604 42.3967C51.6685 41.2684 50.0955 40.8082 50.0955 37.947ZM46.0347 38.2279C45.4908 38.7207 42.7884 38.9798 41.003 38.9798C39.2118 38.9798 34.9344 37.5777 34.9344 33.0569C34.9344 28.5365 38.9268 27.0684 40.9675 27.0684C44.7756 27.0684 46.9964 30.2541 46.9964 32.9903C46.9964 35.7244 46.5791 37.7392 46.0347 38.2279Z" fill="#FEFEFE"/>
</svg>
