<svg width="194" height="64" viewBox="0 0 194 64" fill="none" xmlns="http://www.w3.org/2000/svg">
<path d="M92.7824 46.5411C92.0564 47.0499 90.5703 47.4861 88.9555 47.4861C85.9916 47.4861 84.6581 45.2255 84.7133 42.5961C84.7599 40.4172 86.127 37.9476 89.8293 37.9476L92.7824 37.9463V46.5411V46.5411ZM89.7347 22.3731C86.2171 22.3731 83.0516 23.3608 79.7986 24.9655L78.9682 25.3907L80.9487 29.7796L82.0652 29.2553C84.3687 28.2316 86.8226 27.545 89.0296 27.6367C91.7008 27.7472 92.7932 28.9633 92.7932 31.5013V32.9903H88.426C81.4058 32.9903 77.0376 36.6867 76.911 42.425C76.911 47.8785 81.4893 52.5727 87.8537 52.5727C92.9893 52.5727 97.3408 50.9181 100.273 48.001V32.4397C100.273 24.8625 94.8259 22.3731 89.7347 22.3731V22.3731ZM194 47.4666V52.0688C194 52.0688 192.444 52.364 191.184 52.364C185.3 52.364 181.786 49.6105 181.786 43.1814V16.0661L189.175 14.8159V43.6568C189.175 45.8849 189.82 47.2184 192.889 47.4556C193.307 47.4861 194 47.4666 194 47.4666V47.4666ZM161.59 33.7755C161.715 30.9514 162.899 28.0485 165.809 28.0485C169.085 28.0485 169.568 31.5778 169.568 33.7755H161.59V33.7755ZM167.403 47.4332C165.382 47.4332 164.019 46.7751 163.125 45.8172C161.798 44.3946 161.211 41.4697 161.37 38.3605H177.262V37.6349C177.12 27.3032 173.573 22.597 165.809 22.597C157.144 22.597 153.769 30.5139 153.705 37.9528C153.652 42.659 155.439 47.3973 158.706 50.0963C160.696 51.7379 163.456 52.6482 166.655 52.6482C168.397 52.6482 170.219 52.3906 171.879 51.8795C175.068 50.8986 177.42 49.2035 177.42 49.2035L175.342 44.9559C174.968 45.2362 171.785 47.4332 167.403 47.4332V47.4332ZM151.114 47.4932V52.0296C151.114 52.0296 149.751 52.2982 148.305 52.2982C142.286 52.2982 138.695 49.4119 138.695 43.3094V16.0612L146.25 14.8564V22.9062H151.112V28.2867H146.25V43.6188C146.25 45.626 146.874 47.3607 150.043 47.4712C150.472 47.4861 151.034 47.4861 151.114 47.4932V47.4932ZM105.791 24.0854L113.163 22.8906V52.0448H105.791V24.0854V24.0854ZM109.553 11.2413C110.835 11.2413 112.021 11.7374 112.893 12.636C113.754 13.5275 114.209 14.6947 114.17 15.9251C114.17 18.5185 112.113 20.5581 109.487 20.5581C106.865 20.5581 104.806 18.5127 104.806 15.895C104.806 13.3308 106.936 11.2413 109.553 11.2413ZM136.708 23.3333L134.629 27.9646C134.629 27.9646 133.441 27.5871 131.612 27.6603C129.634 27.7391 127.553 28.5706 126.573 29.5197V52.0659H119.052L119.057 28.1153C123.535 23.3877 128.504 22.4463 131.741 22.4463C133.976 22.4463 135.9 22.9376 136.708 23.3333V23.3333Z" fill="#E20010"/>
<path d="M42.6606 0V0.0810127H42.008V0.162025H41.2739V0.243038H40.6213V0.324051H40.0504V0.405063H39.6425V0.486076H39.2347V0.567089H38.8268V0.648101H38.419V0.729114H38.0111V0.810127H37.6033V0.891139H37.3586V0.972152H37.0323V1.05316H36.706V1.13418H36.3798V1.21519H36.135V1.2962H35.8088V1.37722H35.4825V1.45823H35.1562V1.53924H34.9115V1.62025H34.6668V1.70127H34.4221V1.78228H34.1774V1.86329H33.9327V1.9443H33.688V2.02532H33.4433V2.10633H33.1986V2.18734H32.9539V2.26835H32.7092V2.34937H32.4644V2.43038H32.2197V2.51139H31.975V2.59241H31.7303V2.67342H31.5672V2.75443H31.3225V2.83544H31.1593V2.91646H30.9146V2.99747H30.7515V3.07848H30.5068V3.15949H30.2621V3.24051H30.0989V3.32152H29.8542V3.40253H29.6911V3.48354H29.4464V3.56456H29.2833V3.64557H29.0385V3.72658H28.8754V3.80759H28.7123V3.88861H28.5491V3.96962H28.3044V4.05063H28.1413V4.13165H27.9782V4.21266H27.815V4.29367H27.6519V4.37468H27.4072V4.4557H27.244V4.53671H27.0809V4.61772H26.9178V4.69873H26.7546V4.77975H26.5099V4.86076H26.3468V4.94177H26.1836V5.02278H26.0205V5.1038H25.8574V5.18481H25.6942V5.26582H25.5311V5.34684H25.3679V5.42785H25.2048V5.50886H25.0417V5.58987H24.8785V5.67089H24.7154V5.7519H24.5523V5.83291H24.3891V5.91392H24.226V5.99494H24.0628V6.07595H23.8997V6.15696H23.8181V6.23797H23.655V6.31899H23.4919V6.4H23.3287V6.48101H23.1656V6.56203H23.0024V6.64304H22.8393V6.72405H22.7577V6.80506H22.5946V6.88608H22.4315V6.96709H22.2683V7.0481H22.1868V7.12911H22.0236V7.21013H21.8605V7.29114H21.6973V7.37215H21.6158V7.45316H21.4526V7.53418H21.2895V7.61519H21.1264V7.6962H20.9632V7.77722H20.8817V7.85823H20.7185V7.93924H20.5554V8.02025H20.3922V8.10127H20.3107V8.18228H20.1475V8.26329H20.066V8.3443H19.9028V8.42532H19.8213V8.50633H19.6581V8.58734H19.495V8.66835H19.4134V8.74937H19.2503V8.83038H19.1687V8.91139H19.0056V8.99241H18.8424V9.07342H18.7609V9.15443H18.5977V9.23544H18.5162V9.31646H18.353V9.39747H18.2714V9.47848H18.1083V9.55949H17.9452V9.64051H17.8636V9.72152H17.7005V9.80253H17.6189V9.88354H17.4558V9.96456H17.3742V10.0456H17.211V10.1266H17.1295V10.2076H17.0479V10.2886H16.8848V10.3696H16.8032V10.4506H16.6401V10.5316H16.5585V10.6127H16.3954V10.6937H16.3138V10.7747H16.2322V10.8557H16.0691V10.9367H15.9875V11.0177H15.8244V11.0987H15.7428V11.1797H15.5797V11.2608H15.4981V11.3418H15.4165V11.4228H15.2534V11.5038H15.1718V11.5848H15.0087V11.6658H14.9271V11.7468H14.8456V11.8278H14.6824V11.9089H14.6008V11.9899H14.5193V12.0709H14.3561V12.1519H14.2746V12.2329H14.193V12.3139H14.1114V12.3949H13.9483V12.4759H13.8667V12.557H13.7852V12.638H13.622V12.719H13.5404V12.8H13.4589V12.881H13.3773V12.962H13.2142V13.043H13.1326V13.1241H13.051V13.2051H12.8879V13.2861H12.8063V13.3671H12.7248V13.4481H12.5616V13.5291H12.4801V13.6101H12.3985V13.6911H12.3169V13.7722H12.2353V13.8532H12.1538V13.9342H11.9906V14.0152H11.9091V14.0962H11.8275V14.1772H11.7459V14.2582H11.6644V14.3392H11.5828V14.4203H11.4197V14.5013H11.3381V14.5823H11.2565V14.6633H11.1749V14.7443H11.0934V14.8253H11.0118V14.9063H10.8487V14.9873H10.7671V15.0684H10.6855V15.1494H10.604V15.2304H10.5224V15.3114H10.4408V15.3924H10.2777V15.4734H10.1961V15.5544H10.1146V15.6354H10.033V15.7165H9.95141V15.7975H9.86984V15.8785H9.78827V15.9595H9.70671V16.0405H9.62514V16.1215H9.54357V16.2025H9.462V16.2835H9.38043V16.3646H9.29886V16.4456H9.21729V16.5266H9.13572V16.6076H9.05415V16.6886H8.97259V16.7696H8.89102V16.8506H8.80945V16.9316H8.72788V17.0127H8.64631V17.0937H8.48317V17.1747H8.4016V17.2557H8.32003V17.3367H8.23846V17.4177H8.1569V17.4987H8.07533V17.5797H7.99376V17.6608H7.91219V17.7418H7.83062V17.8228H7.74905V17.9038H7.66748V18.0658H7.58591V18.1468H7.50434V18.2278H7.42278V18.3089H7.34121V18.3899H7.25964V18.4709H7.17807V18.5519H7.0965V18.6329H7.01493V18.7139H6.93336V18.7949H6.85179V18.957H6.77022V19.038H6.68865V19.119H6.60709V19.2H6.52552V19.281H6.44395V19.362H6.36238V19.443H6.28081V19.5241H6.19924V19.6051H6.11767V19.7671H6.0361V19.8481H5.95453V19.9291H5.87296V20.0101H5.7914V20.0911H5.70983V20.1722H5.62826V20.3342H5.54669V20.4152H5.46512V20.4962H5.38355V20.6582H5.30198V20.7392H5.22041V20.8203H5.13884V20.9013H5.05728V21.0633H4.97571V21.1443H4.89414V21.2253H4.81257V21.3873H4.731V21.4684H4.64943V21.5494H4.56786V21.6304H4.48629V21.7924H4.40472V21.8734H4.32315V21.9544H4.24159V22.1165H4.16002V22.1975H4.07845V22.2785H3.99688V22.4405H3.91531V22.5215H3.83374V22.6835H3.75217V22.7646H3.6706V22.8456H3.58903V23.0076H3.50747V23.0886H3.4259V23.2506H3.34433V23.3316H3.26276V23.4937H3.18119V23.6557H3.09962V23.7367H3.01805V23.8987H2.93648V23.9797H2.85491V24.1418H2.77334V24.3038H2.69178V24.3848H2.61021V24.5468H2.52864V24.6278H2.44707V24.7899H2.3655V24.9519H2.28393V25.1139H2.20236V25.2759H2.12079V25.357H2.03922V25.519H1.95765V25.681H1.87609V25.843H1.79452V26.0051H1.71295V26.1671H1.63138V26.3291H1.54981V26.4911H1.46824V26.6532H1.38667V26.8152H1.3051V27.0582H1.22353V27.2203H1.14197V27.3823H1.0604V27.6253H0.978827V27.7873H0.897259V28.0304H0.81569V28.2734H0.734121V28.4354H0.652552V28.7595H0.570983V29.0025H0.489414V29.2456H0.407845V29.5696H0.326276V29.9747H0.244707V30.2987H0.163138V30.8658H0.081569V31.838H0V32.7291H0.081569V33.5392H0.163138V33.9443H0.244707V34.2684H0.326276V34.5924H0.407845V34.8354H0.489414V35.0785H0.570983V35.3215H0.652552V35.4835H0.734121V35.6456H0.81569V35.8076H0.897259V35.9696H0.978827V36.1316H1.0604V36.2937H1.14197V36.4557H1.22353V36.5367H1.3051V36.6987H1.38667V36.7797H1.46824V36.9418H1.54981V37.0228H1.63138V37.1848H1.71295V37.2658H1.79452V37.3468H1.87609V37.4278H1.95765V37.5089H2.03922V37.5899H2.12079V37.6709H2.20236V37.7519H2.28393V37.8329H2.3655V37.9139H2.44707V37.9949H2.52864V38.0759H2.61021V38.157H2.69178V38.238H2.77334V38.319H2.85491V38.4H2.93648V38.481H3.01805V38.562H3.09962V38.643H3.18119V38.7241H3.34433V38.8051H3.4259V38.8861H3.58903V38.9671H3.6706V39.0481H3.83374V39.1291H3.91531V39.2101H4.07845V39.2911H4.16002V39.3722H4.32315V39.4532H4.40472V39.5342H4.56786V39.6152H4.64943V39.6962H4.81257V39.7772H4.97571V39.8582H5.22041V39.9392H5.38355V40.0203H5.54669V40.1013H5.7914V40.1823H5.95453V40.2633H6.11767V40.3443H6.44395V40.4253H6.85179V40.5063H7.25964V40.5873H7.66748V40.6684H9.70671V40.5873H10.2777V40.5063H10.7671V40.4253H11.0934V40.3443H11.4197V40.2633H11.6644V40.1823H11.9091V40.1013H12.2353V40.0203H12.4801V39.9392H12.6432V39.8582H12.8879V39.7772H13.051V39.6962H13.2142V39.6152H13.4589V39.5342H13.622V39.4532H13.7852V39.3722H13.9483V39.2911H14.1114V39.2101H14.2746V39.1291H14.4377V39.0481H14.6008V38.9671H14.764V38.8861H14.9271V38.8051H15.0903V38.7241H15.2534V38.643H15.4165V38.562H15.4981V38.481H15.6612V38.4H15.7428V38.319H15.9059V38.238H16.0691V38.157H16.1507V38.0759H16.3138V37.9949H16.4769V37.9139H16.5585V37.8329H16.7216V37.7519H16.8032V37.6709H16.9663V37.5899H17.0479V37.5089H17.211V37.4278H17.2926V37.3468H17.4558V37.2658H17.5373V37.1848H17.7005V37.1038H17.782V37.0228H17.9452V36.9418H18.0267V36.8608H18.1899V36.7797H18.2714V36.6987H18.353V36.6177H18.5162V36.5367H18.5977V36.4557H18.6793V36.3747H18.8424V36.2937H18.924V36.2127H19.0871V36.1316H19.1687V36.0506H19.2503V35.9696H19.4134V35.8886H19.495V35.8076H19.5765V35.7266H19.7397V35.6456H19.8213V35.5646H19.9028V35.4835H20.066V35.4025H20.1475V35.3215H20.2291V35.2405H20.3922V35.1595H20.4738V35.0785H20.5554V34.9975H20.7185V34.9165H20.8001V34.8354H20.8817V34.7544H20.9632V34.6734H21.1264V34.5924H21.2079V34.5114H21.2895V34.4304H21.4526V34.3494H21.5342V34.2684H21.6158V34.1873H21.7789V34.1063H21.8605V34.0253H21.942V33.9443H22.0236V33.8633H22.1868V33.7823H22.2683V33.7013H22.3499V33.6203H22.513V33.5392H22.5946V33.4582H22.6762V33.3772H22.8393V33.2962H22.9209V33.2152H23.0024V33.1342H23.1656V33.0532H23.2472V32.9722H23.3287V32.8911H23.4919V32.8101H23.5734V32.7291H23.655V32.6481H23.8181V32.5671H23.8997V32.4861H24.0628V32.4051H24.1444V32.3241H24.226V32.243H24.3891V32.162H24.4707V32.081H24.6338V32H24.7154V31.919H24.8785V31.838H24.9601V31.757H25.1232V31.6759H25.2048V31.5949H25.3679V31.5139H25.4495V31.4329H25.5311V31.3519H25.6942V31.2709H25.7758V31.1899H25.9389V31.1089H26.0205V31.0278H26.1836V30.9468H26.2652V30.8658H26.4283V30.7848H26.5099V30.7038H26.673V30.6228H26.7546V30.5418H26.9178V30.4608H26.9993V30.3797H27.1625V30.2987H27.244V30.2177H27.4072V30.1367H27.4887V30.0557H27.6519V29.9747H27.7334V29.8937H27.815V29.8127H27.9782V29.7316H28.0597V29.6506H28.2229V29.5696H28.3044V29.4886H28.4676V29.4076H28.5491V29.3266H28.7123V29.2456H28.7938V29.1646H28.957V29.0835H29.0385V29.0025H29.2017V28.9215H29.2833V28.8405H29.4464V28.7595H29.528V28.6785H29.6911V28.5975H29.7727V28.5165H29.9358V28.4354H30.0174V28.3544H30.1805V28.2734H30.2621V28.1924H30.4252V28.1114H30.5068V28.0304H30.6699V27.9494H30.7515V27.8684H30.9146V27.7873H30.9962V27.7063H31.1593V27.6253H31.2409V27.5443H31.404V27.4633H31.4856V27.3823H31.6488V27.3013H31.7303V27.2203H31.8935V27.1392H31.975V27.0582H32.1382V26.9772H32.2197V26.8962H32.3829V26.8152H32.546V26.7342H32.6276V26.6532H32.7907V26.5722H32.8723V26.4911H33.0354V26.4101H33.117V26.3291H33.2801V26.2481H33.3617V26.1671H33.5248V26.0861H33.6064V26.0051H33.7695V25.9241H33.9327V25.843H34.0143V25.762H34.1774V25.681H34.259V25.6H34.4221V25.519H34.5852V25.438H34.6668V25.357H34.8299V25.2759H34.9115V25.1949H35.0747V25.1139H35.1562V25.0329H35.3194V24.9519H35.4825V24.8709H35.5641V24.7899H35.7272V24.7089H35.8903V24.6278H35.9719V24.5468H36.135V24.4658H36.2982V24.3848H36.3798V24.3038H36.5429V24.2228H36.706V24.1418H36.7876V24.0608H36.9507V23.9797H37.1139V23.8987H37.1954V23.8177H37.3586V23.7367H37.5217V23.6557H37.6033V23.5747H37.7664V23.4937H37.9296V23.4127H38.0927V23.3316H38.1743V23.2506H38.3374V23.1696H38.5005V23.0886H38.6637V23.0076H38.7453V22.9266H38.9084V22.8456H39.0715V22.7646H39.2347V22.6835H39.3978V22.6025H39.4794V22.5215H39.6425V22.4405H39.8057V22.3595H39.9688V22.2785H40.1319V22.1975H40.2951V22.1165H40.4582V22.0354H40.6213V21.9544H40.7845V21.8734H40.9476V21.7924H41.1108V21.7114H41.2739V21.6304H41.437V21.5494H41.5186V21.4684H41.7633V21.3873H41.9264V21.3063H42.0896V21.2253H42.2527V21.1443H42.4159V21.0633H42.6606V20.9823H42.8237V20.9013H42.9868V20.8203H43.15V20.7392H43.3131V20.6582H43.5578V20.5772H43.721V20.4962H43.9657V20.4152H44.1288V20.3342H44.3735V20.2532H44.6182V20.1722H44.7814V20.0911H45.0261V20.0101H45.1892V19.9291H45.4339V19.8481H45.7602V19.7671H46.0049V19.6861H46.3312V19.6051H46.5759V19.5241H46.9021V19.443H47.2284V19.362H47.6363V19.281H48.1257V19.2H48.5335V19.119H49.9202V19.038H50.0833V19.119H50.8175V19.2H51.47V19.281H51.7147V19.362H51.9594V19.443H52.2041V19.5241H52.3673V19.6051H52.612V19.6861H52.7751V19.7671H52.9383V19.8481H53.0198V19.9291H53.183V20.0101H53.3461V20.0911H53.4277V20.1722H53.5908V20.2532H53.6724V20.3342H53.8355V20.4152H53.9171V20.4962H53.9986V20.5772H54.0802V20.6582H54.1618V20.7392H54.2434V20.8203H54.3249V20.9013H54.4065V20.9823H54.4881V21.0633H54.5696V21.1443H54.6512V21.2253H54.7328V21.3873H54.8143V21.4684H54.8959V21.5494H54.9775V21.7114H55.059V21.7924H55.1406V21.9544H55.2222V22.0354H55.3038V22.1975H55.3853V22.3595H55.4669V22.4405H55.5485V22.6025H55.63V22.7646H55.7116V22.9266H55.7932V23.0886H55.8747V23.3316H55.9563V23.4937H56.0379V23.7367H56.1194V23.8987H56.201V24.1418H56.2826V24.3848H56.3641V24.7089H56.4457V24.9519H56.5273V25.2759H56.6089V25.762H56.6904V26.1671H56.772V27.0582H56.8536V29.0835H56.772V29.7316H56.6904V30.4608H56.6089V30.8658H56.5273V31.2709H56.4457V31.5949H56.3641V32H56.2826V32.3241H56.201V32.6481H56.1194V32.8911H56.0379V33.1342H55.9563V33.3772H55.8747V33.7013H55.7932V33.9443H55.7116V34.1873H55.63V34.4304H55.5485V34.5924H55.4669V34.8354H55.3853V34.9975H55.3038V35.2405H55.2222V35.4025H55.1406V35.6456H55.059V35.8076H54.9775V36.0506H54.8959V36.2127H54.8143V36.3747H54.7328V36.5367H54.6512V36.6987H54.5696V36.9418H54.4881V37.1038H54.4065V37.2658H54.3249V37.4278H54.2434V37.5899H54.1618V37.6709H54.0802V37.8329H53.9986V37.9949H53.9171V38.157H53.8355V38.319H53.7539V38.4H53.6724V38.562H53.5908V38.7241H53.5092V38.8051H53.4277V38.9671H53.3461V39.1291H53.2645V39.2101H53.183V39.3722H53.1014V39.5342H53.0198V39.6152H52.9383V39.7772H52.8567V39.8582H52.7751V40.0203H52.6935V40.1013H52.612V40.2633H52.5304V40.3443H52.4488V40.5063H52.3673V40.5873H52.2857V40.7494H52.2041V40.8304H52.1226V40.9924H52.041V41.0734H51.9594V41.1544H51.8779V41.3165H51.7963V41.3975H51.7147V41.4785H51.6331V41.6405H51.5516V41.7215H51.47V41.8025H51.3884V41.9646H51.3069V42.0456H51.2253V42.2076H51.1437V42.2886H51.0622V42.3696H50.9806V42.4506H50.899V42.6127H50.8175V42.6937H50.7359V42.7747H50.6543V42.8557H50.5728V43.0177H50.4912V43.0987H50.4096V43.1797H50.328V43.2608H50.2465V43.4228H50.1649V43.5038H50.0833V43.5848H50.0018V43.6658H49.9202V43.7468H49.8386V43.9089H49.7571V43.9899H49.6755V44.0709H49.5939V44.1519H49.5124V44.2329H49.4308V44.3949H49.3492V44.4759H49.2676V44.557H49.1861V44.638H49.1045V44.719H49.0229V44.8H48.9414V44.881H48.8598V44.962H48.7782V45.1241H48.6967V45.2051H48.6151V45.2861H48.5335V45.3671H48.452V45.4481H48.3704V45.5291H48.2888V45.6101H48.2073V45.6911H48.1257V45.7722H48.0441V45.9342H47.9625V46.0152H47.881V46.0962H47.7994V46.1772H47.7178V46.2582H47.6363V46.3392H47.5547V46.4203H47.4731V46.5013H47.3916V46.5823H47.31V46.6633H47.2284V46.7443H47.1469V46.8253H47.0653V46.9063H46.9837V46.9873H46.9021V47.0684H46.8206V47.1494H46.739V47.2304H46.6574V47.3114H46.5759V47.3924H46.4943V47.4734H46.4127V47.5544H46.3312V47.6354H46.2496V47.7165H46.168V47.7975H46.0865V47.8785H46.0049V47.9595H45.9233V48.0405H45.8418V48.1215H45.7602V48.2025H45.6786V48.2835H45.597V48.3646H45.5155V48.4456H45.4339V48.5266H45.3523V48.6076H45.2708V48.6886H45.1892V48.7696H45.1076V48.8506H45.0261V48.9316H44.9445V49.0127H44.8629V49.0937H44.7814V49.1747H44.6998V49.2557H44.6182V49.3367H44.4551V49.4177H44.3735V49.4987H44.2919V49.5797H44.2104V49.6608H44.1288V49.7418H44.0472V49.8228H43.9657V49.9038H43.8841V49.9848H43.8025V50.0658H43.721V50.1468H43.5578V50.2278H43.4763V50.3089H43.3947V50.3899H43.3131V50.4709H43.2315V50.5519H43.15V50.6329H43.0684V50.7139H42.9868V50.7949H42.8237V50.8759H42.7421V50.957H42.6606V51.038H42.579V51.119H42.4974V51.2H42.4159V51.281H42.3343V51.362H42.1712V51.443H42.0896V51.5241H42.008V51.6051H41.9264V51.6861H41.8449V51.7671H41.6817V51.8481H41.6002V51.9291H41.5186V52.0101H41.437V52.0911H41.3555V52.1722H41.1923V52.2532H41.1108V52.3342H41.0292V52.4152H40.9476V52.4962H40.866V52.5772H40.7029V52.6582H40.6213V52.7392H40.5398V52.8203H40.4582V52.9013H40.2951V52.9823H40.2135V53.0633H40.1319V53.1443H40.0504V53.2253H39.8872V53.3063H39.8057V53.3873H39.7241V53.4684H39.6425V53.5494H39.4794V53.6304H39.3978V53.7114H39.3162V53.7924H39.2347V53.8734H39.0715V53.9544H38.99V54.0354H38.9084V54.1165H38.7453V54.1975H38.6637V54.2785H38.5821V54.3595H38.419V54.4405H38.3374V54.5215H38.2558V54.6025H38.0927V54.6835H38.0111V54.7646H37.9296V54.8456H37.7664V54.9266H37.6849V55.0076H37.6033V55.0886H37.4402V55.1696H37.3586V55.2506H37.277V55.3316H37.1139V55.4127H37.0323V55.4937H36.8692V55.5747H36.7876V55.6557H36.706V55.7367H36.5429V55.8177H36.4613V55.8987H36.2982V55.9797H36.2166V56.0608H36.0535V56.1418H35.9719V56.2228H35.8903V56.3038H35.7272V56.3848H35.6456V56.4658H35.4825V56.5468H35.4009V56.6278H35.2378V56.7089H35.1562V56.7899H34.9931V56.8709H34.9115V56.9519H34.7484V57.0329H34.6668V57.1139H34.5037V57.1949H34.4221V57.2759H34.259V57.357H34.1774V57.438H34.0143V57.519H33.8511V57.6H33.7695V57.681H33.6064V57.762H33.5248V57.843H33.3617V57.9241H33.1986V58.0051H33.117V58.0861H32.9539V58.1671H32.8723V58.2481H32.7092V58.3291H32.546V58.4101H32.3829V58.4911H32.3013V58.5722H32.1382V58.6532H31.975V58.7342H31.8935V58.8152H31.7303V58.8962H31.5672V58.9772H31.404V59.0582H31.3225V59.1392H31.1593V59.2203H30.9962V59.3013H30.8331V59.3823H30.6699V59.4633H30.5068V59.5443H30.4252V59.6253H30.2621V59.7063H30.0989V59.7873H29.9358V59.8684H29.7727V59.9494H29.6095V60.0304H29.4464V60.1114H29.2833V60.1924H29.1201V60.2734H28.8754V60.3544H28.7123V60.4354H28.5491V60.5165H28.386V60.5975H28.2229V60.6785H27.9782V60.7595H27.815V60.8405H27.5703V60.9215H27.4072V61.0025H27.1625V61.0835H26.9178V61.1646H26.7546V61.2456H26.4283V61.3266H26.1836V61.4076H25.9389V61.4886H25.6127V61.5696H25.2048V61.6506H24.6338V61.7316H23.8181V61.6506H23.4919V61.5696H23.2472V61.4886H23.084V61.4076H22.9209V61.3266H22.8393V61.2456H22.7577V61.1646H22.6762V61.0835H22.5946V60.9215H22.513V60.7595H22.4315V60.5975H22.3499V60.3544H22.2683V59.5443H22.3499V59.1392H22.4315V58.8962H22.513V58.6532H22.5946V58.4911H22.6762V58.3291H22.7577V58.1671H22.8393V58.0051H22.9209V57.843H23.0024V57.681H23.084V57.6H23.1656V57.438H23.2472V57.2759H23.3287V57.1949H23.4103V57.0329H23.4919V56.9519H23.5734V56.7899H23.655V56.7089H23.7366V56.5468H23.8181V56.4658H23.8997V56.3848H23.9813V56.2228H24.0628V56.1418H24.1444V56.0608H24.226V55.8987H24.3075V55.8177H24.3891V55.7367H24.4707V55.5747H24.5523V55.4937H24.6338V55.4127H24.7154V55.3316H24.797V55.2506H24.8785V55.0886H24.9601V55.0076H25.0417V54.9266H25.1232V54.8456H25.2048V54.7646H25.2864V54.6835H25.3679V54.5215H25.4495V54.4405H25.5311V54.3595H25.6127V54.2785H25.6942V54.1975H25.7758V54.1165H25.8574V54.0354H25.9389V53.9544H26.0205V53.8734H26.1021V53.7924H26.1836V53.6304H26.2652V53.5494H26.3468V53.4684H26.4283V53.3873H26.5099V53.3063H26.5915V53.2253H26.673V53.1443H26.7546V53.0633H26.8362V52.9823H26.9178V52.9013H26.9993V52.8203H27.0809V52.7392H27.1625V52.6582H27.244V52.5772H27.3256V52.4962H27.4072V52.4152H27.4887V52.3342H27.5703V52.2532H27.6519V52.1722H27.7334V52.0911H27.815V52.0101H27.8966V51.9291H27.9782V51.8481H28.0597V51.7671H28.1413V51.6861H28.2229V51.6051H28.3044V51.5241H28.386V51.443H28.4676V51.362H28.5491V51.281H28.6307V51.2H28.7123V51.119H28.7938V51.038H28.8754V50.957H28.957V50.8759H29.0385V50.7949H29.1201V50.7139H29.2017V50.6329H29.2833V50.5519H29.3648V50.4709H29.4464V50.3899H29.528V50.3089H29.6095V50.2278H29.6911V50.1468H29.7727V50.0658H29.8542V49.9848H29.9358V49.9038H30.0174V49.8228H30.0989V49.7418H30.1805V49.6608H30.2621V49.5797H30.3437V49.4987H30.4252V49.4177H30.5068V49.3367H30.6699V49.2557H30.7515V49.0937H30.8331V49.0127H30.9146V48.9316H30.9962V48.8506H31.0778V48.7696H31.1593V48.6886H31.2409V48.6076H31.3225V48.5266H31.404V48.4456H31.4856V48.3646H31.5672V48.2835H31.6488V48.1215H31.7303V48.0405H31.8119V47.9595H31.8935V47.8785H31.975V47.7975H32.0566V47.7165H32.1382V47.5544H32.2197V47.4734H32.3013V47.3924H32.3829V47.2304H32.4644V47.1494H32.546V47.0684H32.6276V46.9873H32.7092V46.8253H32.7907V46.7443H32.8723V46.5823H32.9539V46.5013H33.0354V46.3392H33.117V46.1772H33.1986V46.0962H33.2801V45.9342H33.3617V45.7722H33.4433V45.6911H33.5248V45.4481H33.6064V45.2051H33.688V44.962H33.7695V44.8H33.8511V43.5848H33.7695V43.2608H33.688V43.0177H33.6064V42.9367H33.5248V42.7747H33.4433V42.6937H33.3617V42.5316H33.2801V42.4506H33.1986V42.3696H33.117V42.2886H33.0354V42.2076H32.9539V42.1266H32.8723V42.0456H32.7907V41.9646H32.7092V41.8835H32.546V41.8025H32.4644V41.7215H32.3013V41.6405H32.2197V41.5595H32.0566V41.4785H31.8935V41.3975H31.7303V41.3165H31.5672V41.2354H31.3225V41.1544H31.0778V41.0734H30.9146V40.9924H30.6699V40.9114H30.2621V40.8304H29.9358V40.7494H29.4464V40.6684H28.7123V40.5873H28.6307V40.6684H27.1625V40.7494H26.673V40.8304H26.2652V40.9114H26.0205V40.9924H25.7758V41.0734H25.4495V41.1544H25.2048V41.2354H25.0417V41.3165H24.8785V41.3975H24.7154V41.4785H24.4707V41.5595H24.3075V41.6405H24.1444V41.7215H23.9813V41.8025H23.8181V41.8835H23.7366V41.9646H23.5734V42.0456H23.4919V42.1266H23.3287V42.2076H23.2472V42.2886H23.084V42.3696H23.0024V42.4506H22.9209V42.5316H22.7577V42.6127H22.6762V42.6937H22.513V42.7747H22.4315V42.8557H22.3499V42.9367H22.2683V43.0177H22.1868V43.0987H22.1052V43.1797H21.942V43.2608H21.8605V43.3418H21.7789V43.4228H21.6973V43.5038H21.6158V43.5848H21.5342V43.6658H21.4526V43.7468H21.3711V43.8278H21.2895V43.9089H21.2079V43.9899H21.1264V44.0709H21.0448V44.1519H20.9632V44.2329H20.8817V44.3139H20.8001V44.3949H20.7185V44.557H20.6369V44.638H20.5554V44.719H20.4738V44.8H20.3922V44.881H20.3107V45.043H20.2291V45.1241H20.1475V45.2051H20.066V45.2861H19.9844V45.3671H19.9028V45.4481H19.8213V45.6101H19.7397V45.6911H19.6581V45.8532H19.5765V45.9342H19.495V46.0962H19.4134V46.1772H19.3318V46.3392H19.2503V46.4203H19.1687V46.5823H19.0871V46.6633H19.0056V46.8253H18.924V46.9063H18.8424V47.0684H18.7609V47.1494H18.6793V47.3114H18.5977V47.3924H18.5162V47.5544H18.4346V47.7165H18.353V47.8785H18.2714V48.0405H18.1899V48.2025H18.1083V48.3646H18.0267V48.5266H17.9452V48.6076H17.8636V48.7696H17.782V48.9316H17.7005V49.0937H17.6189V49.2557H17.5373V49.4177H17.4558V49.5797H17.3742V49.7418H17.2926V49.9038H17.211V50.0658H17.1295V50.3089H17.0479V50.4709H16.9663V50.6329H16.8848V50.8759H16.8032V51.038H16.7216V51.2H16.6401V51.443H16.5585V51.6051H16.4769V51.7671H16.3954V52.0101H16.3138V52.1722H16.2322V52.4152H16.1507V52.6582H16.0691V52.9013H15.9875V53.1443H15.9059V53.4684H15.8244V53.7114H15.7428V53.9544H15.6612V54.2785H15.5797V54.8456H15.4981V55.4127H15.4165V56.0608H15.335V56.1418H15.4165V57.762H15.4981V58.0861H15.5797V58.4101H15.6612V58.8152H15.7428V59.1392H15.8244V59.3013H15.9059V59.4633H15.9875V59.7063H16.0691V59.8684H16.1507V60.0304H16.2322V60.1924H16.3138V60.3544H16.3954V60.5165H16.4769V60.5975H16.5585V60.7595H16.6401V60.8405H16.7216V61.0025H16.8032V61.0835H16.8848V61.1646H16.9663V61.3266H17.0479V61.4076H17.1295V61.4886H17.211V61.6506H17.3742V61.7316H17.4558V61.8127H17.5373V61.8937H17.6189V61.9747H17.7005V62.0557H17.782V62.1367H17.8636V62.2177H17.9452V62.2987H18.0267V62.3797H18.1083V62.4608H18.1899V62.5418H18.353V62.6228H18.4346V62.7038H18.5977V62.7848H18.6793V62.8658H18.8424V62.9468H18.924V63.0278H19.0871V63.1089H19.1687V63.1899H19.3318V63.2709H19.495V63.3519H19.6581V63.4329H19.8213V63.5139H20.066V63.5949H20.3107V63.6759H20.5554V63.757H20.9632V63.838H21.4526V63.919H22.2683V64H23.5734V63.919H24.5523V63.838H25.1232V63.757H25.6127V63.6759H26.0205V63.5949H26.4283V63.5139H26.7546V63.4329H27.0809V63.3519H27.4072V63.2709H27.6519V63.1899H27.8966V63.1089H28.2229V63.0278H28.4676V62.9468H28.7123V62.8658H28.957V62.7848H29.2017V62.7038H29.3648V62.6228H29.6095V62.5418H29.8542V62.4608H30.0174V62.3797H30.2621V62.2987H30.4252V62.2177H30.6699V62.1367H30.8331V62.0557H31.0778V61.9747H31.2409V61.8937H31.404V61.8127H31.5672V61.7316H31.8119V61.6506H31.975V61.5696H32.1382V61.4886H32.3013V61.4076H32.4644V61.3266H32.6276V61.2456H32.7907V61.1646H33.0354V61.0835H33.1986V61.0025H33.3617V60.9215H33.5248V60.8405H33.688V60.7595H33.7695V60.6785H33.9327V60.5975H34.0958V60.5165H34.259V60.4354H34.4221V60.3544H34.5852V60.2734H34.7484V60.1924H34.9115V60.1114H34.9931V60.0304H35.1562V59.9494H35.3194V59.8684H35.4825V59.7873H35.6456V59.7063H35.7272V59.6253H35.8903V59.5443H36.0535V59.4633H36.2166V59.3823H36.2982V59.3013H36.4613V59.2203H36.6245V59.1392H36.706V59.0582H36.8692V58.9772H37.0323V58.8962H37.1139V58.8152H37.277V58.7342H37.4402V58.6532H37.5217V58.5722H37.6849V58.4911H37.7664V58.4101H37.9296V58.3291H38.0927V58.2481H38.1743V58.1671H38.3374V58.0861H38.419V58.0051H38.5821V57.9241H38.7453V57.843H38.8268V57.762H38.99V57.681H39.0715V57.6H39.2347V57.519H39.3162V57.438H39.4794V57.357H39.5609V57.2759H39.7241V57.1949H39.8057V57.1139H39.9688V57.0329H40.0504V56.9519H40.2135V56.8709H40.2951V56.7899H40.4582V56.7089H40.5398V56.6278H40.6213V56.5468H40.7845V56.4658H40.866V56.3848H41.0292V56.3038H41.1108V56.2228H41.2739V56.1418H41.3555V56.0608H41.5186V55.9797H41.6002V55.8987H41.6817V55.8177H41.8449V55.7367H41.9264V55.6557H42.008V55.5747H42.1712V55.4937H42.2527V55.4127H42.4159V55.3316H42.4974V55.2506H42.579V55.1696H42.7421V55.0886H42.8237V55.0076H42.9053V54.9266H43.0684V54.8456H43.15V54.7646H43.3131V54.6835H43.3947V54.6025H43.4763V54.5215H43.6394V54.4405H43.721V54.3595H43.8025V54.2785H43.9657V54.1975H44.0472V54.1165H44.1288V54.0354H44.2104V53.9544H44.3735V53.8734H44.4551V53.7924H44.5367V53.7114H44.6998V53.6304H44.7814V53.5494H44.8629V53.4684H45.0261V53.3873H45.1076V53.3063H45.1892V53.2253H45.2708V53.1443H45.4339V53.0633H45.5155V52.9823H45.597V52.9013H45.7602V52.8203H45.8418V52.7392H45.9233V52.6582H46.0049V52.5772H46.168V52.4962H46.2496V52.4152H46.3312V52.3342H46.4127V52.2532H46.5759V52.1722H46.6574V52.0911H46.739V52.0101H46.8206V51.9291H46.9837V51.8481H47.0653V51.7671H47.1469V51.6861H47.2284V51.6051H47.31V51.5241H47.4731V51.443H47.5547V51.362H47.6363V51.281H47.7178V51.2H47.881V51.119H47.9625V51.038H48.0441V50.957H48.1257V50.8759H48.2073V50.7949H48.3704V50.7139H48.452V50.6329H48.5335V50.5519H48.6151V50.4709H48.6967V50.3899H48.8598V50.3089H48.9414V50.2278H49.0229V50.1468H49.1045V50.0658H49.1861V49.9848H49.2676V49.9038H49.4308V49.8228H49.5124V49.7418H49.5939V49.6608H49.6755V49.5797H49.7571V49.4987H49.8386V49.4177H50.0018V49.3367H50.0833V49.2557H50.1649V49.1747H50.2465V49.0937H50.328V49.0127H50.4096V48.9316H50.4912V48.8506H50.6543V48.7696H50.7359V48.6886H50.8175V48.6076H50.899V48.5266H50.9806V48.4456H51.0622V48.3646H51.1437V48.2835H51.2253V48.2025H51.3069V48.1215H51.47V48.0405H51.5516V47.9595H51.6331V47.8785H51.7147V47.7975H51.7963V47.7165H51.8779V47.6354H51.9594V47.5544H52.041V47.4734H52.1226V47.3924H52.2041V47.3114H52.2857V47.2304H52.3673V47.1494H52.4488V47.0684H52.5304V46.9873H52.612V46.9063H52.6935V46.8253H52.7751V46.7443H52.8567V46.6633H52.9383V46.5823H53.0198V46.5013H53.1014V46.4203H53.183V46.3392H53.2645V46.2582H53.3461V46.1772H53.4277V46.0962H53.5092V46.0152H53.5908V45.9342H53.6724V45.8532H53.7539V45.7722H53.8355V45.6911H53.9171V45.6101H53.9986V45.5291H54.0802V45.4481H54.1618V45.3671H54.2434V45.2861H54.3249V45.2051H54.4065V45.043H54.4881V44.962H54.5696V44.881H54.6512V44.8H54.7328V44.719H54.8143V44.638H54.8959V44.557H54.9775V44.4759H55.059V44.3949H55.1406V44.3139H55.2222V44.1519H55.3038V44.0709H55.3853V43.9899H55.4669V43.9089H55.5485V43.8278H55.63V43.7468H55.7116V43.5848H55.7932V43.5038H55.8747V43.4228H55.9563V43.3418H56.0379V43.2608H56.1194V43.1797H56.201V43.0177H56.2826V42.9367H56.3641V42.8557H56.4457V42.7747H56.5273V42.6937H56.6089V42.5316H56.6904V42.4506H56.772V42.3696H56.8536V42.2076H56.9351V42.1266H57.0167V42.0456H57.0983V41.9646H57.1798V41.8025H57.2614V41.7215H57.343V41.6405H57.4245V41.5595H57.5061V41.3975H57.5877V41.3165H57.6693V41.2354H57.7508V41.0734H57.8324V40.9924H57.914V40.9114H57.9955V40.7494H58.0771V40.6684H58.1587V40.5873H58.2402V40.4253H58.3218V40.3443H58.4034V40.1823H58.4849V40.1013H58.5665V40.0203H58.6481V39.8582H58.7296V39.7772H58.8112V39.6152H58.8928V39.5342H58.9744V39.4532H59.0559V39.2911H59.1375V39.2101H59.2191V39.0481H59.3006V38.9671H59.3822V38.8051H59.4638V38.7241H59.5453V38.562H59.6269V38.481H59.7085V38.319H59.79V38.238H59.8716V38.0759H59.9532V37.9949H60.0348V37.8329H60.1163V37.6709H60.1979V37.5899H60.2795V37.4278H60.361V37.3468H60.4426V37.1848H60.5242V37.0228H60.6057V36.9418H60.6873V36.7797H60.7689V36.6177H60.8504V36.5367H60.932V36.3747H61.0136V36.2127H61.0951V36.1316H61.1767V35.9696H61.2583V35.8076H61.3399V35.6456H61.4214V35.5646H61.503V35.4025H61.5846V35.2405H61.6661V35.0785H61.7477V34.9165H61.8293V34.7544H61.9108V34.5924H61.9924V34.5114H62.074V34.3494H62.1555V34.1873H62.2371V34.0253H62.3187V33.8633H62.4003V33.7013H62.4818V33.5392H62.5634V33.3772H62.645V33.2152H62.7265V33.0532H62.8081V32.8101H62.8897V32.6481H62.9712V32.4861H63.0528V32.3241H63.1344V32.162H63.2159V32H63.2975V31.838H63.3791V31.5949H63.4606V31.4329H63.5422V31.1899H63.6238V31.0278H63.7054V30.7848H63.7869V30.6228H63.8685V30.3797H63.9501V30.2177H64.0316V29.9747H64.1132V29.8127H64.1948V29.5696H64.2763V29.3266H64.3579V29.0835H64.4395V28.8405H64.521V28.5975H64.6026V28.3544H64.6842V28.1114H64.7658V27.8684H64.8473V27.6253H64.9289V27.3013H65.0105V26.9772H65.092V26.7342H65.1736V26.4101H65.2552V26.0861H65.3367V25.762H65.4183V25.357H65.4999V24.9519H65.5814V24.5468H65.663V24.1418H65.7446V23.6557H65.8261V23.0076H65.9077V22.3595H65.9893V21.3063H66.0709V18.7949H65.9893V17.2557H65.9077V16.6076H65.8261V16.1215H65.7446V15.6354H65.663V15.1494H65.5814V14.6633H65.4999V14.2582H65.4183V14.0152H65.3367V13.7722H65.2552V13.4481H65.1736V13.2051H65.092V12.962H65.0105V12.638H64.9289V12.3949H64.8473V12.1519H64.7658V11.9089H64.6842V11.7468H64.6026V11.5848H64.521V11.3418H64.4395V11.1797H64.3579V11.0177H64.2763V10.8557H64.1948V10.6127H64.1132V10.4506H64.0316V10.2886H63.9501V10.1266H63.8685V9.96456H63.7869V9.80253H63.7054V9.64051H63.6238V9.55949H63.5422V9.39747H63.4606V9.31646H63.3791V9.15443H63.2975V8.99241H63.2159V8.91139H63.1344V8.74937H63.0528V8.58734H62.9712V8.50633H62.8897V8.3443H62.8081V8.26329H62.7265V8.10127H62.645V8.02025H62.5634V7.93924H62.4818V7.77722H62.4003V7.6962H62.3187V7.61519H62.2371V7.53418H62.1555V7.37215H62.074V7.29114H61.9924V7.21013H61.9108V7.12911H61.8293V6.96709H61.7477V6.88608H61.6661V6.80506H61.5846V6.72405H61.503V6.64304H61.4214V6.48101H61.3399V6.4H61.2583V6.31899H61.1767V6.23797H61.0951V6.15696H61.0136V6.07595H60.932V5.99494H60.7689V5.91392H60.6873V5.83291H60.6057V5.7519H60.5242V5.67089H60.4426V5.58987H60.361V5.50886H60.2795V5.42785H60.1979V5.34684H60.1163V5.26582H60.0348V5.18481H59.9532V5.1038H59.8716V5.02278H59.79V4.94177H59.6269V4.86076H59.5453V4.77975H59.4638V4.69873H59.3006V4.61772H59.2191V4.53671H59.1375V4.4557H58.9744V4.37468H58.8928V4.29367H58.8112V4.21266H58.6481V4.13165H58.5665V4.05063H58.4849V3.96962H58.4034V3.88861H58.2402V3.80759H58.0771V3.72658H57.9955V3.64557H57.8324V3.56456H57.6693V3.48354H57.5877V3.40253H57.4245V3.32152H57.343V3.24051H57.1798V3.15949H57.0167V3.07848H56.9351V2.99747H56.772V2.91646H56.6089V2.83544H56.4457V2.75443H56.2826V2.67342H56.1194V2.59241H55.9563V2.51139H55.7932V2.43038H55.63V2.34937H55.4669V2.26835H55.3038V2.18734H55.1406V2.10633H54.9775V2.02532H54.7328V1.9443H54.5696V1.86329H54.3249V1.78228H54.1618V1.70127H53.9171V1.62025H53.6724V1.53924H53.5092V1.45823H53.2645V1.37722H53.0198V1.2962H52.7751V1.21519H52.5304V1.13418H52.2041V1.05316H51.9594V0.972152H51.7147V0.891139H51.3884V0.810127H51.0622V0.729114H50.7359V0.648101H50.328V0.567089H50.0018V0.486076H49.5939V0.405063H49.1045V0.324051H48.6151V0.243038H48.1257V0.162025H47.3916V0.0810127H46.6574V0H42.6606Z" fill="#E20010"/>
<path d="M22.6762 58.1671V58.3291H22.7577V58.1671H22.6762ZM22.5946 58.3291V58.4911H22.6762V58.3291H22.5946ZM22.513 58.4911V58.6532H22.5946V58.4911H22.513ZM22.4315 58.7342V58.8962H22.513V58.7342H22.4315ZM22.3499 58.9772V59.1392H22.4315V58.9772H22.3499ZM22.2683 59.3823V59.5443H22.3499V59.3823H22.2683Z" fill="#D10010"/>
<path d="M22.7577 58.0051V58.1671H22.8393V58.0051H22.7577Z" fill="#D10010"/>
<path d="M23.3287 56.9519V57.1139H23.4103V56.9519H23.3287Z" fill="#D10010"/>
<path d="M23.3287 57.0329V57.1139H23.2471V57.1949H23.1656V57.357H23.084V57.519H23.0024V57.6H22.9209V57.762H22.8393V57.924H22.7577V58.0861H22.8393V58.0051H22.9209V57.843H23.0024V57.681H23.084V57.6H23.1656V57.438H23.2471V57.276H23.3287V57.1949H23.4103V57.0329H23.3287Z" fill="#D10010"/>
<path d="M22.6762 58.0861V58.2481H22.7577V58.1671H22.8393V58.0861H22.6762Z" fill="#D10010"/>
</svg>
