<svg width="724" height="626" viewBox="0 0 724 626" fill="none" xmlns="http://www.w3.org/2000/svg">
<path opacity="0.4" d="M498.23 192.669L272.48 323.65L498.23 454.631L723.98 323.65L498.23 192.669Z" fill="#D9E9FF"/>
<path d="M499.001 409.751L723.98 279.54V267.983L499.001 398.194V409.751Z" fill="#B6D3F3"/>
<path d="M498.23 136.81L272.48 267.791L498.23 398.772L723.98 267.791L498.23 136.81Z" fill="#C8E2FF"/>
<path d="M499 409.751L272.865 279.54V267.983L499 398.194V409.751Z" fill="#A5CBFA"/>
<path d="M526.353 57.8356C525.582 63.0363 526.545 69.2001 526.545 73.6304C526.545 93.8554 514.41 110.806 501.697 125.638C494.185 134.305 510.365 144.514 517.685 136.039C538.103 112.347 551.008 86.9211 544.074 54.9463C542.725 48.7825 535.406 46.0858 530.59 49.7456C528.086 51.8644 526.738 54.7537 526.353 57.8356Z" fill="#FF931E"/>
<path d="M548.696 9.48816C547.156 7.56197 544.074 7.9472 542.533 9.48816L542.34 9.68078C540.221 8.71769 537.332 9.48816 536.754 12.1848C535.984 10.6439 533.48 10.4513 532.902 12.5701C532.516 13.9184 531.939 14.6889 531.939 16.2298C531.939 17.5782 532.516 19.1191 533.094 20.4675C534.443 23.3567 536.561 25.6682 539.258 27.4018C541.377 28.7501 544.266 27.4017 544.844 25.0903C544.844 24.8977 544.844 24.7051 545.037 24.7051C546.192 25.0903 547.348 25.4756 548.504 25.4756C550.237 25.6682 552.356 24.1272 552.741 22.3937C553.897 17.3856 551.778 13.1479 548.696 9.48816Z" fill="#3A2C6D"/>
<path d="M590.687 243.906C585.679 258.93 558.905 267.02 533.865 262.397C511.713 258.352 498.808 245.254 502.853 233.119C507.091 220.984 527.316 212.124 550.43 213.472C576.241 215.206 595.695 228.882 590.687 243.906Z" fill="#AAC9EC"/>
<path d="M531.939 109.072L529.627 114.658C526.16 122.941 524.619 131.994 525.39 141.047L530.783 233.89C535.598 236.394 543.496 235.238 544.844 233.89C544.266 209.812 544.266 185.735 544.266 161.657C544.266 151.449 546.963 141.625 547.733 131.416C547.926 130.068 547.348 111.962 546.192 111.769L531.939 109.072Z" fill="#9EBCE8"/>
<path d="M569.307 9.29554C565.84 1.39815 555.438 -0.335422 547.926 0.0498165C544.652 0.242436 539.258 1.01291 537.332 3.9022C534.828 7.75459 535.213 15.2667 540.029 16.8077C542.533 17.5782 545.23 17.9634 547.734 18.3486C548.889 18.5413 550.43 18.3486 551.586 18.9265C552.934 19.5044 553.32 20.6601 553.512 22.0084C554.668 27.2091 555.631 33.373 555.631 33.373L559.098 27.787C559.098 27.787 561.795 27.9796 563.143 29.9058C562.565 32.4098 559.291 34.7213 558.328 37.0327C558.328 37.0327 566.033 37.418 569.885 27.5944C571.426 23.742 573.737 19.8896 569.307 9.29554Z" fill="#3A2C6D"/>
<path d="M536.754 58.9913C536.176 57.4504 535.213 55.9094 535.791 54.7537C537.525 51.2865 539.644 47.6268 540.607 43.967C533.287 40.6925 531.746 35.2991 532.709 27.5944C533.287 22.5863 534.635 10.066 541.762 9.8734C545.23 9.8734 550.43 10.8365 552.934 13.5332C555.246 16.0372 555.438 20.2748 557.365 23.1641C559.291 25.8608 561.41 22.0084 563.143 21.0453C565.84 19.5044 569.5 22.9715 569.5 25.6682C569.5 29.1353 566.803 31.0615 563.721 32.4099C563.721 32.6025 563.721 32.7951 563.528 32.9877C561.795 35.6844 559.483 38.5737 556.979 40.8851C556.401 43.0039 555.824 45.3153 556.016 47.2415C556.401 51.8644 557.942 58.6061 561.795 60.7249C561.795 60.7249 558.135 62.2658 557.172 62.2658C553.705 62.6511 550.238 61.4954 546.578 61.688C544.266 61.8806 541.955 63.6142 539.644 62.6511C538.68 62.0732 537.525 60.7249 536.754 58.9913Z" fill="#F0A681"/>
<path d="M531.746 230.23C529.82 231.193 528.279 232.734 526.353 234.467C526.353 234.467 516.722 240.053 516.337 240.824C515.951 241.594 515.566 243.906 515.951 244.291C516.337 244.676 519.611 246.988 524.427 245.254C528.279 243.906 531.939 241.98 535.791 240.824C538.103 240.053 543.496 239.861 544.652 237.357C545.229 236.008 545.422 232.156 544.652 230.808C543.303 228.689 539.066 229.074 537.139 229.074C535.021 229.074 533.287 229.459 531.746 230.23Z" fill="#3A2C6D"/>
<path d="M542.918 118.896C543.11 126.986 543.496 135.269 543.688 143.359C543.881 149.522 544.074 155.879 544.266 162.043C544.844 185.157 548.504 208.464 551.393 231.386C551.778 233.89 551.971 236.586 552.356 239.09L564.491 237.742C564.491 235.431 564.491 232.927 564.491 230.615C564.299 208.079 562.372 184.579 564.684 162.235C566.032 147.981 566.61 133.535 567.573 119.281L542.918 118.896Z" fill="#9EBCE8"/>
<path d="M576.434 120.629C577.589 115.814 577.011 110.421 577.011 105.605C577.011 99.2487 576.434 92.3145 575.085 85.3802C575.085 85.1875 575.085 84.9949 575.085 84.9949C573.544 65.3478 568.921 50.3234 558.52 51.8644C558.52 51.8644 558.327 51.6718 558.327 51.4792C556.209 49.1677 555.631 53.0201 553.127 53.4054C551.778 53.598 550.237 53.7906 548.696 53.598V50.9013L540.799 47.0489C535.213 45.8932 531.361 51.0939 528.471 59.7618C527.894 61.1101 527.508 62.6511 527.123 64.192C523.463 79.6016 522.308 96.1668 522.5 112.347C522.5 115.814 522.308 119.089 522.308 122.17C531.553 128.912 547.926 132.187 576.434 120.629Z" fill="#2D3192"/>
<path d="M554.09 52.2497L530.205 105.99C530.205 105.99 529.82 66.5035 537.717 49.1677C542.148 51.0441 542.148 51.0442 542.148 51.0442L554.09 52.2497Z" fill="#FF931E"/>
<path d="M539.644 46.8563L538.873 48.9751L539.836 51.6718L541.762 51.0939H542.533L545.615 53.2128C545.615 53.2128 549.082 53.4054 549.467 53.2128C549.852 53.0201 553.319 50.7087 553.319 50.7087C553.319 50.5161 550.43 44.7375 550.238 44.5449C549.852 44.3523 546.578 42.8113 546 43.0039C545.229 42.8113 539.644 46.8563 539.644 46.8563Z" fill="#F0A681"/>
<path d="M540.029 45.8932C540.029 45.8932 537.525 50.2735 542.148 51.044L534.828 53.4054L540.029 45.8932Z" fill="white"/>
<path d="M556.209 47.2415C556.209 47.2415 548.889 53.2127 542.34 50.9013L546.385 59.7618L559.676 51.4792L556.209 47.2415Z" fill="white"/>
<path d="M552.164 236.972C553.127 235.238 554.668 236.201 557.364 235.816C559.676 235.623 565.069 239.476 563.335 232.349C564.299 232.349 563.528 232.734 563.721 233.697C563.913 235.238 565.647 241.98 565.647 242.943C565.647 249.877 545.422 268.368 545.422 253.152C545.422 252.188 550.815 242.75 551.008 241.402C551.393 239.09 551.778 237.742 552.164 236.972Z" fill="#3A2C6D"/>
<path d="M552.164 4.86531C550.623 2.93912 547.541 3.32436 546 4.86531L545.807 5.05793C543.688 4.09483 540.799 4.86531 540.221 7.56198C539.451 6.02102 537.139 5.8284 536.369 7.94722C535.984 9.29555 535.406 10.066 535.406 11.607C535.406 12.9553 535.984 14.4963 536.561 15.8446C537.91 18.7339 540.029 21.0453 542.725 22.7789C544.844 24.1272 547.733 22.7789 548.311 20.4675C548.311 20.2748 548.311 20.0822 548.504 20.0822C549.66 20.4675 550.815 20.8527 551.971 20.8527C553.705 21.0453 555.823 19.5044 556.209 17.7708C557.557 12.7627 555.246 8.7177 552.164 4.86531Z" fill="#3A2C6D"/>
<path d="M520.996 96.8121L505.801 106.66L541.107 161.135L556.302 151.287L520.996 96.8121Z" fill="#7EA8F2"/>
<path d="M556.016 151.063C557.75 153.76 555.823 158.383 551.586 161.08C547.348 163.776 542.533 163.776 540.606 161.08C538.873 158.383 540.799 153.76 545.037 151.063C549.467 148.174 554.282 148.174 556.016 151.063Z" fill="#B9D4F5"/>
<path d="M460.669 68.237C455.084 43.3891 465.485 19.8896 483.976 15.8446C502.275 11.7996 513.447 28.5575 519.033 53.4054L520.381 53.7906C525.967 78.6385 522.308 101.753 504.009 105.798C485.517 109.843 466.063 92.8923 460.669 68.237ZM533.287 52.057C526.738 22.5863 503.816 2.55387 481.858 7.56197C462.596 11.7996 444.104 34.3361 446.416 59.9544L450.653 79.0237C459.514 103.294 486.288 118.511 505.742 114.08C527.508 109.265 539.836 81.5278 533.287 52.057Z" fill="#7EA8F2"/>
<path opacity="0.4" d="M498.038 107.917L514.988 102.909L523.078 73.2451L514.988 37.2253L497.845 18.3487L483.784 14.3036C480.894 13.5332 473.382 19.1191 471.263 20.6601C467.026 23.9346 463.559 27.9796 460.669 32.6025C446.223 55.3315 456.432 90.1956 479.353 102.716C484.554 105.605 491.681 107.917 498.038 107.917Z" fill="#B9D4F5"/>
<path opacity="0.6" d="M463.979 17.4767L458.719 19.8696L500.228 111.107L505.488 108.714L463.979 17.4767Z" fill="white"/>
<path opacity="0.9" d="M484.055 10.0825L471.432 15.8254L510.995 102.785L519.996 89.5679L484.055 10.0825Z" fill="white"/>
<path d="M443.141 58.7987C443.141 58.9913 443.141 59.1839 443.141 59.3766C443.141 59.9544 443.141 60.5323 443.334 61.1101C443.334 61.4954 443.334 61.8806 443.334 62.2659C443.526 65.3478 444.104 68.6223 444.875 71.7042C445.645 74.9787 446.608 78.2533 447.764 81.3352C456.624 105.605 477.042 120.822 496.304 116.584C518.07 111.769 530.398 83.8392 523.848 54.3685C517.299 24.8977 494.378 4.86531 472.419 9.87341C453.928 14.111 442.371 34.7213 443.141 58.7987ZM474.345 18.5413C492.644 14.4963 512.099 31.2542 517.685 56.102C523.271 80.9499 512.869 104.449 494.378 108.494C476.079 112.539 456.624 95.7816 451.038 70.9337C445.452 45.8932 456.047 22.5863 474.345 18.5413Z" fill="#B9D4F5"/>
<path d="M561.409 134.883C560.832 133.728 559.676 133.342 558.52 133.15C556.979 132.187 555.053 131.801 553.32 133.15C549.467 135.846 544.652 137.195 540.992 140.469C536.562 144.514 537.91 152.412 544.652 153.953C550.045 155.108 555.246 150.678 558.135 147.211C558.713 146.44 559.483 145.477 559.869 144.707C559.483 145.285 560.639 142.203 560.061 143.936C560.254 143.359 560.446 142.781 560.832 142.203C561.987 139.699 563.143 137.58 561.409 134.883Z" fill="#F0A681"/>
<path d="M559.676 66.5035C570.077 92.5071 561.217 114.851 547.348 137.387C541.377 147.018 559.098 154.53 564.877 144.9C581.249 118.125 589.725 90.9661 577.397 60.5323C573.352 49.9382 555.438 55.7168 559.676 66.5035Z" fill="#FF931E"/>
<path d="M506.128 134.113C508.632 137.195 513.832 136.81 519.033 134.305C525.39 131.031 530.59 120.244 520.189 117.74C514.218 116.392 505.935 122.363 504.202 127.949L504.394 127.564C504.202 130.646 504.972 132.765 506.128 134.113Z" fill="#F0A681"/>
<path d="M474.345 334.437L387.281 287.438V116.584L474.345 163.584V334.437Z" fill="#E8F4FD"/>
<path d="M439.866 186.313C439.866 194.017 435.821 198.062 430.813 195.366C425.805 192.669 421.76 184.194 421.76 176.489C421.76 168.784 425.805 164.739 430.813 167.436C435.821 170.133 439.866 178.608 439.866 186.313Z" fill="#FF931E"/>
<mask id="mask0" mask-type="alpha" maskUnits="userSpaceOnUse" x="405" y="147" width="52" height="86">
<path opacity="0.3" d="M456.624 204.034C456.624 225.992 445.067 237.549 430.813 229.845C416.559 222.14 405.002 198.062 405.002 176.104C405.002 154.145 416.559 142.588 430.813 150.293C445.067 157.998 456.624 182.075 456.624 204.034Z" fill="#FF931E"/>
</mask>
<g mask="url(#mask0)">
<path d="M456.624 229.845C456.624 237.549 445.067 237.549 430.813 229.845C416.559 222.14 405.002 209.62 405.002 201.915C405.002 194.21 416.559 194.21 430.813 201.915C445.067 209.62 456.624 222.14 456.624 229.845Z" fill="#FF931E"/>
</g>
<path opacity="0.3" d="M453.542 294.179L408.084 269.524V263.168L453.542 287.63V294.179Z" fill="#FF931E"/>
<path opacity="0.3" d="M453.542 280.696L408.084 256.233V249.684L453.542 274.34V280.696Z" fill="#FF931E"/>
<path opacity="0.3" d="M447.956 304.581L413.67 286.089V279.54L447.956 298.032V304.581Z" fill="#FF931E"/>
<path d="M400.764 217.324L401.92 222.718L405.195 225.029L402.883 226.955L403.461 232.156L400.764 228.111L397.875 229.267L398.646 224.644L396.142 220.021L399.416 221.369L400.764 217.324Z" fill="#FF931E"/>
<path d="M415.789 225.607L417.137 230.808L420.412 233.119L417.908 235.045L418.486 240.439L415.789 236.394L412.9 237.357L413.67 232.734L411.166 228.111L414.441 229.459L415.789 225.607Z" fill="#FF931E"/>
<path d="M430.813 233.697L432.161 238.898L435.436 241.209L432.932 243.135L433.702 248.529L430.813 244.484L428.116 245.447L428.694 241.017L426.383 236.394L429.465 237.549L430.813 233.697Z" fill="#FF931E"/>
<path d="M445.837 241.787L447.186 247.18L450.46 249.299L447.956 251.418L448.727 256.619L445.837 252.574L443.141 253.537L443.719 249.107L441.407 244.484L444.682 245.639L445.837 241.787Z" fill="#FF931E"/>
<path d="M461.055 249.877L462.21 255.27L465.485 257.582L462.981 259.508L463.751 264.709L461.055 260.664L458.165 261.819L458.936 257.197L456.432 252.574L459.706 253.922L461.055 249.877Z" fill="#FF931E"/>
<path d="M374.761 301.692L311.967 267.791V144.514L374.761 178.415V301.692Z" fill="#B4DFFF"/>
<path d="M349.913 194.788C349.913 200.374 347.024 203.263 343.364 201.337C339.705 199.411 336.815 193.247 336.815 187.661C336.815 182.075 339.705 179.186 343.364 181.112C347.024 183.231 349.913 189.202 349.913 194.788Z" fill="white"/>
<mask id="mask1" mask-type="alpha" maskUnits="userSpaceOnUse" x="324" y="167" width="39" height="61">
<path opacity="0.4" d="M362.048 207.501C362.048 223.296 353.766 231.771 343.364 226.185C332.963 220.599 324.68 203.263 324.68 187.468C324.68 171.674 332.963 163.198 343.364 168.784C353.766 174.37 362.048 191.706 362.048 207.501Z" fill="#E8F4FD"/>
</mask>
<g mask="url(#mask1)">
<path d="M362.048 226.185C362.048 231.771 353.766 231.771 343.364 226.185C332.963 220.599 324.68 211.546 324.68 205.96C324.68 200.374 332.963 200.374 343.364 205.96C353.766 211.546 362.048 220.599 362.048 226.185Z" fill="white"/>
</g>
<path opacity="0.3" d="M359.737 272.606L326.992 254.885V250.262L359.737 267.983V272.606Z" fill="#E8F4FD"/>
<path opacity="0.3" d="M359.737 262.975L326.992 245.254V240.631L359.737 258.352V262.975Z" fill="#E8F4FD"/>
<path opacity="0.3" d="M355.884 280.118L331.037 266.828V262.205L355.884 275.495V280.118Z" fill="#E8F4FD"/>
<path d="M321.598 217.324L322.561 220.984L324.873 222.718L323.139 224.066L323.717 227.918L321.598 225.029L319.672 225.8L320.057 222.525L318.324 219.058L320.635 220.021L321.598 217.324Z" fill="#E8F4FD"/>
<path d="M332.578 223.103L333.541 226.955L335.852 228.496L334.118 230.037L334.504 233.89L332.578 230.808L330.459 231.578L331.037 228.304L329.303 225.029L331.614 225.992L332.578 223.103Z" fill="#E8F4FD"/>
<path d="M343.364 229.074L344.327 232.734L346.639 234.467L344.905 235.816L345.483 239.668L343.364 236.779L341.438 237.549L341.823 234.275L340.09 230.808L342.401 231.771L343.364 229.074Z" fill="#E8F4FD"/>
<path d="M354.344 234.853L355.307 238.705L357.618 240.246L355.885 241.787L356.27 245.639L354.344 242.557L352.225 243.328L352.803 240.053L351.069 236.779L353.38 237.742L354.344 234.853Z" fill="#E8F4FD"/>
<path d="M365.13 240.824L366.093 244.484L368.405 246.217L366.671 247.566L367.249 251.418L365.13 248.529L363.204 249.299L363.589 246.025L361.856 242.558L364.167 243.521L365.13 240.824Z" fill="#E8F4FD"/>
<path d="M505.357 370.071L442.563 336.17V212.894L505.357 246.795V370.071Z" fill="#B4DFFF"/>
<path d="M480.509 263.168C480.509 268.754 477.62 271.643 473.96 269.717C470.3 267.791 467.411 261.627 467.411 256.041C467.411 250.455 470.3 247.566 473.96 249.492C477.62 251.611 480.509 257.582 480.509 263.168Z" fill="white"/>
<mask id="mask2" mask-type="alpha" maskUnits="userSpaceOnUse" x="455" y="235" width="38" height="62">
<path opacity="0.4" d="M492.644 276.073C492.644 291.868 484.362 300.343 473.96 294.757C463.559 289.171 455.276 271.836 455.276 256.041C455.276 240.246 463.559 231.771 473.96 237.357C484.169 242.75 492.644 260.086 492.644 276.073Z" fill="#E8F4FD"/>
</mask>
<g mask="url(#mask2)">
<path d="M492.644 294.565C492.644 300.151 484.362 300.151 473.96 294.565C463.559 288.979 455.276 279.926 455.276 274.34C455.276 268.754 463.559 268.754 473.96 274.34C484.169 279.926 492.644 288.979 492.644 294.565Z" fill="white"/>
</g>
<path opacity="0.3" d="M490.333 340.986L457.588 323.265V318.642L490.333 336.363V340.986Z" fill="#E8F4FD"/>
<path opacity="0.3" d="M490.333 331.355L457.588 313.634V309.011L490.333 326.732V331.355Z" fill="#E8F4FD"/>
<path opacity="0.3" d="M486.288 348.498L461.633 335.207V330.584L486.288 343.875V348.498Z" fill="#E8F4FD"/>
<path d="M452.194 285.704L453.158 289.557L455.469 291.098L453.735 292.446L454.121 296.298L452.194 293.409L450.076 294.179L450.653 290.905L448.92 287.63L451.231 288.401L452.194 285.704Z" fill="#E8F4FD"/>
<path d="M462.981 291.483L463.944 295.335L466.256 296.876L464.522 298.417L465.1 302.269L462.981 299.38L461.055 299.958L461.44 296.683L459.707 293.409L462.018 294.372L462.981 291.483Z" fill="#E8F4FD"/>
<path d="M473.96 297.454L474.924 301.306L477.235 302.847L475.501 304.388L475.887 308.048L473.96 305.159L471.842 305.929L472.419 302.655L470.686 299.38L472.997 300.151L473.96 297.454Z" fill="#E8F4FD"/>
<path d="M484.747 303.233L485.71 307.085L488.022 308.818L486.288 310.167L486.866 314.019L484.747 311.13L482.821 311.708L483.206 308.433L481.473 305.159L483.784 306.122L484.747 303.233Z" fill="#E8F4FD"/>
<path d="M495.726 309.204L496.69 313.056L499.001 314.597L497.267 316.138L497.653 319.798L495.726 316.909L493.608 317.679L494.185 314.404L492.452 311.13L494.763 311.9L495.726 309.204Z" fill="#E8F4FD"/>
<path d="M204.137 152.61C201.469 159.661 204.518 167.093 211.379 170.143C218.24 173.001 227.959 166.903 231.199 160.804C231.199 160.614 231.389 160.423 231.389 160.233V160.042C237.678 143.653 209.664 137.745 204.137 152.61Z" fill="#3A2C6D"/>
<path opacity="0.4" d="M224.529 366.817L0.983093 496.408L224.529 626L447.884 496.408L224.529 366.817Z" fill="#D9E9FF"/>
<path d="M224.91 582.358L447.502 453.529V442.094L224.91 570.733V582.358Z" fill="#A5CBFA"/>
<path d="M224.529 312.312L0.983093 442.094L224.529 571.686L447.884 442.094L224.529 312.312Z" fill="#C8E2FF"/>
<path d="M224.91 582.358L1.17358 453.529V442.094L224.91 570.924V582.358Z" fill="#A5CBFA"/>
<path d="M254.449 389.495C249.494 404.36 223.004 412.365 198.229 407.791C176.313 403.789 163.544 390.829 167.546 378.823C171.739 366.817 191.75 358.05 214.619 359.384C240.346 361.1 259.404 374.631 254.449 389.495Z" fill="#AAC9EC"/>
<path d="M182.221 377.489C182.411 380.157 182.221 380.157 182.221 380.157C182.221 380.157 182.03 382.825 184.127 383.588C186.032 384.54 190.035 385.303 192.703 383.016C195.18 380.729 195.371 379.014 199.373 376.346C203.375 373.678 201.469 367.198 200.897 365.483C200.326 363.768 191.369 366.055 190.606 366.626C189.653 367.389 181.84 372.725 182.221 377.489Z" fill="#2D3192"/>
<path d="M218.811 384.35L228.34 387.399C228.34 387.399 238.25 389.114 240.156 390.258C242.062 391.401 242.443 393.498 240.918 395.403C239.394 397.118 232.533 399.405 223.385 399.787C214.237 400.168 210.045 402.264 206.996 400.739C203.756 399.024 204.899 392.926 204.899 392.926C204.899 392.926 204.137 391.211 206.233 388.733C208.52 386.065 218.811 384.35 218.811 384.35Z" fill="#2D3192"/>
<path d="M216.906 268.099L219.192 273.625C222.623 281.82 224.147 290.777 223.385 299.734L218.049 391.592C213.285 394.069 205.471 392.926 204.137 391.592C204.137 391.592 201.469 319.364 199.563 307.548L191.368 290.968L202.612 270.767L216.906 268.099Z" fill="#7364FF"/>
<path d="M195.37 254.187L197.657 259.713C201.088 267.908 202.612 276.865 201.85 285.822L196.514 377.68C191.75 380.157 183.936 379.014 182.602 377.68C182.602 377.68 184.508 305.451 182.792 293.636L181.077 293.826V257.045L195.37 254.187Z" fill="#7364FF"/>
<path d="M230.627 294.398L230.055 252.09C230.055 251.9 230.055 251.709 229.865 251.518C227.959 226.362 223.004 207.114 211.379 209.02C211.188 208.829 211.188 208.829 210.998 208.639C208.52 205.59 208.139 210.735 205.28 211.116C203.756 211.307 202.041 211.498 200.325 211.307V207.877L191.559 202.922C185.27 201.397 180.887 208.067 177.838 219.121C177.266 221.026 176.694 222.932 176.313 224.838C172.311 244.658 170.977 265.812 171.167 286.584C171.167 288.49 171.167 290.396 171.167 292.302C179.172 300.878 196.705 310.406 230.627 294.398Z" fill="#7EA8F2"/>
<path d="M222.242 300.306C223.004 299.163 224.147 298.781 225.291 298.591C226.816 297.638 228.721 297.447 230.437 299.163C234.057 302.593 238.631 304.499 242.062 308.31C246.064 313.075 244.349 321.65 237.488 322.794C231.961 323.556 227.197 318.22 224.529 314.218C223.957 313.265 223.385 312.312 223.004 311.169C223.385 311.931 222.242 308.31 222.813 310.216C222.623 309.454 222.432 308.882 222.242 308.12C221.479 305.452 220.527 303.165 222.242 300.306Z" fill="#F0A681"/>
<path d="M228.912 225.41C216.906 252.853 223.957 278.199 235.963 304.308C241.109 315.552 223.195 322.032 218.049 310.978C203.946 280.105 197.467 249.422 211.569 217.215C216.715 205.971 233.867 214.166 228.912 225.41Z" fill="#B9D4F5"/>
<path d="M219.574 194.917C222.242 193.774 224.338 191.678 226.053 188.057C229.293 180.624 228.15 173.764 226.625 166.14C225.291 159.089 223.576 155.087 215.762 159.28C214.619 159.851 213.666 160.804 212.522 161.567C211.57 162.329 210.617 162.52 209.664 163.282C208.52 164.425 207.186 165.569 206.424 166.903C205.09 169.19 204.709 172.048 203.184 174.335C200.897 177.766 198.039 172.811 195.752 171.667C192.321 169.761 187.748 174.145 187.748 177.575C187.748 183.673 198.992 191.868 204.328 193.774C209.664 195.68 215 196.823 219.574 194.917Z" fill="#F0A681"/>
<path d="M210.807 188.438C210.807 187.485 210.045 186.913 209.092 186.723C206.805 186.532 204.328 186.151 202.041 185.77C199.944 185.579 198.229 186.532 196.133 186.151C195.942 186.151 195.752 186.151 195.561 186.151C195.371 185.389 194.989 184.436 194.608 183.673C194.227 183.102 193.274 183.292 193.274 184.055C193.655 188.819 193.655 193.012 192.703 197.586C192.131 200.254 190.987 203.875 191.94 206.352C194.418 212.832 206.805 210.164 211.76 209.02C212.522 208.829 212.904 208.067 212.904 207.495C213.094 201.397 211.188 195.108 210.807 188.438Z" fill="#F0A681"/>
<path d="M225.863 167.093C223.576 168.999 220.527 170.905 220.336 173.954C220.145 176.05 221.098 180.243 216.143 175.288C211.379 170.524 212.332 188.628 206.615 190.534C201.088 192.44 193.465 189.391 192.321 188.057C191.178 186.913 182.602 178.528 183.936 163.282C184.698 155.468 196.133 148.417 203.756 147.083C209.092 146.13 215.19 148.036 219.764 150.704C223.004 152.61 230.818 159.47 228.531 163.854C227.959 165.188 227.006 166.14 225.863 167.093Z" fill="#3A2C6D"/>
<path d="M221.098 176.05C219.002 177.003 216.715 173.382 214.809 172.239C211.379 170.333 206.805 174.716 206.805 178.147C206.805 182.721 210.235 185.198 214.238 186.723C214.238 186.913 214.238 187.294 214.428 187.485C216.715 191.106 219.764 183.673 223.004 186.532L223.195 184.626L221.098 176.05Z" fill="#F0A681"/>
<path d="M192.321 201.206C192.321 201.206 191.178 203.493 196.705 204.827C202.231 206.161 206.233 204.827 214.047 203.112L216.334 209.211C216.334 209.211 193.655 217.405 189.463 206.733L191.368 201.588L192.321 201.206Z" fill="white"/>
<path d="M247.779 504.794C242.824 519.659 216.334 527.663 191.559 523.089C169.643 519.087 156.874 506.128 160.876 494.122C165.069 482.115 185.079 473.349 207.949 474.683C233.676 476.398 252.734 489.929 247.779 504.794Z" fill="#AAC9EC"/>
<path d="M175.551 492.788C175.741 495.456 175.551 495.456 175.551 495.456C175.551 495.456 175.36 498.124 177.456 498.886C179.362 499.839 183.364 500.601 186.032 498.314C188.51 496.027 188.7 494.312 192.702 491.644C196.705 488.976 194.799 482.496 194.227 480.781C193.655 479.066 184.698 481.353 183.936 481.925C182.983 482.687 175.17 488.023 175.551 492.788Z" fill="#2D3192"/>
<path d="M212.141 499.648L221.67 502.697C221.67 502.697 231.58 504.413 233.486 505.556C235.392 506.7 235.773 508.796 234.248 510.702C232.723 512.417 225.863 514.704 216.715 515.085C207.567 515.466 203.375 517.562 200.326 516.038C197.086 514.323 198.229 508.224 198.229 508.224C198.229 508.224 197.467 506.509 199.563 504.032C201.85 501.363 212.141 499.648 212.141 499.648Z" fill="#2D3192"/>
<path d="M210.235 383.397L212.522 388.924C215.953 397.118 217.477 406.076 216.715 415.033C216.524 419.035 216.334 423.227 216.143 427.229C215 444.381 213.666 461.724 212.903 478.876C212.713 485.927 211.951 492.978 211.951 500.029C211.951 503.079 212.522 504.794 209.473 506.89C208.139 507.843 197.657 509.368 197.467 506.89C197.467 506.318 194.799 434.662 192.893 422.846L184.698 406.266L195.942 386.065L210.235 383.397Z" fill="#F0A681"/>
<path d="M188.7 369.485L190.987 375.012C194.418 383.206 195.942 392.163 195.18 401.121C194.989 405.313 194.799 409.887 194.608 414.08C193.274 431.803 191.368 449.908 191.178 467.441C191.178 474.302 190.987 481.544 190.797 488.023C190.416 495.646 175.551 497.171 176.504 488.023C177.266 480.972 175.741 408.934 176.122 408.934L174.407 409.125V372.344L188.7 369.485Z" fill="#F0A681"/>
<path d="M218.24 440.189C215.381 449.717 200.326 454.863 186.223 452.195C173.836 449.717 166.594 441.523 168.881 433.9C171.167 426.086 182.602 420.559 195.561 421.322C210.236 422.084 221.098 430.66 218.24 440.189Z" fill="#21009B"/>
<path d="M168.499 399.977V436.187L218.621 437.711V392.354L168.499 399.977Z" fill="#21009B"/>
<path d="M223.957 398.071L223.385 361.1C223.385 360.909 223.385 360.718 223.195 360.528C221.289 338.612 216.334 321.841 204.709 323.556C204.518 323.366 204.518 323.366 204.328 323.175C201.85 320.507 201.469 324.89 198.61 325.462C197.086 325.652 195.371 325.843 193.655 325.652V322.794L184.889 318.411C178.6 317.077 174.217 322.984 171.167 332.513C170.596 334.038 170.024 335.753 169.643 337.468C165.641 354.62 164.307 373.106 164.497 391.401C164.497 393.116 164.497 394.832 164.497 396.356C172.501 403.598 190.034 411.983 223.957 398.071Z" fill="#FF931E"/>
<path d="M212.903 310.216C215.572 309.072 217.668 306.976 219.383 303.355C222.623 295.923 221.479 289.062 219.955 281.439C218.621 274.388 216.906 270.385 209.092 274.578C207.948 275.15 206.996 276.103 205.852 276.865C204.899 277.627 203.946 277.818 202.993 278.58C201.85 279.724 200.516 280.867 199.754 282.201C198.42 284.488 198.039 287.347 196.514 289.634C194.227 293.064 191.368 288.109 189.081 286.966C185.651 285.06 181.077 289.443 181.077 292.873C181.077 298.972 192.321 307.167 197.657 309.072C202.993 310.978 208.33 312.122 212.903 310.216Z" fill="#F0A681"/>
<path d="M204.137 303.736C204.137 302.783 203.375 302.212 202.422 302.021C200.135 301.831 197.657 301.449 195.37 301.068C193.274 300.878 191.559 301.831 189.463 301.449C189.272 301.449 189.081 301.449 188.891 301.449C188.7 300.687 188.319 299.734 187.938 298.972C187.557 298.4 186.604 298.591 186.604 299.353C186.985 304.117 186.985 308.31 186.032 312.884C185.461 315.552 184.317 319.173 185.27 321.65C187.747 328.13 200.135 325.462 205.09 324.318C205.852 324.128 206.233 323.366 206.233 322.794C206.424 316.695 204.518 310.406 204.137 303.736Z" fill="#F0A681"/>
<path d="M219.193 282.201C219.193 282.201 213.856 286.966 213.666 289.062C213.475 291.158 214.428 295.351 209.473 290.396C204.709 285.632 205.662 303.736 199.944 305.642C194.418 307.548 186.795 304.499 185.651 303.165C184.508 302.021 175.932 293.636 177.266 278.39C178.028 270.576 189.463 263.525 197.086 262.191C204.709 260.857 218.621 266.383 219.574 273.244C220.527 280.486 219.193 282.201 219.193 282.201Z" fill="#3A2C6D"/>
<path d="M214.428 291.349C212.332 292.302 210.045 288.681 208.139 287.537C204.709 285.632 200.135 290.015 200.135 293.445C200.135 298.019 203.565 300.496 207.567 302.021C207.567 302.212 207.567 302.593 207.758 302.783C210.045 306.404 213.094 298.972 216.334 301.831L216.524 299.925L214.428 291.349Z" fill="#F0A681"/>
<path d="M185.651 316.505C185.651 316.505 184.508 318.792 190.034 320.126C195.561 321.46 199.563 320.126 207.377 318.411L209.664 324.509C209.664 324.509 186.985 332.704 182.793 322.032L184.698 316.886L185.651 316.505Z" fill="white"/>
<path d="M187.747 306.214C187.557 302.783 186.223 298.972 185.842 295.732C188.129 292.873 185.461 287.156 180.696 288.109C173.645 289.634 171.739 295.542 171.93 302.021C171.93 306.023 172.883 310.216 173.264 314.218C174.026 322.413 171.739 330.798 170.214 338.993C169.262 343.757 174.407 346.806 178.219 343.567C184.317 338.421 186.413 330.036 187.366 322.413C188.129 317.077 188.129 311.74 187.747 306.214Z" fill="#3A2C6D"/>
<path d="M240.918 417.129L191.94 449.146L186.604 410.459L235.391 378.442L240.918 417.129Z" fill="#7264FF"/>
<path d="M207.567 414.842C208.33 413.889 209.473 413.317 210.617 413.317C212.141 412.555 214.238 412.555 215.762 414.27C219.193 417.891 223.576 420.178 226.625 424.371C230.246 429.516 227.768 437.902 220.908 438.473C215.381 438.854 210.998 433.137 208.711 428.945C208.139 427.992 207.758 426.848 207.377 425.895C207.567 426.658 206.996 423.037 207.186 424.942C206.996 424.18 206.996 423.608 206.805 422.846C206.424 419.797 205.662 417.319 207.567 414.842Z" fill="#F0A681"/>
<path d="M219.955 340.517C205.852 367.007 210.998 392.926 220.908 419.797C225.1 431.422 206.805 436.568 202.612 425.133C190.797 393.307 186.795 362.243 203.375 331.179C209.092 320.316 225.672 329.655 219.955 340.517Z" fill="#E8851B"/>
<path d="M353.549 442.857C348.594 457.722 322.104 465.726 297.329 461.152C275.412 457.15 262.644 444.191 266.646 432.184C270.839 420.178 290.849 411.412 313.718 412.746C339.446 414.461 358.504 427.992 353.549 442.857Z" fill="#AAC9EC"/>
<path d="M281.32 430.85C281.511 433.518 281.32 433.518 281.32 433.518C281.32 433.518 281.13 436.187 283.226 436.949C285.132 437.902 289.134 438.664 291.802 436.377C294.28 434.09 294.47 432.375 298.472 429.707C302.474 427.039 300.569 420.559 299.997 418.844C299.425 417.129 290.468 419.416 289.706 419.988C288.753 420.75 280.939 426.086 281.32 430.85Z" fill="#2D3192"/>
<path d="M317.911 437.711L327.44 440.76C327.44 440.76 337.35 442.475 339.255 443.619C341.161 444.762 341.542 446.859 340.018 448.764C338.493 450.48 331.632 452.767 322.485 453.148C313.337 453.529 309.144 455.625 306.095 454.101C302.855 452.385 303.999 446.287 303.999 446.287C303.999 446.287 303.237 444.572 305.333 442.094C307.62 439.426 317.911 437.711 317.911 437.711Z" fill="#2D3192"/>
<path d="M316.005 321.46L318.292 326.986C321.722 335.181 323.247 344.138 322.485 353.095C322.294 357.097 322.104 361.29 321.913 365.292C320.77 382.444 319.436 399.786 318.673 416.938C318.483 423.99 317.72 431.041 317.72 438.092C317.72 441.141 318.292 442.857 315.243 444.953C313.909 445.906 303.427 447.43 303.237 444.953C303.237 444.381 300.569 372.725 298.663 360.909L290.468 344.329L301.712 324.128L316.005 321.46Z" fill="#F0A681"/>
<path d="M294.47 307.548L296.757 313.074C300.187 321.269 301.712 330.226 300.95 339.183C300.759 343.376 300.569 347.95 300.378 352.142C299.044 369.866 297.138 387.971 296.948 405.504C296.948 412.364 296.757 419.606 296.566 426.086C296.185 433.709 281.32 435.234 282.273 426.086C283.036 419.035 281.511 346.997 281.892 346.997L280.177 347.187V310.406L294.47 307.548Z" fill="#F0A681"/>
<path d="M324.009 378.251C321.151 387.78 306.095 392.926 291.993 390.258C279.605 387.78 272.363 379.585 274.65 371.962C276.937 364.149 288.372 358.622 301.331 359.384C316.005 360.147 326.868 368.723 324.009 378.251Z" fill="#4E3ED2"/>
<path d="M274.269 338.04V374.249L324.39 375.774V330.417L274.269 338.04Z" fill="#4E3ED2"/>
<path d="M329.727 336.134L329.155 299.162C329.155 298.972 329.155 298.781 328.964 298.591C327.058 276.674 322.104 259.904 310.478 261.619C310.288 261.428 310.288 261.428 310.097 261.238C307.62 258.57 307.239 262.953 304.38 263.525C302.855 263.715 301.14 263.906 299.425 263.715V260.857L290.658 256.473C284.369 255.139 279.986 261.047 276.937 270.576C276.365 272.101 275.794 273.816 275.412 275.531C271.41 292.683 270.076 311.169 270.267 329.464C270.267 331.179 270.267 332.894 270.267 334.419C278.271 341.661 295.804 350.046 329.727 336.134Z" fill="#7264FF"/>
<path d="M318.673 248.279C321.341 247.135 323.438 245.039 325.153 241.418C328.393 233.985 327.249 227.125 325.725 219.502C324.391 212.45 322.675 208.448 314.862 212.641C313.718 213.213 312.765 214.166 311.622 214.928C310.669 215.69 309.716 215.881 308.763 216.643C307.62 217.786 306.286 218.93 305.523 220.264C304.189 222.551 303.808 225.409 302.284 227.696C299.997 231.127 297.138 226.172 294.851 225.028C291.421 223.123 286.847 227.506 286.847 230.936C286.847 237.035 298.091 245.229 303.427 247.135C308.763 249.041 314.099 250.184 318.673 248.279Z" fill="#F0A681"/>
<path d="M309.907 241.799C309.907 240.846 309.144 240.274 308.191 240.084C305.905 239.893 303.427 239.512 301.14 239.131C299.044 238.94 297.329 239.893 295.232 239.512C295.042 239.512 294.851 239.512 294.661 239.512C294.47 238.75 294.089 237.797 293.708 237.035C293.327 236.463 292.374 236.653 292.374 237.416C292.755 242.18 292.755 246.373 291.802 250.947C291.23 253.615 290.087 257.236 291.04 259.713C293.517 266.193 305.905 263.525 310.859 262.381C311.622 262.191 312.003 261.428 312.003 260.857C312.194 254.758 310.288 248.469 309.907 241.799Z" fill="#F0A681"/>
<path d="M324.962 220.264C324.962 220.264 319.626 225.028 319.435 227.125C319.245 229.221 320.198 233.414 315.243 228.459C310.478 223.694 311.431 241.799 305.714 243.705C300.187 245.611 292.564 242.561 291.421 241.227C290.277 240.084 281.701 231.699 283.035 216.452C283.798 208.639 295.232 201.588 302.855 200.254C310.478 198.919 324.39 204.446 325.343 211.307C326.296 218.549 324.962 220.264 324.962 220.264Z" fill="#3A2C6D"/>
<path d="M291.421 254.568C291.421 254.568 290.277 256.855 295.804 258.189C301.331 259.523 305.333 258.189 313.147 256.473L315.433 262.572C315.433 262.572 292.755 270.767 288.562 260.094L290.468 254.949L291.421 254.568Z" fill="white"/>
<path d="M313.337 352.905C314.099 351.952 315.243 351.38 316.386 351.38C317.911 350.618 320.007 350.618 321.532 352.333C324.962 355.954 329.346 358.241 332.395 362.434C336.016 367.579 333.538 375.965 326.677 376.536C321.151 376.917 316.767 371.2 314.481 367.007C313.909 366.055 313.528 364.911 313.147 363.958C313.337 364.721 312.765 361.1 312.956 363.005C312.765 362.243 312.765 361.671 312.575 360.909C312.194 357.86 311.431 355.382 313.337 352.905Z" fill="#F0A681"/>
<path d="M325.725 278.58C311.622 305.07 316.767 330.989 326.677 357.86C330.87 369.485 312.575 374.63 308.382 363.196C296.566 331.37 292.564 300.306 309.144 269.242C314.862 258.379 331.442 267.717 325.725 278.58Z" fill="#3B2AD1"/>
<path d="M308.001 226.744C305.714 224.076 302.665 225.028 300.187 223.123C298.472 221.789 297.71 218.358 296.757 216.453C294.661 213.022 290.468 206.733 286.085 210.735C277.318 218.739 288.562 233.795 283.607 243.133C281.13 247.898 277.128 251.328 275.412 256.473C271.792 267.336 278.462 277.818 290.277 276.865C312.384 274.959 321.913 242.561 308.001 226.744Z" fill="#3A2C6D"/>
<path d="M320.198 229.412C318.101 230.364 315.814 226.744 313.909 225.6C310.478 223.694 305.905 228.078 305.905 231.508C305.905 236.082 309.335 238.559 313.337 240.084C313.337 240.274 316.196 241.418 316.386 241.799C318.673 245.42 319.054 237.225 322.294 240.084L322.485 238.178L320.198 229.412Z" fill="#F0A681"/>
<path d="M148.679 451.433C143.724 466.298 117.234 474.302 92.4594 469.728C70.5432 465.726 57.7746 452.767 61.7767 440.76C65.9694 428.754 85.9799 419.988 108.849 421.322C134.577 423.037 153.634 436.568 148.679 451.433Z" fill="#AAC9EC"/>
<path d="M76.4511 439.426C76.6416 442.094 76.4511 442.094 76.4511 442.094C76.4511 442.094 76.2605 444.762 78.3568 445.525C80.2626 446.478 84.2647 447.24 86.9327 444.953C89.4102 442.666 89.6008 440.951 93.6029 438.283C97.4144 435.615 95.6992 429.135 95.1275 427.42C94.5558 425.705 85.5987 427.992 84.8364 428.564C83.8835 429.326 76.0699 434.662 76.4511 439.426Z" fill="#2D3192"/>
<path d="M113.042 446.287L122.57 449.336C122.57 449.336 132.48 451.051 134.386 452.195C136.292 453.338 136.673 455.435 135.148 457.34C133.624 459.056 126.763 461.342 117.615 461.724C108.468 462.105 104.275 464.201 101.226 462.677C97.9861 460.961 99.1296 454.863 99.1296 454.863C99.1296 454.863 98.3673 453.148 100.464 450.67C102.751 448.002 113.042 446.287 113.042 446.287Z" fill="#2D3192"/>
<path d="M111.136 330.036L113.423 335.562C116.853 343.757 118.378 352.714 117.615 361.671L112.279 453.529C107.515 456.006 99.7013 454.863 98.3672 453.529C98.3672 453.529 95.6992 381.301 93.7934 369.485L85.5986 352.905L96.8426 332.704L111.136 330.036Z" fill="#7364FF"/>
<path d="M89.6009 316.124L91.8878 321.65C95.3182 329.845 96.8428 338.802 96.0805 347.759L90.7443 439.617C85.9799 442.094 78.1663 440.951 76.8323 439.617C76.8323 439.617 78.738 367.389 77.0229 355.573L75.3077 355.763V318.982L89.6009 316.124Z" fill="#7364FF"/>
<path d="M124.857 356.335L124.476 314.027C124.476 313.837 124.476 313.646 124.286 313.456C122.38 288.3 117.425 269.051 105.8 270.957C105.609 270.767 105.609 270.767 105.419 270.576C102.941 267.527 102.56 272.672 99.7013 273.054C98.1767 273.244 96.4615 273.435 94.7463 273.244V269.814L85.9798 264.859C79.6908 263.334 75.3076 270.004 72.2584 281.058C71.6866 282.963 71.1149 284.869 70.7338 286.775C66.7317 306.595 65.3976 327.749 65.5882 348.522C65.5882 350.427 65.5882 352.333 65.5882 354.239C73.4018 362.815 90.9348 372.344 124.857 356.335Z" fill="#4E3ED2"/>
<path d="M116.472 362.243C117.234 361.1 118.378 360.718 119.521 360.528C121.046 359.575 122.952 359.384 124.667 361.1C128.288 364.53 132.861 366.436 136.292 370.247C140.294 375.012 138.579 383.588 131.718 384.731C126.191 385.493 121.427 380.157 118.759 376.155C118.187 375.202 117.615 374.249 117.234 373.106C117.615 373.868 116.472 370.247 117.044 372.153C116.853 371.391 116.663 370.819 116.472 370.057C115.71 367.389 114.757 365.102 116.472 362.243Z" fill="#F0A681"/>
<path d="M123.142 287.347C111.136 314.79 118.187 340.136 130.193 366.245C135.339 377.489 117.425 383.969 112.279 372.915C98.1767 342.042 91.6971 311.359 105.8 279.152C110.945 267.908 128.097 276.103 123.142 287.347Z" fill="#2D3192"/>
<path d="M113.804 256.855C116.472 255.711 118.568 253.615 120.284 249.994C123.523 242.561 122.38 235.701 120.855 228.078C119.521 221.026 117.806 217.024 109.992 221.217C108.849 221.789 107.896 222.741 106.753 223.504C105.8 224.266 104.847 224.457 103.894 225.219C102.751 226.362 101.417 227.506 100.654 228.84C99.3202 231.127 98.9391 233.985 97.4144 236.272C95.1275 239.703 92.2689 234.748 89.982 233.604C86.5516 231.699 81.9778 236.082 81.9778 239.512C81.9778 245.611 93.2218 253.805 98.5579 255.711C103.894 257.617 109.23 258.76 113.804 256.855Z" fill="#F0A681"/>
<path d="M105.037 250.375C105.037 249.422 104.275 248.85 103.322 248.66C101.035 248.469 98.5578 248.088 96.2709 247.707C94.1746 247.516 92.4594 248.469 90.3631 248.088C90.1725 248.088 89.9819 248.088 89.7913 248.088C89.6008 247.326 89.2196 246.373 88.8385 245.611C88.4573 245.039 87.5044 245.229 87.5044 245.992C87.8856 250.756 87.8856 254.949 86.9327 259.523C86.361 262.191 85.2175 265.812 86.1704 268.289C88.6479 274.769 101.035 272.101 105.99 270.957C106.753 270.767 107.134 270.004 107.134 269.433C107.324 263.334 105.419 257.045 105.037 250.375Z" fill="#F0A681"/>
<path d="M120.093 228.84C120.093 228.84 114.757 233.604 114.566 235.701C114.376 237.797 115.329 241.99 110.374 237.035C105.609 232.27 106.562 250.375 100.845 252.281C95.3181 254.187 87.6951 251.137 86.5516 249.803C85.4081 248.66 76.8322 240.274 78.1663 225.028C78.9286 217.215 90.3631 210.163 97.9862 208.829C105.609 207.495 119.521 213.022 120.474 219.883C121.427 227.125 120.093 228.84 120.093 228.84Z" fill="#3A2C6D"/>
<path d="M115.329 237.988C113.232 238.94 110.945 235.32 109.04 234.176C105.609 232.27 101.035 236.654 101.035 240.084C101.035 244.658 104.466 247.135 108.468 248.66C108.468 248.85 108.468 249.232 108.658 249.422C110.945 253.043 113.995 245.611 117.234 248.469L117.425 246.563L115.329 237.988Z" fill="#F0A681"/>
<path d="M86.5516 263.144C86.5516 263.144 85.4081 265.43 90.9348 266.765C96.4615 268.099 100.464 266.765 108.277 265.049L110.564 271.148C110.564 271.148 87.8856 279.343 83.6929 268.67L85.5987 263.525L86.5516 263.144Z" fill="white"/>
<path d="M162.21 420.75L154.968 416.176L150.013 423.227L149.442 432.566L162.21 420.75Z" fill="#7364FF"/>
<path d="M154.968 452.004L105.228 480.781V444.953L154.968 416.176V452.004Z" fill="#7364FF"/>
<path d="M112.66 485.546L105.228 480.972V445.144L112.66 449.717V485.546Z" fill="#4E3ED2"/>
<path d="M162.21 456.578L112.66 485.546V449.717L162.21 420.75V456.578Z" fill="#21009B"/>
<path d="M125.238 437.902V431.232L143.343 420.75V427.42" stroke="#21009B" stroke-width="2" stroke-miterlimit="10" stroke-linecap="round" stroke-linejoin="round"/>
<path opacity="0.4" d="M112.66 449.717L140.866 451.242L162.21 420.75L113.613 440.76L112.66 449.717Z" fill="#7364FF"/>
</svg>
