<svg width="64" height="64" viewBox="0 0 64 64" fill="none" xmlns="http://www.w3.org/2000/svg">
<path d="M24 23H16C13.25 23 11 25.25 11 28V39C11 40.85 12.3 42.4 14 42.85V59C14 60.65 15.35 62 17 62C18.65 62 21.35 62 23 62C24.65 62 26 60.65 26 59V43H29V28C29 25.25 26.75 23 24 23ZM20 10C18.6739 10 17.4021 10.5268 16.4645 11.4645C15.5268 12.4021 15 13.6739 15 15C15 16.3261 15.5268 17.5979 16.4645 18.5355C17.4021 19.4732 18.6739 20 20 20C21.3261 20 22.5979 19.4732 23.5355 18.5355C24.4732 17.5979 25 16.3261 25 15C25 13.6739 24.4732 12.4021 23.5355 11.4645C22.5979 10.5268 21.3261 10 20 10Z" fill="#FF931E"/>
<path d="M48 23H40C37.25 23 35 25.25 35 28V39C35 40.85 36.3 42.4 38 42.85V58.85C38 60.5 39.25 61.95 40.9 61.95C42.6 62 45.4 62 47.1 61.95C48.75 61.9 50 60.45 50 58.85V43C51.65 43 53 41.65 53 40V28C53 25.25 50.75 23 48 23ZM44 10C42.6739 10 41.4021 10.5268 40.4645 11.4645C39.5268 12.4021 39 13.6739 39 15C39 16.3261 39.5268 17.5979 40.4645 18.5355C41.4021 19.4732 42.6739 20 44 20C45.3261 20 46.5979 19.4732 47.5355 18.5355C48.4732 17.5979 49 16.3261 49 15C49 13.6739 48.4732 12.4021 47.5355 11.4645C46.5979 10.5268 45.3261 10 44 10Z" fill="#FF931E"/>
<path d="M32 38H38V59C38 60.65 36.65 62 35 62C33.35 62 32 60.65 32 59C32 60.65 30.65 62 29 62C27.35 62 26 60.65 26 59V38H32Z" fill="white"/>
<path d="M28 23H36C38.75 23 41 25.25 41 28V43H32H26H20.5L22.45 27.4C22.75 24.9 24.9 23 27.4 23H28Z" fill="white"/>
<path d="M30.9998 34C30.6998 33.7 30.5498 33.25 30.5998 32.8L31.4498 26C31.4998 25.7 31.7498 25.5 31.9998 25.5C32.2998 25.5 32.5498 25.7 32.5498 26L33.3998 32.8C33.4498 33.25 33.2998 33.65 32.9998 34C32.4498 34.55 31.5498 34.55 30.9998 34Z" fill="#2D3192"/>
<path d="M20.4999 44.5C20.4499 44.5 20.3999 44.5 20.2999 44.5C19.4999 44.4 18.8999 43.65 18.9999 42.85L20.9499 27.25C21.3499 23.95 24.1499 21.5 27.3999 21.5H27.9999C28.8499 21.5 29.4999 22.15 29.4999 23C29.4999 23.85 28.8499 24.5 27.9999 24.5H27.3999C25.6499 24.5 24.1499 25.8 23.9499 27.55L21.9999 43.2C21.8999 43.95 21.2499 44.5 20.4999 44.5ZM28.9999 63.5C26.4999 63.5 24.4999 61.5 24.4999 59V43C24.4999 42.15 25.1499 41.5 25.9999 41.5C26.8499 41.5 27.4999 42.15 27.4999 43V59C27.4999 59.85 28.1499 60.5 28.9999 60.5C29.8499 60.5 30.4999 59.85 30.4999 59V43C30.4999 42.15 31.1499 41.5 31.9999 41.5C32.8499 41.5 33.4999 42.15 33.4999 43V59C33.4999 61.5 31.4999 63.5 28.9999 63.5ZM20.4999 56.5C19.6499 56.5 18.9999 55.85 18.9999 55V48C18.9999 47.15 19.6499 46.5 20.4999 46.5C21.3499 46.5 21.9999 47.15 21.9999 48V55C21.9999 55.85 21.3499 56.5 20.4999 56.5ZM37.9999 47.9C37.1499 47.9 36.4999 47.25 36.4999 46.4V43C36.4999 42.15 37.1499 41.5 37.9999 41.5H39.4999V31C39.4999 28.55 39.0499 24.5 35.9999 24.5C35.1499 24.5 34.4999 23.85 34.4999 23C34.4999 22.15 35.1499 21.5 35.9999 21.5C42.0499 21.5 42.4999 28.75 42.4999 31V43C42.4999 43.85 41.8499 44.5 40.9999 44.5H39.4999V46.4C39.4999 47.25 38.8499 47.9 37.9999 47.9Z" fill="#2D3192"/>
<path d="M32 8C30.6739 8 29.4021 8.52678 28.4645 9.46447C27.5268 10.4021 27 11.6739 27 13C27 14.3261 27.5268 15.5979 28.4645 16.5355C29.4021 17.4732 30.6739 18 32 18C33.3261 18 34.5979 17.4732 35.5355 16.5355C36.4732 15.5979 37 14.3261 37 13C37 11.6739 36.4732 10.4021 35.5355 9.46447C34.5979 8.52678 33.3261 8 32 8Z" fill="white"/>
<path d="M32 19.5C28.4 19.5 25.5 16.6 25.5 13C25.5 9.4 28.4 6.5 32 6.5C35.6 6.5 38.5 9.4 38.5 13C38.5 16.6 35.6 19.5 32 19.5ZM32 9.5C30.05 9.5 28.5 11.05 28.5 13C28.5 14.95 30.05 16.5 32 16.5C33.95 16.5 35.5 14.95 35.5 13C35.5 11.05 33.95 9.5 32 9.5ZM35 63.5C32.5 63.5 30.5 61.5 30.5 59C30.5 58.15 31.15 57.5 32 57.5C32.85 57.5 33.5 58.15 33.5 59C33.5 59.85 34.15 60.5 35 60.5C35.85 60.5 36.5 59.85 36.5 59V46C36.5 45.15 37.15 44.5 38 44.5C38.85 44.5 39.5 45.15 39.5 46V59C39.5 61.5 37.5 63.5 35 63.5Z" fill="#2D3192"/>
</svg>
