<svg width="64" height="64" viewBox="0 0 64 64" fill="none" xmlns="http://www.w3.org/2000/svg">
<path d="M60.9 40.4498C59.5 39.0998 57.3 39.2498 55.95 40.5998C48.5 48.0498 42.3 50.4498 34.75 49.4998C31.65 49.0998 30.1 48.1998 27.3 46.9498C27.05 46.8498 26.4 46.4998 25.7 46.0498C23.7 44.8998 23.7 41.9998 25.7 40.8498L33.2 36.4998C35.05 35.4498 35.85 33.0998 34.9 31.1998C33.85 29.0998 31.3 28.3498 29.3 29.4998L12 39.4998H7V37.9998H0.5V57.9998H7V54.4998C7 54.4998 19 59.4998 29.2 59.4998C42.9 59.4998 54.25 52.5998 60.9 45.5498C62.25 44.0998 62.3 41.7998 60.9 40.4498Z" fill="white"/>
<path d="M49.85 31.8499C43 38.6999 31.95 38.6999 25.1 31.8499C18.25 24.9999 18.25 13.9499 25.1 7.0999C31.95 0.249902 43 0.249902 49.85 7.0999C51.3 8.5499 52.45 10.2499 53.3 11.9999C56.4 18.4999 55.25 26.4999 49.85 31.8499Z" fill="white"/>
<path d="M38.65 30.8001C41.4 31.8001 44.45 31.2001 45.1 30.5001C45.75 29.8501 46.2 27.6501 41.2 26.7001C39.75 26.4501 39.45 23.7001 37.9 23.9501C36.45 24.2001 37.05 30.2001 38.65 30.8001Z" fill="#FF931E"/>
<path d="M37.5 0.5C27 0.5 18.5 9 18.5 19.5C18.5 22.65 19.3 25.8 20.8 28.55C21.2 29.3 22.1 29.55 22.85 29.15C23.6 28.75 23.85 27.85 23.45 27.1C22.85 26.05 22.4 24.9 22.1 23.7C22.35 23.85 22.6 23.95 22.85 24C23.5 24.2 24.2 24.35 24.95 24.5C25.5 24.6 26.05 24.55 26.6 24.45C27.25 24.3 27.95 24.1 28.55 23.75C32.8 21.25 30 18.2 30.65 17.35C31.4 16.4 33.1 16.9 34.4 16.9C35.7 16.9 36.9 16.1 37.15 15.15C38 12.1 34.4 10.6 32.15 12.4C30.8 13.5 28.75 14.05 27.5 14.05C26.25 14.05 25.35 12.45 25.9 11.2C26.55 9.8 28.25 10.75 29.4 9.2C29.7 8.8 29.5 8.25 29.15 7.7L28 6.65C30.65 4.65 33.95 3.5 37.5 3.5C44.05 3.5 49.7 7.45 52.15 13.15L50.95 14.4C50.35 15 49.4 15.2 48.6 14.9C46.85 14.2 45.9 12.7 43.95 13.55C42.5 14.2 40.7 18.25 42.1 19.6C43.85 21.35 48.15 18.7 48.65 19.2C49 19.55 48.45 21.1 48.25 22.5C48.1 23.45 48.45 24.4 49.1 25.05L50.25 26.2L51.2 27.75C48.7 31.95 44.3 34.9 39.1 35.45C38.3 35.55 37.7 36.25 37.75 37.1C37.85 37.85 38.5 38.45 39.25 38.45C39.3 38.45 39.35 38.45 39.4 38.45C49.15 37.4 56.5 29.3 56.5 19.5C56.5 9 48 0.5 37.5 0.5Z" fill="#FF931E"/>
<path d="M61.95 39.3499C59.95 37.4999 56.9 37.5499 54.9 39.4999C47.95 46.4499 42.15 48.8999 34.95 47.9999C32.5 47.6999 31.2 47.0999 29.1 46.0999C28.75 45.9499 28.35 45.7499 27.95 45.5499C27.85 45.4999 27.55 45.3499 26.45 44.7499C25.75 44.3499 25.7 43.6999 25.7 43.4499C25.7 43.1999 25.75 42.5499 26.45 42.1499L34 37.7999C36.55 36.2999 37.6 33.1499 36.3 30.5499C35.6 29.1499 34.45 28.1499 32.95 27.6999C31.5 27.2499 29.9 27.4499 28.6 28.1999L11.3 38.1999C10.6 38.5999 10.35 39.5499 10.75 40.2499C11.15 40.9499 12.1 41.1999 12.8 40.7999L30.1 30.7999C30.7 30.4499 31.4 30.3499 32.1 30.5499C32.75 30.7499 33.3 31.1999 33.6 31.8499C34.2 32.9999 33.7 34.4999 32.5 35.1999L24.95 39.5499C23.55 40.3499 22.7 41.7999 22.7 43.4499C22.7 45.0999 23.55 46.5499 24.95 47.3499C26.1 47.9999 26.5 48.1999 26.7 48.2999C27.1 48.4999 27.5 48.6499 27.85 48.8499C30.1 49.8999 31.7 50.6499 34.6 50.9999C42.75 51.9999 49.45 49.2499 57.05 41.6499C57.85 40.8499 59.15 40.7999 59.9 41.5499C60.65 42.2999 60.65 43.6499 59.85 44.4999C56.85 47.6499 45.8 57.9999 29.2 57.9999C21 57.9999 11.45 54.5999 8.5 53.4999V37.9999C8.5 37.1499 7.85 36.4999 7 36.4999H2C1.15 36.4999 0.5 37.1499 0.5 37.9999C0.5 38.8499 1.15 39.4999 2 39.4999H5.5V56.4999H2C1.15 56.4999 0.5 57.1499 0.5 57.9999C0.5 58.8499 1.15 59.4999 2 59.4999H7C7.85 59.4999 8.5 58.8499 8.5 57.9999V56.6999C12.45 58.1499 21.25 60.9999 29.2 60.9999C41.2 60.9999 53.45 55.5999 62 46.5499C63.95 44.5499 63.9 41.2499 61.95 39.3499Z" fill="#2D3192"/>
</svg>
