<svg width="64" height="64" viewBox="0 0 64 64" fill="none" xmlns="http://www.w3.org/2000/svg">
<path d="M27 42H49.1C51.4 42 53.4 43.55 53.95 45.8L58 62H17L27 42Z" fill="#FF931E"/>
<path d="M35 42L40 57L45 42H35ZM23.25 62H13.25C13.25 59.25 15.5 57 18.25 57C21 57 23.25 59.25 23.25 62Z" fill="white"/>
<path d="M13.25 63.5C12.4 63.5 11.75 62.85 11.75 62C11.75 58.4 14.65 55.5 18.25 55.5C18.7 55.5 19.15 55.55 19.55 55.65C20.35 55.8 20.9 56.6 20.7 57.4C20.55 58.2 19.75 58.75 18.95 58.55C18.7 58.5 18.5 58.5 18.25 58.5C16.3 58.5 14.75 60.05 14.75 62C14.75 62.85 14.1 63.5 13.25 63.5Z" fill="#2D3192"/>
<path d="M40 16.5C37.3478 16.5 34.8043 17.5536 32.9289 19.4289C31.0536 21.3043 30 23.8478 30 26.5C30 29.1522 31.0536 31.6957 32.9289 33.5711C34.8043 35.4464 37.3478 36.5 40 36.5C42.6522 36.5 45.1957 35.4464 47.0711 33.5711C48.9464 31.6957 50 29.1522 50 26.5C50 23.8478 48.9464 21.3043 47.0711 19.4289C45.1957 17.5536 42.6522 16.5 40 16.5Z" fill="white"/>
<path d="M40 38C33.65 38 28.5 32.85 28.5 26.5C28.5 20.15 33.65 15 40 15C46.35 15 51.5 20.15 51.5 26.5C51.5 32.85 46.35 38 40 38ZM40 18C35.3 18 31.5 21.8 31.5 26.5C31.5 31.2 35.3 35 40 35C44.7 35 48.5 31.2 48.5 26.5C48.5 21.8 44.7 18 40 18ZM62 63.5H22C21.15 63.5 20.5 62.85 20.5 62C20.5 61.15 21.15 60.5 22 60.5H62C62.85 60.5 63.5 61.15 63.5 62C63.5 62.85 62.85 63.5 62 63.5ZM4.49997 63.5C4.24997 63.5 4.04997 63.45 3.84997 63.35C3.09997 63 2.79997 62.1 3.19997 61.35L8.19997 51.35C8.54997 50.6 9.44997 50.3 10.2 50.7C10.95 51.05 11.25 51.95 10.85 52.7L5.84997 62.7C5.59997 63.2 5.04997 63.5 4.49997 63.5ZM12 48.5C11.6 48.5 11.2 48.35 10.95 48.05C10.9 48 10.8 47.9 10.75 47.8C10.7 47.7 10.65 47.65 10.6 47.55C10.55 47.45 10.55 47.35 10.5 47.25C10.5 47.15 10.45 47.05 10.45 46.95C10.45 46.85 10.45 46.75 10.5 46.65C10.5 46.55 10.55 46.45 10.6 46.35C10.65 46.25 10.7 46.15 10.75 46.1C10.8 46 10.85 45.95 10.95 45.85C11.3 45.5 11.8 45.35 12.3 45.45C12.4 45.45 12.5 45.5 12.6 45.55C12.7 45.6 12.8 45.65 12.85 45.7C12.95 45.75 13 45.8 13.05 45.9C13.1 45.95 13.2 46.05 13.25 46.15C13.3 46.25 13.35 46.3 13.4 46.4C13.45 46.5 13.45 46.6 13.5 46.7C13.5 46.8 13.55 46.9 13.55 47C13.55 47.1 13.55 47.2 13.5 47.3C13.5 47.4 13.45 47.5 13.4 47.6C13.35 47.7 13.3 47.8 13.25 47.85C13.2 47.95 13.15 48 13.05 48.1C13 48.15 12.9 48.25 12.85 48.3C12.75 48.35 12.7 48.4 12.6 48.45C12.5 48.5 12.4 48.5 12.3 48.55C12.2 48.5 12.1 48.5 12 48.5Z" fill="#2D3192"/>
<path d="M58.0001 63.5C57.3501 63.5 56.7001 63.05 56.5501 62.35L52.5001 46.15C52.1001 44.6 50.7001 43.5 49.1001 43.5H46.1001L41.4501 57.45C41.2501 58.05 40.6501 58.5 40.0501 58.5C39.4501 58.5 38.8501 58.1 38.6501 57.45L33.9001 43.5H30.0501C28.7001 43.5 27.5001 44.25 26.9001 45.45L20.7001 57.85C20.3501 58.6 19.4501 58.9 18.7001 58.5C17.9501 58.15 17.6501 57.25 18.0501 56.5L24.2501 44.1C25.3501 41.9 27.6001 40.5 30.0501 40.5H35.0001C35.6501 40.5 36.2001 40.9 36.4001 41.55L40.0001 52.3L43.6001 41.55C43.8001 40.95 44.4001 40.5 45.0001 40.5H49.1001C52.1001 40.5 54.7001 42.5 55.4001 45.4L59.4501 61.6C59.6501 62.4 59.1501 63.2 58.3501 63.4C58.2501 63.5 58.1001 63.5 58.0001 63.5Z" fill="#2D3192"/>
</svg>
