<svg width="130" height="45" viewBox="0 0 130 45" fill="none" xmlns="http://www.w3.org/2000/svg">
<g clip-path="url(#clip0)">
<path d="M2.94754 22.1381C2.02369 21.8379 1.40778 21.4518 1.05584 21.1087C0.351946 20.4225 0 19.6076 0 18.6212C0 17.6776 0.395939 16.8199 1.09983 16.0908C2.55161 14.6754 4.39933 13.9463 6.73096 13.9463C9.23858 13.9463 11.4382 14.8899 13.198 16.9056C13.374 17.0772 13.418 17.3346 13.418 17.5919C13.418 17.8921 13.286 18.1923 13.066 18.4067C12.846 18.6212 12.538 18.7499 12.2301 18.7499C11.8782 18.7499 11.6142 18.6641 11.4382 18.4496C11.2183 18.2351 11.0863 18.1065 10.9983 18.0208C9.81048 16.9056 8.4027 16.3052 6.77496 16.3052C5.14721 16.3052 3.73943 16.777 2.81557 17.8063C2.55161 18.0637 2.41962 18.4067 2.46362 18.7928C2.46362 19.2646 2.72759 19.5648 3.21151 19.7364C5.05922 20.3796 8.75465 21.4948 10.6024 22.1381C11.5262 22.4383 12.1421 22.8243 12.494 23.1674C13.198 23.8536 13.5499 24.6685 13.5499 25.6549C13.5499 26.6414 13.154 27.4564 12.4501 28.1855C10.9983 29.6007 9.1506 30.3298 6.81895 30.3298C4.31133 30.3298 2.02369 29.4292 0.351946 27.3705C0.175972 27.1562 0.13198 26.9417 0.13198 26.6844C0.13198 26.3841 0.263959 26.0839 0.483925 25.8694C0.703892 25.6549 1.01184 25.5263 1.3198 25.5263C1.62775 25.5263 1.9357 25.6121 2.11168 25.8265C2.33164 26.041 2.46362 26.1697 2.55161 26.2554C3.73943 27.4135 5.14721 27.971 6.77496 27.971C8.4027 27.971 9.8105 27.4992 10.7343 26.4699C10.9983 26.2126 11.1303 25.8694 11.0863 25.4835C11.0863 25.0117 10.8223 24.7115 10.3384 24.5399C8.4907 23.8965 4.79526 22.7814 2.94754 22.1381Z" fill="#2D3192"/>
<path d="M19.7969 10.4294C19.7969 10.8154 19.665 11.1585 19.357 11.4588C19.0491 11.759 18.6972 11.8877 18.3012 11.8877C17.9053 11.8877 17.5533 11.759 17.2453 11.4588C16.9374 11.1585 16.8054 10.8154 16.8054 10.4294C16.8054 10.0434 16.9374 9.70031 17.2453 9.40009C17.5533 9.09987 17.9053 8.97119 18.3012 8.97119C18.6972 8.97119 19.0491 9.09987 19.357 9.40009C19.665 9.70031 19.7969 10.0434 19.7969 10.4294ZM17.0694 15.1043C17.0694 14.7613 17.2013 14.5038 17.4213 14.2895C17.6414 14.075 17.9493 13.9463 18.2572 13.9463C18.5652 13.9463 18.8731 14.075 19.0931 14.2895C19.313 14.5038 19.445 14.8041 19.445 15.1043V29.1719C19.445 29.4721 19.313 29.7723 19.0931 29.9868C18.8731 30.2012 18.5652 30.3298 18.2572 30.3298C17.9053 30.3298 17.6414 30.2012 17.4213 29.9868C17.2013 29.7723 17.0694 29.4721 17.0694 29.1719V15.1043Z" fill="#2D3192"/>
<path d="M25.4719 29.1719C25.4719 29.4721 25.34 29.7723 25.12 29.9868C24.9001 30.2012 24.5921 30.3298 24.2842 30.3298C23.9323 30.3298 23.6683 30.2012 23.4484 29.9868C23.2283 29.7723 23.0963 29.4721 23.0963 29.1719V15.1043C23.0963 14.8041 23.2283 14.5038 23.4484 14.2895C23.6683 14.075 23.9763 13.9463 24.2842 13.9463C24.5921 13.9463 24.9001 14.075 25.12 14.2895C25.34 14.5038 25.4719 14.8041 25.4719 15.1043V15.4474C26.6598 14.4609 28.0675 13.9892 29.6513 13.9892C31.4551 13.9892 33.0389 14.6325 34.3146 15.8763C34.5786 16.1336 34.8425 16.4338 35.0625 16.6912C35.2825 16.391 35.5465 16.1336 35.8104 15.8763C37.0862 14.6325 38.67 13.9892 40.4737 13.9892C42.2773 13.9892 43.8611 14.6325 45.137 15.8763C46.4127 17.1201 47.0727 18.6641 47.0727 20.4225V29.1719C47.0727 29.4721 46.9406 29.7723 46.7207 29.9868C46.5007 30.2012 46.1928 30.3298 45.8848 30.3298C45.5329 30.3298 45.269 30.2012 45.049 29.9868C44.8291 29.7723 44.6971 29.4721 44.6971 29.1719V20.3796C44.6971 19.2646 44.3011 18.2781 43.4652 17.4632C42.6294 16.6483 41.6615 16.2624 40.5177 16.2624C39.3738 16.2624 38.362 16.6483 37.5261 17.4632C36.6903 18.2781 36.2943 19.2216 36.2943 20.3796V29.1719C36.2943 29.4721 36.1624 29.7723 35.9424 29.9868C35.7224 30.2012 35.4145 30.3298 35.1065 30.3298C34.7545 30.3298 34.4906 30.2012 34.2706 29.9868C34.0507 29.7723 33.9187 29.4721 33.9187 29.1719V20.3796C33.9187 19.2646 33.5228 18.2781 32.6868 17.4632C31.851 16.6483 30.8832 16.2624 29.7393 16.2624C28.5955 16.2624 27.5836 16.6483 26.7478 17.4632C25.912 18.2781 25.5159 19.2216 25.5159 20.3796V29.1719H25.4719Z" fill="#2D3192"/>
<path d="M57.8509 27.9711C59.5227 27.9711 60.9305 27.4135 62.0743 26.2556C63.2621 25.0975 63.834 23.725 63.834 22.1382C63.834 20.5083 63.2621 19.136 62.0743 18.0208C60.8864 16.8629 59.4787 16.3052 57.8509 16.3052C56.1792 16.3052 54.7714 16.8629 53.6275 18.0208C52.4398 19.1788 51.8679 20.5513 51.8679 22.1382C51.8679 23.768 52.4398 25.1404 53.6275 26.2556C54.8154 27.4135 56.2232 27.9711 57.8509 27.9711ZM51.8679 16.3911L51.9119 16.3482C53.5395 14.7612 55.5192 13.9464 57.8509 13.9464C60.1825 13.9464 62.1622 14.7612 63.79 16.3482C65.4177 17.9351 66.2536 19.8651 66.2536 22.1382C66.2536 24.4113 65.4177 26.3413 63.79 27.9281C62.1622 29.5151 60.1825 30.3299 57.8509 30.3299C55.5192 30.3299 53.5395 29.5151 51.9119 27.9281C50.2841 26.3413 49.4482 24.4113 49.4482 22.1382V8.0706C49.4482 7.77038 49.5802 7.47015 49.8002 7.25571C50.0201 7.04126 50.3281 6.9126 50.636 6.9126C50.9439 6.9126 51.2519 7.04126 51.4719 7.25571C51.6919 7.47015 51.8239 7.77038 51.8239 8.0706V16.3911H51.8679Z" fill="#2D3192"/>
<path d="M68.6737 15.1043C68.6737 14.8041 68.8057 14.5038 69.0257 14.2895C69.2457 14.075 69.5536 13.9463 69.8616 13.9463C70.1695 13.9463 70.4775 14.075 70.6974 14.2895C70.9174 14.5038 71.0493 14.8041 71.0493 15.1043V16.391C72.7211 14.7611 74.7448 13.9463 77.0325 13.9463C78.2202 13.9463 79.2761 14.1607 80.2439 14.5468C80.4199 14.6325 80.5959 14.7183 80.728 14.847C80.9479 15.0615 81.0799 15.3617 81.0799 15.6619C81.0799 16.0049 80.9479 16.2624 80.728 16.4767C80.5079 16.6912 80.2 16.8199 79.892 16.8199C79.716 16.8199 79.5401 16.777 79.3641 16.6912C78.6603 16.391 77.8683 16.2624 77.0325 16.2624C75.3607 16.2624 73.953 16.8199 72.8091 17.9778C71.6213 19.1359 71.0493 20.5084 71.0493 22.0952V29.1719C71.0493 29.4721 70.9174 29.7723 70.6974 29.9868C70.4775 30.2012 70.1695 30.3298 69.8616 30.3298C69.5097 30.3298 69.2457 30.2012 69.0257 29.9868C68.8057 29.7723 68.6737 29.4721 68.6737 29.1719V15.1043Z" fill="#2D3192"/>
<path d="M96.1259 20.9802C95.9058 19.865 95.3779 18.8785 94.4541 18.0208C93.2663 16.8628 91.8585 16.3053 90.2308 16.3053C88.559 16.3053 87.1513 16.8628 86.0074 18.0208C85.1276 18.8785 84.5557 19.865 84.3357 20.9802H96.1259ZM94.8501 26.3412C95.202 26.3412 95.4659 26.4699 95.6859 26.6844C95.9058 26.8987 96.0379 27.199 96.0379 27.4992C96.0379 27.8423 95.9058 28.0996 95.6859 28.3141C94.1462 29.6437 92.2985 30.287 90.2308 30.287C87.8991 30.287 85.9194 29.4721 84.2916 27.8852C82.6639 26.2983 81.828 24.3683 81.828 22.0952C81.828 19.8221 82.6639 17.8921 84.2916 16.3053C85.9194 14.7183 87.8991 13.9034 90.2308 13.9034C92.5624 13.9034 94.5421 14.7183 96.1699 16.3053C97.7976 17.8921 98.6335 19.8221 98.6335 22.0952C98.6335 22.3954 98.5015 22.6956 98.2815 22.9101C98.0615 23.1245 97.7536 23.2533 97.4456 23.2533H84.3357C84.5557 24.3683 85.0836 25.3548 86.0074 26.2126C87.1953 27.3705 88.603 27.9282 90.2308 27.9282C91.7266 27.9282 93.0023 27.4564 94.1022 26.5557C94.3222 26.4271 94.5861 26.3412 94.8501 26.3412Z" fill="#2D3192"/>
<path d="M121.553 16.3052C119.882 16.3052 118.474 16.8628 117.33 18.0208C116.142 19.1787 115.57 20.5512 115.57 22.1381C115.57 23.7679 116.142 25.1403 117.33 26.2554C118.518 27.4135 119.925 27.971 121.553 27.971C123.225 27.971 124.633 27.4135 125.776 26.2554C126.965 25.0974 127.536 23.725 127.536 22.1381C127.536 20.5084 126.965 19.1359 125.776 18.0208C124.633 16.8628 123.225 16.3052 121.553 16.3052ZM127.58 27.8852C125.908 29.515 123.885 30.3298 121.598 30.3298C119.266 30.3298 117.286 29.515 115.658 27.9281C114.03 26.3412 113.195 24.4112 113.195 22.1381C113.195 19.865 114.03 17.9349 115.658 16.3481C117.286 14.7611 119.266 13.9463 121.598 13.9463C123.929 13.9463 125.908 14.7611 127.536 16.3481C129.164 17.9349 130 19.865 130 22.1381V29.1719C130 29.4721 129.868 29.7723 129.648 29.9868C129.428 30.2012 129.12 30.3298 128.813 30.3298C128.46 30.3298 128.196 30.2012 127.977 29.9868C127.756 29.7723 127.624 29.4721 127.624 29.1719V27.8852H127.58Z" fill="#2D3192"/>
<path d="M101.008 31.5737C100.877 31.5737 100.745 31.5308 100.613 31.488C99.9526 31.2735 99.6446 30.5872 99.8646 29.944C101.668 24.883 101.668 19.3504 99.8646 14.2894C99.6446 13.6462 99.9966 13.0028 100.613 12.7455C101.272 12.531 101.932 12.8742 102.196 13.4746C104.176 19.0072 104.176 25.1403 102.196 30.6731C102.02 31.2306 101.536 31.5737 101.008 31.5737Z" fill="#2D3192"/>
<path d="M105.011 37.2779C104.835 37.2779 104.615 37.235 104.439 37.1493C103.823 36.8491 103.603 36.12 103.911 35.5195C108.266 27.1132 108.266 17.0773 103.911 8.67101C103.603 8.07057 103.867 7.34146 104.439 7.04123C105.055 6.74101 105.803 6.99835 106.111 7.5559C110.818 16.6484 110.818 27.4564 106.111 36.5488C105.891 37.0634 105.451 37.2779 105.011 37.2779Z" fill="#2D3192"/>
<path d="M107.695 44.2689C107.475 44.2689 107.211 44.1832 106.991 44.0544C106.419 43.6685 106.287 42.9394 106.683 42.3817C109.323 38.6504 111.171 34.5332 112.226 30.1156C112.358 29.4722 113.018 29.0433 113.678 29.2149C114.338 29.3436 114.734 29.9869 114.602 30.6302C113.502 35.348 111.523 39.7656 108.663 43.7542C108.443 44.0544 108.091 44.2689 107.695 44.2689Z" fill="#FF931E"/>
<path d="M113.414 15.1044C112.842 15.1044 112.358 14.7183 112.226 14.1608C111.171 9.74322 109.323 5.62589 106.683 1.89455C106.287 1.33699 106.419 0.607875 106.991 0.221875C107.563 -0.164126 108.311 -0.0354585 108.707 0.522098C111.523 4.51078 113.502 8.92833 114.646 13.6461C114.778 14.2894 114.382 14.9328 113.722 15.0615C113.59 15.1044 113.502 15.1044 113.414 15.1044Z" fill="#FF931E"/>
</g>
<defs>
<clipPath id="clip0">
<rect width="130" height="45" fill="white"/>
</clipPath>
</defs>
</svg>
