<svg width="140" height="48" viewBox="0 0 140 48" fill="none" xmlns="http://www.w3.org/2000/svg">
<path d="M3.17428 24.004C2.17936 23.6785 1.51607 23.26 1.13706 22.8879C0.379019 22.1439 0 21.2603 0 20.1907C0 19.1676 0.426396 18.2375 1.18443 17.447C2.74788 15.9124 4.73773 15.1218 7.24873 15.1218C9.94924 15.1218 12.3181 16.1449 14.2132 18.3306C14.4027 18.5166 14.4501 18.7956 14.4501 19.0746C14.4501 19.4001 14.308 19.7257 14.0711 19.9582C13.8342 20.1907 13.5025 20.3302 13.1709 20.3302C12.7919 20.3302 12.5076 20.2372 12.3181 20.0047C12.0812 19.7722 11.9391 19.6327 11.8443 19.5397C10.5651 18.3306 9.04907 17.6795 7.29611 17.6795C5.54315 17.6795 4.02707 18.191 3.03215 19.3071C2.74788 19.5862 2.60575 19.9582 2.65313 20.3767C2.65313 20.8883 2.93739 21.2138 3.45854 21.3998C5.44839 22.0974 9.42809 23.3065 11.4179 24.004C12.4129 24.3295 13.0761 24.7481 13.4552 25.1201C14.2132 25.8642 14.5922 26.7477 14.5922 27.8173C14.5922 28.8869 14.1658 29.7705 13.4078 30.5611C11.8443 32.0957 9.85448 32.8862 7.34348 32.8862C4.64298 32.8862 2.17936 31.9097 0.379019 29.6775C0.189509 29.445 0.142132 29.2124 0.142132 28.9334C0.142132 28.6079 0.284264 28.2824 0.521151 28.0498C0.758037 27.8173 1.08968 27.6778 1.42132 27.6778C1.75296 27.6778 2.0846 27.7708 2.27411 28.0033C2.511 28.2359 2.65313 28.3754 2.74788 28.4684C4.02707 29.724 5.54315 30.3285 7.29611 30.3285C9.04907 30.3285 10.5651 29.817 11.5601 28.7009C11.8443 28.4219 11.9865 28.0498 11.9391 27.6313C11.9391 27.1198 11.6548 26.7942 11.1337 26.6082C9.14382 25.9107 5.16413 24.7016 3.17428 24.004Z" fill="white"/>
<path d="M21.3198 11.3085C21.3198 11.727 21.1777 12.0991 20.846 12.4246C20.5144 12.7501 20.1354 12.8896 19.709 12.8896C19.2826 12.8896 18.9036 12.7501 18.5719 12.4246C18.2403 12.0991 18.0981 11.727 18.0981 11.3085C18.0981 10.89 18.2403 10.5179 18.5719 10.1924C18.9036 9.86688 19.2826 9.72737 19.709 9.72737C20.1354 9.72737 20.5144 9.86688 20.846 10.1924C21.1777 10.5179 21.3198 10.89 21.3198 11.3085ZM18.3824 16.3774C18.3824 16.0054 18.5245 15.7264 18.7614 15.4938C18.9983 15.2613 19.33 15.1218 19.6616 15.1218C19.9932 15.1218 20.3249 15.2613 20.5618 15.4938C20.7987 15.7264 20.9408 16.0519 20.9408 16.3774V31.6307C20.9408 31.9562 20.7987 32.2817 20.5618 32.5142C20.3249 32.7467 19.9932 32.8863 19.6616 32.8863C19.2826 32.8863 18.9983 32.7467 18.7614 32.5142C18.5245 32.2817 18.3824 31.9562 18.3824 31.6307V16.3774Z" fill="white"/>
<path d="M27.4314 31.6306C27.4314 31.9562 27.2893 32.2817 27.0524 32.5142C26.8155 32.7467 26.4839 32.8862 26.1522 32.8862C25.7732 32.8862 25.489 32.7467 25.2521 32.5142C25.0152 32.2817 24.873 31.9562 24.873 31.6306V16.3774C24.873 16.0519 25.0152 15.7263 25.2521 15.4938C25.489 15.2613 25.8206 15.1218 26.1522 15.1218C26.4839 15.1218 26.8155 15.2613 27.0524 15.4938C27.2893 15.7263 27.4314 16.0519 27.4314 16.3774V16.7494C28.7106 15.6798 30.2267 15.1683 31.9323 15.1683C33.8747 15.1683 35.5803 15.8659 36.9543 17.2145C37.2385 17.4935 37.5228 17.819 37.7597 18.098C37.9966 17.7725 38.2808 17.4935 38.5651 17.2145C39.939 15.8659 41.6446 15.1683 43.5871 15.1683C45.5296 15.1683 47.2351 15.8659 48.6091 17.2145C49.983 18.5631 50.6937 20.2372 50.6937 22.1439V31.6306C50.6937 31.9562 50.5516 32.2817 50.3147 32.5142C50.0778 32.7467 49.7461 32.8862 49.4145 32.8862C49.0355 32.8862 48.7512 32.7467 48.5143 32.5142C48.2774 32.2817 48.1353 31.9562 48.1353 31.6306V22.0974C48.1353 20.8883 47.7089 19.8187 46.8087 18.9351C45.9086 18.0515 44.8663 17.633 43.6345 17.633C42.4027 17.633 41.313 18.0515 40.4128 18.9351C39.5126 19.8187 39.0862 20.8418 39.0862 22.0974V31.6306C39.0862 31.9562 38.9441 32.2817 38.7072 32.5142C38.4703 32.7467 38.1387 32.8862 37.8071 32.8862C37.428 32.8862 37.1438 32.7467 36.9069 32.5142C36.67 32.2817 36.5279 31.9562 36.5279 31.6306V22.0974C36.5279 20.8883 36.1015 19.8187 35.2013 18.9351C34.3011 18.0515 33.2588 17.633 32.027 17.633C30.7952 17.633 29.7055 18.0515 28.8054 18.9351C27.9052 19.8187 27.4788 20.8418 27.4788 22.0974V31.6306H27.4314Z" fill="white"/>
<path d="M62.301 30.3285C64.1014 30.3285 65.6174 29.724 66.8492 28.4684C68.1284 27.2128 68.7443 25.7247 68.7443 24.004C68.7443 22.2369 68.1284 20.7488 66.8492 19.5397C65.5701 18.2841 64.054 17.6795 62.301 17.6795C60.5007 17.6795 58.9846 18.2841 57.7528 19.5397C56.4736 20.7953 55.8577 22.2834 55.8577 24.004C55.8577 25.7712 56.4736 27.2593 57.7528 28.4684C59.032 29.724 60.5481 30.3285 62.301 30.3285ZM55.8577 17.7725L55.9051 17.726C57.658 16.0054 59.79 15.1218 62.301 15.1218C64.812 15.1218 66.944 16.0054 68.697 17.726C70.4499 19.4467 71.3501 21.5393 71.3501 24.004C71.3501 26.4687 70.4499 28.5614 68.697 30.282C66.944 32.0027 64.812 32.8862 62.301 32.8862C59.79 32.8862 57.658 32.0027 55.9051 30.282C54.1521 28.5614 53.252 26.4687 53.252 24.004V8.75078C53.252 8.42525 53.3941 8.09973 53.631 7.86721C53.8679 7.63469 54.1995 7.49518 54.5311 7.49518C54.8628 7.49518 55.1944 7.63469 55.4313 7.86721C55.6682 8.09973 55.8103 8.42525 55.8103 8.75078V17.7725H55.8577Z" fill="white"/>
<path d="M73.9561 16.3774C73.9561 16.0519 74.0982 15.7263 74.3351 15.4938C74.572 15.2613 74.9036 15.1218 75.2352 15.1218C75.5669 15.1218 75.8985 15.2613 76.1354 15.4938C76.3723 15.7263 76.5144 16.0519 76.5144 16.3774V17.7725C78.3148 16.0054 80.4941 15.1218 82.9577 15.1218C84.2369 15.1218 85.374 15.3543 86.4163 15.7728C86.6058 15.8659 86.7953 15.9589 86.9374 16.0984C87.1743 16.3309 87.3165 16.6564 87.3165 16.9819C87.3165 17.354 87.1743 17.633 86.9374 17.8655C86.7006 18.098 86.3689 18.2375 86.0373 18.2375C85.8478 18.2375 85.6583 18.191 85.4687 18.098C84.7107 17.7725 83.8579 17.633 82.9577 17.633C81.1574 17.633 79.6413 18.2376 78.4095 19.4932C77.1303 20.7488 76.5144 22.2369 76.5144 23.9575V31.6306C76.5144 31.9562 76.3723 32.2817 76.1354 32.5142C75.8985 32.7467 75.5669 32.8862 75.2352 32.8862C74.8562 32.8862 74.572 32.7467 74.3351 32.5142C74.0982 32.2817 73.9561 31.9562 73.9561 31.6306V16.3774Z" fill="white"/>
<path d="M103.519 22.7484C103.283 21.5393 102.714 20.4697 101.719 19.5397C100.44 18.2841 98.9239 17.6795 97.1709 17.6795C95.3706 17.6795 93.8545 18.2841 92.6227 19.5397C91.6751 20.4697 91.0592 21.5393 90.8223 22.7484H103.519ZM102.146 28.5614C102.525 28.5614 102.809 28.7009 103.046 28.9334C103.283 29.166 103.425 29.4915 103.425 29.817C103.425 30.189 103.283 30.4681 103.046 30.7006C101.387 32.1422 99.3976 32.8398 97.1709 32.8398C94.6599 32.8398 92.5279 31.9562 90.775 30.2355C89.022 28.5149 88.1218 26.4222 88.1218 23.9575C88.1218 21.4928 89.022 19.4002 90.775 17.6795C92.5279 15.9589 94.6599 15.0753 97.1709 15.0753C99.6819 15.0753 101.814 15.9589 103.567 17.6795C105.32 19.4002 106.22 21.4928 106.22 23.9575C106.22 24.2831 106.078 24.6086 105.841 24.8411C105.604 25.0736 105.272 25.2131 104.941 25.2131H90.8223C91.0592 26.4222 91.6277 27.4918 92.6227 28.4219C93.9019 29.6775 95.4179 30.282 97.1709 30.282C98.7817 30.282 100.156 29.7705 101.34 28.7939C101.577 28.6544 101.861 28.5614 102.146 28.5614Z" fill="white"/>
<path d="M130.904 17.6795C129.103 17.6795 127.587 18.2841 126.355 19.5397C125.076 20.7953 124.46 22.2834 124.46 24.004C124.46 25.7712 125.076 27.2593 126.355 28.4684C127.635 29.724 129.151 30.3285 130.904 30.3285C132.704 30.3285 134.22 29.724 135.452 28.4684C136.731 27.2128 137.347 25.7247 137.347 24.004C137.347 22.2369 136.731 20.7488 135.452 19.5397C134.22 18.2841 132.704 17.6795 130.904 17.6795ZM137.394 30.2355C135.594 32.0027 133.415 32.8862 130.951 32.8862C128.44 32.8862 126.308 32.0027 124.555 30.282C122.802 28.5614 121.902 26.4687 121.902 24.004C121.902 21.5393 122.802 19.4466 124.555 17.726C126.308 16.0054 128.44 15.1218 130.951 15.1218C133.462 15.1218 135.594 16.0054 137.347 17.726C139.1 19.4466 140 21.5393 140 24.004V31.6306C140 31.9562 139.858 32.2817 139.621 32.5142C139.384 32.7467 139.052 32.8862 138.721 32.8862C138.342 32.8862 138.058 32.7467 137.821 32.5142C137.584 32.2817 137.442 31.9562 137.442 31.6306V30.2355H137.394Z" fill="white"/>
<path d="M108.779 34.2348C108.636 34.2348 108.494 34.1883 108.352 34.1418C107.642 33.9093 107.31 33.1653 107.547 32.4677C109.489 26.9803 109.489 20.9813 107.547 15.4938C107.31 14.7963 107.689 14.0987 108.352 13.8197C109.063 13.5872 109.774 13.9592 110.058 14.6102C112.19 20.6092 112.19 27.2593 110.058 33.2583C109.868 33.8628 109.347 34.2348 108.779 34.2348Z" fill="white"/>
<path d="M113.089 40.4199C112.9 40.4199 112.663 40.3733 112.473 40.2803C111.81 39.9548 111.573 39.1643 111.905 38.5132C116.595 29.3985 116.595 18.5166 111.905 9.40183C111.573 8.75077 111.858 7.96021 112.473 7.63468C113.137 7.30916 113.942 7.58818 114.274 8.19273C119.343 18.0515 119.343 29.7705 114.274 39.6293C114.037 40.1873 113.563 40.4199 113.089 40.4199Z" fill="white"/>
<path d="M115.98 48C115.743 48 115.458 47.907 115.222 47.7675C114.606 47.3489 114.463 46.5584 114.89 45.9538C117.733 41.908 119.722 37.4436 120.859 32.6537C121.002 31.9562 121.712 31.4911 122.423 31.6772C123.134 31.8167 123.56 32.5142 123.418 33.2118C122.233 38.3272 120.101 43.1171 117.022 47.442C116.785 47.7675 116.406 48 115.98 48Z" fill="#FF931E"/>
<path d="M122.139 16.3774C121.523 16.3774 121.002 15.9589 120.859 15.3543C119.722 10.5644 117.733 6.10005 114.89 2.05422C114.463 1.44967 114.606 0.65911 115.222 0.240576C115.837 -0.177959 116.643 -0.0384472 117.069 0.566102C120.101 4.89096 122.233 9.68085 123.465 14.7963C123.607 15.4938 123.181 16.1914 122.47 16.3309C122.328 16.3774 122.233 16.3774 122.139 16.3774Z" fill="#FF931E"/>
</svg>
