<svg width="130" height="180" viewBox="0 0 130 180" fill="none" xmlns="http://www.w3.org/2000/svg">
<g clip-path="url(#clip0)">
<path opacity="0.15" d="M109.021 137.219L59.7776 165.625C59.1412 165.994 58.3116 166.171 57.482 166.171C56.6523 166.171 55.8227 165.994 55.1863 165.625L5.95463 137.225C5.31821 136.861 5 136.384 5 135.901C5 135.554 5.16479 135.202 5.50573 134.906C5.63074 134.793 5.77847 134.679 5.95463 134.577L55.1977 106.177C56.4591 105.444 58.5161 105.444 59.789 106.177L109.021 134.571C110.282 135.304 110.282 136.497 109.021 137.219Z" fill="#6B99D1"/>
<path d="M109.021 133.168L59.7776 161.568C59.1411 161.937 58.3115 162.113 57.4819 162.113C56.6523 162.113 55.8283 161.937 55.1976 161.573L5.96025 133.173C5.32383 132.804 5.00562 132.327 5.00562 131.849C5.00562 131.366 5.32383 130.889 5.96025 130.525L12.637 126.678L55.2033 102.119C56.4648 101.386 58.5218 101.386 59.7946 102.119L109.026 130.52C110.282 131.247 110.282 132.44 109.021 133.168Z" fill="#DCEEFF"/>
<path d="M57.4819 152.544V162.113C56.6523 162.113 55.8283 161.937 55.1976 161.573L5.96025 133.173C5.32383 132.804 5.00562 132.327 5.00562 131.849V123.559C5.00562 123.212 5.1704 122.86 5.51134 122.564L12.637 126.678L57.4819 152.544Z" fill="#A5CBFA"/>
<path d="M57.4819 152.544V162.113C58.3116 162.113 59.1355 161.937 59.7662 161.574L109.021 133.168C109.657 132.798 109.975 132.321 109.975 131.844V123.553C109.975 123.207 109.81 122.854 109.475 122.559L102.35 126.673L57.4819 152.544Z" fill="#C8E2FF"/>
<path d="M109.021 124.884L59.7776 153.29C59.1412 153.659 58.3116 153.835 57.482 153.835C56.6523 153.835 55.8227 153.659 55.1863 153.29L5.95463 124.89C5.31821 124.526 5 124.049 5 123.566C5 123.219 5.16479 122.867 5.50573 122.571C5.63074 122.458 5.77847 122.344 5.95463 122.242L55.1977 93.8413C56.4591 93.1083 58.5161 93.1083 59.789 93.8413L109.021 122.236C110.282 122.963 110.282 124.157 109.021 124.884Z" fill="#DCEEFF"/>
<path opacity="0.15" d="M24.6353 172.927L19.3897 169.931C15.8332 167.899 10.915 167.413 8.41501 168.841C5.915 170.269 6.76322 173.081 10.3272 175.113L15.5728 178.109C19.1293 180.141 24.0475 180.634 26.5475 179.199C29.0475 177.763 28.1919 174.959 24.6353 172.927Z" fill="#6B99D1"/>
<path opacity="0.15" d="M96.167 168.519L101.162 165.772C104.548 163.909 109.231 163.463 111.611 164.773C113.998 166.082 113.184 168.661 109.79 170.524L104.796 173.271C101.409 175.134 96.7267 175.58 94.3463 174.27C91.966 172.954 92.7736 170.382 96.167 168.519Z" fill="#6B99D1"/>
<path d="M57.4876 93.8573C58.2434 93.8573 58.9821 94.0278 59.5049 94.3289L108.731 122.723C109.151 122.968 109.396 123.275 109.396 123.559C109.396 123.843 109.151 124.144 108.731 124.388L59.4878 152.794C58.9707 153.096 58.2547 153.266 57.4763 153.266C56.6978 153.266 55.9875 153.101 55.4647 152.794L6.23306 124.388C5.80121 124.144 5.56823 123.849 5.56823 123.559C5.56823 123.371 5.68187 123.167 5.89212 122.979C5.9944 122.883 6.10805 122.797 6.23874 122.729L55.4818 94.3289C55.9989 94.0278 56.7319 93.8573 57.4876 93.8573ZM57.4876 93.2891C56.658 93.2891 55.8284 93.4709 55.1977 93.8402L5.95463 122.24C5.77847 122.337 5.63074 122.451 5.50573 122.57C5.17047 122.871 5 123.224 5 123.564C5 124.053 5.31821 124.525 5.95463 124.888L55.1863 153.289C55.8227 153.658 56.6523 153.834 57.482 153.834C58.3116 153.834 59.1412 153.658 59.7776 153.289L109.021 124.883C110.282 124.161 110.282 122.968 109.021 122.235L59.789 93.8402C59.1526 93.4709 58.3229 93.2891 57.4876 93.2891Z" fill="white"/>
<path d="M55.9646 99.602L15.9553 122.678C15.1086 123.167 15.1086 123.956 15.9553 124.445L55.9589 147.515C56.8056 148.004 58.175 148.004 59.016 147.515L99.0252 124.439C99.8719 123.951 99.8719 123.161 99.0252 122.672L59.0273 99.602C58.175 99.119 56.8056 99.119 55.9646 99.602Z" fill="#2D3192"/>
<path d="M99.0199 122.678L59.022 99.6077C58.6015 99.3633 58.0446 99.244 57.4934 99.244V100.795L98.7585 124.599L99.0199 124.445C99.8665 123.956 99.8665 123.167 99.0199 122.678Z" fill="#1E3779"/>
<path d="M57.4931 99.2385C56.9419 99.2385 56.3851 99.3578 55.9646 99.6021L15.9553 122.678C15.1086 123.167 15.1086 123.957 15.9553 124.445L16.2224 124.599L57.4988 100.79L57.4931 99.2385Z" fill="#031F60"/>
<path d="M57.8174 112.973L69.6593 106.154C69.8412 106.046 69.8412 105.875 69.6593 105.767L57.8117 98.9259C57.6298 98.818 57.3287 98.818 57.1468 98.9259L45.3219 105.762C45.1401 105.87 45.1401 106.04 45.3219 106.148L57.1468 112.967C57.3344 113.081 57.6355 113.081 57.8174 112.973Z" stroke="white" stroke-miterlimit="10" stroke-linecap="round"/>
<path d="M57.4932 108.507V135.901C58.1978 135.901 58.8967 135.748 59.4365 135.435L84.7797 120.803C85.8537 120.184 86.723 118.678 86.723 117.439V108.507H57.4932Z" fill="#FF931E"/>
<path d="M28.2634 108.507V117.439C28.2634 118.678 29.1328 120.184 30.2068 120.803L55.55 135.435C56.0841 135.742 56.7887 135.901 57.4933 135.901V108.507H28.2634Z" fill="#FF8500"/>
<path d="M55.5443 124.923L29.0704 109.626C27.9964 109.007 27.9964 108.001 29.0704 107.381L55.55 92.0903C56.624 91.471 58.3628 91.471 59.4367 92.0903L85.9164 107.381C86.9903 108.001 86.9903 109.007 85.9164 109.626L59.4253 124.923C58.3514 125.542 56.6126 125.542 55.5443 124.923Z" fill="#FFAA4F"/>
<path d="M34.5028 107.762L56.2036 95.2269C56.9196 94.8121 58.0788 94.8121 58.7947 95.2269L80.5012 107.762C81.2172 108.177 81.2172 108.842 80.5012 109.257L58.7834 121.792C58.0674 122.207 56.9082 122.207 56.1922 121.792L34.5028 109.262C33.7868 108.847 33.7868 108.177 34.5028 107.762Z" stroke="white" stroke-miterlimit="10" stroke-linecap="round"/>
<path d="M58.1297 98.3636L75.2051 108.131C75.5631 108.336 75.5631 108.671 75.2051 108.882L58.1297 118.661C57.7717 118.865 57.1921 118.865 56.8341 118.661L39.9008 108.882C39.5428 108.677 39.5428 108.342 39.9008 108.131L56.8341 98.3579C57.1921 98.159 57.7717 98.159 58.1297 98.3636Z" stroke="white" stroke-miterlimit="10" stroke-linecap="round"/>
<path d="M34.9856 118.144C34.9856 117.558 34.5764 116.842 34.065 116.553C33.8093 116.405 33.5763 116.394 33.4059 116.496L29.6555 118.661C28.8941 119.098 28.269 120.178 28.269 121.059V126.213C28.269 126.406 28.3941 126.599 28.6498 126.741C29.1555 127.031 29.9794 127.037 30.4851 126.741C30.7409 126.593 30.8659 126.4 30.8659 126.213V121.15C30.8659 121.036 30.9284 120.928 31.025 120.871L34.7071 118.746C34.7071 118.746 34.7128 118.746 34.7128 118.74L34.7242 118.735C34.8833 118.632 34.9856 118.428 34.9856 118.144Z" fill="url(#paint0_linear)"/>
<path d="M40.6054 121.405C40.6054 120.82 40.1963 120.104 39.6849 119.814C39.4292 119.666 39.1962 119.655 39.0257 119.757L35.2754 121.922C34.514 122.36 33.8889 123.439 33.8889 124.32V129.474C33.8889 129.667 34.0139 129.855 34.2696 130.003C34.7753 130.298 35.5993 130.298 36.105 130.003C36.3607 129.855 36.4857 129.662 36.4857 129.474V124.411C36.4857 124.298 36.5482 124.19 36.6448 124.133L40.327 122.008C40.327 122.008 40.3327 122.008 40.3327 122.002L40.344 121.996C40.5088 121.894 40.6054 121.689 40.6054 121.405Z" fill="url(#paint1_linear)"/>
<path d="M46.2309 124.667C46.2309 124.082 45.8218 123.366 45.3104 123.076C45.0547 122.928 44.8217 122.917 44.6512 123.019L40.9009 125.184C40.1395 125.621 39.5144 126.701 39.5144 127.582V132.73C39.5144 132.923 39.6394 133.116 39.8951 133.259C40.4008 133.554 41.2248 133.554 41.7305 133.259C41.9862 133.111 42.1112 132.918 42.1112 132.73V127.667C42.1112 127.553 42.1737 127.445 42.2703 127.389L45.9525 125.263C45.9525 125.263 45.9582 125.263 45.9582 125.258L45.9695 125.252C46.1286 125.15 46.2309 124.951 46.2309 124.667Z" fill="url(#paint2_linear)"/>
<path d="M51.8505 127.928C51.8505 127.343 51.4414 126.627 50.93 126.337C50.6743 126.19 50.4413 126.178 50.2709 126.281L46.5205 128.446C45.7591 128.883 45.134 129.963 45.134 130.844V135.997C45.134 136.191 45.2591 136.384 45.5148 136.526C46.0205 136.821 46.8444 136.821 47.3501 136.526C47.6058 136.378 47.7309 136.185 47.7309 135.997V130.934C47.7309 130.821 47.7934 130.713 47.89 130.656L51.5721 128.531C51.5721 128.531 51.5778 128.531 51.5778 128.525L51.5892 128.519C51.7539 128.411 51.8505 128.213 51.8505 127.928Z" fill="url(#paint3_linear)"/>
<path d="M80.0066 118.144C80.0066 117.558 80.4157 116.842 80.9271 116.553C81.1828 116.405 81.4158 116.393 81.5863 116.496L85.3366 118.661C86.098 119.098 86.7231 120.178 86.7231 121.059V126.213C86.7231 126.406 86.5981 126.599 86.3424 126.741C85.8367 127.031 85.0127 127.036 84.507 126.741C84.2513 126.593 84.1263 126.4 84.1263 126.213V121.15C84.1263 121.036 84.0638 120.928 83.9672 120.871L80.285 118.746C80.285 118.746 80.2793 118.746 80.2793 118.74L80.268 118.735C80.1032 118.632 80.0066 118.428 80.0066 118.144Z" fill="url(#paint4_linear)"/>
<path d="M74.3811 121.405C74.3811 120.82 74.7902 120.104 75.3016 119.814C75.5573 119.666 75.7903 119.655 75.9608 119.757L79.7111 121.922C80.4726 122.36 81.0976 123.439 81.0976 124.32V129.474C81.0976 129.667 80.9726 129.855 80.7169 130.003C80.2112 130.298 79.3872 130.298 78.8815 130.003C78.6258 129.855 78.5008 129.662 78.5008 129.474V124.411C78.5008 124.298 78.4383 124.19 78.3417 124.133L74.6595 122.008C74.6595 122.008 74.6539 122.008 74.6539 122.002L74.6425 121.996C74.4777 121.894 74.3811 121.689 74.3811 121.405Z" fill="url(#paint5_linear)"/>
<path d="M68.7556 124.667C68.7556 124.082 69.1647 123.366 69.6761 123.076C69.9319 122.928 70.1648 122.917 70.3353 123.019L74.0856 125.184C74.8471 125.621 75.4721 126.701 75.4721 127.582V132.73C75.4721 132.923 75.3471 133.116 75.0914 133.259C74.5857 133.554 73.7617 133.554 73.256 133.259C73.0003 133.111 72.8753 132.918 72.8753 132.73V127.667C72.8753 127.553 72.8128 127.445 72.7162 127.389L69.034 125.263C69.034 125.263 69.0284 125.263 69.0284 125.258L69.017 125.252C68.8579 125.15 68.7556 124.951 68.7556 124.667Z" fill="url(#paint6_linear)"/>
<path d="M63.1357 127.928C63.1357 127.343 63.5449 126.627 64.0563 126.337C64.312 126.19 64.545 126.178 64.7154 126.281L68.4658 128.446C69.2272 128.883 69.8523 129.963 69.8523 130.844V135.997C69.8523 136.191 69.7273 136.384 69.4716 136.526C68.9658 136.821 68.1419 136.821 67.6362 136.526C67.3804 136.378 67.2554 136.185 67.2554 135.997V130.934C67.2554 130.821 67.1929 130.713 67.0963 130.656L63.4142 128.531C63.4142 128.531 63.4085 128.531 63.4085 128.525L63.3971 128.519C63.2324 128.411 63.1357 128.213 63.1357 127.928Z" fill="url(#paint7_linear)"/>
<g clip-path="url(#clip1)">
<path d="M80.2752 39.085C85.2015 51.3895 79.2137 65.3546 66.9171 70.2765C59.3344 73.309 51.1203 72.2038 44.7897 68.0279C40.8378 65.4309 37.6207 61.6415 35.7319 56.9211C30.8056 44.6166 36.7879 30.6461 49.09 25.7243C53.8148 23.8296 58.7901 23.5519 63.4006 24.619C70.7873 26.334 77.2432 31.5063 80.2752 39.085Z" fill="#B5DEFF"/>
<mask id="mask0" mask-type="alpha" maskUnits="userSpaceOnUse" x="34" y="24" width="48" height="48">
<path d="M80.2752 39.085C85.2015 51.3895 79.2137 65.3546 66.9171 70.2765C59.3344 73.309 51.1203 72.2038 44.7897 68.0279C40.8378 65.4309 37.6207 61.6415 35.7319 56.9211C30.8056 44.6166 36.7879 30.6461 49.09 25.7243C53.8148 23.8296 58.7901 23.5519 63.4006 24.619C70.7873 26.334 77.2432 31.5063 80.2752 39.085Z" fill="#B5DEFF"/>
</mask>
<g mask="url(#mask0)">
<path d="M34.1313 27.5261C33.0318 27.5424 31.6274 27.9344 32.6453 28.5551C33.6632 29.1812 34.3164 29.2356 34.3219 30.0468C34.3273 30.8581 33.7993 31.7074 34.0606 32.2791C34.3219 32.8508 34.7519 33.5204 35.1656 33.3299C35.5847 33.1339 36.7278 31.8599 37.3756 31.9197C38.0288 31.9796 40.2497 32.0776 40.5709 31.3535C40.892 30.6294 41.2186 30.6784 41.7521 29.8726C42.2855 29.0668 42.2529 27.9888 41.6051 27.9834C40.9574 27.9779 40.8703 28.2556 39.787 28.1739C38.7038 28.0977 38.1976 27.3791 37.1415 27.5642C36.091 27.7547 34.937 27.5097 34.1313 27.5261Z" fill="#3A52AA"/>
<path d="M60.9239 46.179L60.9293 46.2443C60.5483 46.4077 60.1782 46.6908 59.9768 47.1862C59.4324 48.5256 59.329 47.9376 58.0498 48.8468C56.7706 49.756 57.2551 50.4693 57.3258 51.3839C57.3966 52.2986 55.9105 53.3276 55.1757 53.6543C54.4463 53.981 54.1197 56.0553 54.3592 57.068C54.5987 58.0752 53.3902 58.489 52.6499 59.4091C51.9096 60.3292 51.4905 61.87 51.006 62.6105C50.527 63.3509 49.6397 63.7919 48.7688 63.6449C47.8924 63.4925 47.0813 62.0442 46.6078 60.7865C46.1342 59.5289 45.9709 58.1351 46.2431 56.7631C46.5152 55.3965 46.4227 55.5653 46.0961 53.4311C45.7695 51.2968 44.2671 50.6544 43.4397 50.4529C42.6123 50.246 41.2515 50.7252 40.5112 50.3005C39.7817 49.8704 39.4606 49.2497 38.9816 47.2352C38.5025 45.2208 39.4932 44.7689 40.2771 43.68C41.0555 42.5911 42.5851 41.4532 43.9623 41.0775C45.334 40.7019 46.2812 41.0612 47.1194 41.4859C47.9632 41.9051 48.3551 42.847 48.9593 42.9123C49.5581 42.9722 50.0752 42.6673 50.674 42.7817C51.2728 42.896 51.6756 43.19 52.2634 43.092C52.8513 42.994 52.4758 42.3189 52.3941 41.9486C52.3125 41.5784 51.779 41.671 51.0768 41.6655C50.3746 41.6655 50.195 41.4695 49.95 41.0013C49.6996 40.5331 49.2968 40.9414 48.9593 40.7509C48.6218 40.5603 48.6871 41.4205 48.6599 41.7526C48.6327 42.0848 48.3714 41.4968 48.3714 41.4968C48.3714 41.4968 48.0829 41.9486 47.9577 41.7418C47.838 41.5349 48.121 41.0285 48.0829 40.5167C48.0448 40.005 47.2991 40.1247 46.8364 39.7273C46.3737 39.3299 45.7259 39.2754 45.0891 39.4877C44.4576 39.7001 44.3379 39.5476 44.0603 40.103C43.7772 40.6638 42.4055 41.0394 41.9646 40.9686C41.5291 40.8924 41.8339 40.005 42.2095 39.221C42.5796 38.437 43.3526 38.6983 43.8371 37.9088C44.3161 37.1194 43.6629 37.0051 43.2165 36.8798C42.7756 36.7492 42.6341 36.3299 43.0968 35.3227C43.5595 34.3155 44.1746 34.5932 44.425 35.0614C44.6754 35.5296 45.2306 35.7583 45.8294 35.7637C46.4227 35.7746 46.2812 35.3554 46.2703 34.4897C46.2594 33.624 46.6568 33.1667 47.4406 32.8346C48.2245 32.5025 49.5363 31.9744 50.0371 31.5007C50.5379 31.027 51.4252 31.3374 51.8988 31.8437C52.3723 32.3446 53.4066 32.5351 54.5061 32.7203C54.8164 32.7747 55.0668 32.6495 55.2791 32.4644C58.4526 36.1829 60.5211 40.9196 60.9239 46.179Z" fill="#2D3192"/>
<path d="M56.4279 57.9882C55.8454 57.8902 55.8944 58.0807 55.5514 58.5435C55.2084 59.0009 54.7075 59.5235 54.8 60.0026C54.8926 60.4818 54.9362 61.0698 55.339 60.7159C55.7419 60.362 55.6058 59.9373 56.1775 59.6814C56.7546 59.4201 57.3045 58.1406 56.4279 57.9882Z" fill="#3A52AA"/>
<path d="M83.4445 27.8094C82.198 28.4736 79.5797 29.4809 78.3658 29.1379C77.7616 28.9691 77.0431 28.7295 76.281 28.5825C71.6541 31.9472 68.3119 36.918 67 42.6021C67.3048 43.2282 67.675 43.8053 68.0832 44.279C69.0358 45.3951 70.0156 45.5366 71.2186 45.7708C72.4271 46.0049 72.046 46.68 72.6394 47.3878C73.2327 48.0955 73.4831 48.5093 74.1581 48.8904C74.833 49.2716 73.9186 49.9848 73.6518 50.7633C73.3851 51.5365 73.3089 51.9775 73.8641 53.5509C74.4139 55.1298 76.0251 56.4093 76.5042 57.0191C76.9832 57.6288 76.1721 58.3421 76.379 59.6215C76.5858 60.901 76.5205 64.2983 77.7453 66.2093C78.97 68.1204 79.7049 67.8971 79.6069 66.6068C79.5089 65.3164 79.0898 64.1023 79.8355 63.1332C80.5813 62.1641 82.0946 62.4254 82.6062 60.656C83.1179 58.892 83.45 58.9736 84.2665 58.3693C85.083 57.765 84.7183 57.2532 85.4803 55.8866C86.2424 54.52 86.4656 53.2351 85.3388 52.6689C84.2175 52.1081 83.4663 52.1626 82.5028 50.8341C81.5393 49.5057 80.0369 48.2153 78.638 47.4585C77.2445 46.7018 75.029 47.6273 74.1417 47.366C73.2599 47.1101 72.6992 45.4278 72.7537 44.7744C72.8136 44.1211 72.1549 43.9577 71.518 44.1156C70.8811 44.2735 70.5273 43.8652 70.3531 43.0158C70.1789 42.1665 71.5017 41.0939 72.574 41.0068C73.6464 40.9252 74.2234 41.4206 74.4357 42.809C74.648 44.1973 75.5679 44.8833 76.5586 45.1283C77.5493 45.3788 76.9288 44.3443 76.2266 43.642C75.5244 42.9396 75.4754 42.2972 76.0034 40.7455C76.5314 39.1938 77.8378 39.3082 78.8067 37.8817C79.7757 36.4498 79.9662 37.5278 80.946 37.6694C81.9258 37.8109 81.7788 37.2828 82.1435 36.3899C82.5082 35.5025 83.7548 36.2647 84.7781 35.5406C85.8015 34.8165 83.6622 33.684 83.8038 32.6985C83.9453 31.7185 84.9197 31.7512 84.3753 30.2812C83.831 28.8112 84.5822 28.7513 84.9687 28.2068C85.3769 27.6787 84.691 27.1452 83.4445 27.8094ZM81.9966 31.4028C81.6754 32.1323 81.3923 31.9908 80.8643 32.7857C80.3309 33.586 79.5035 34.0216 78.9646 34.0923C78.4311 34.1577 77.5439 33.2049 77.5003 32.6169C77.4568 32.0289 78.3059 31.8547 79.2694 31.7294C80.2329 31.5988 81.0549 31.185 81.9258 30.499C82.6171 29.9491 82.3177 30.6786 81.9966 31.4028Z" fill="#2D3192"/>
<path opacity="0.4" d="M64.2491 26.7368C48.9694 22.3268 46.1171 32.7421 54.2114 39.3081C62.3112 45.8742 76.1919 48.0356 78.059 43.7073C79.9315 39.3789 75.6094 30.0144 64.2491 26.7368Z" fill="white"/>
<path opacity="0.15" d="M51.495 60.0243C39.623 50.2787 39.9877 31.3591 50.4009 25.245C49.96 25.392 49.5245 25.5499 49.0836 25.7241C36.7815 30.6514 30.7992 44.6219 35.7255 56.921C37.6144 61.6414 40.8314 65.4307 44.7833 68.0277C51.114 72.2036 59.3335 73.3089 66.9107 70.2763C73.1271 67.7882 77.7268 62.9916 80.1219 57.264C76.7742 61.9245 63.3616 69.7645 51.495 60.0243Z" fill="#344593"/>
</g>
</g>
<path opacity="0.3" d="M59.8679 20.5351C59.0576 20.9972 58.1151 21.1615 57.0692 21.1307C57.0519 21.1307 57.0404 21.1307 57.0232 21.1307C57.0347 21.1307 57.0519 21.1307 57.0634 21.1307V147.746C57.6841 147.746 58.3162 147.592 58.9312 147.242L98.5902 126.784C99.3258 126.42 99.6821 126.101 99.6821 125.655V0L59.8679 20.5351Z" fill="url(#paint8_linear)"/>
<path opacity="0.5" d="M56.9838 21.1307C56.748 21.1359 56.518 21.1256 56.2935 21.1051C56.2766 21.1051 56.2654 21.0999 56.2486 21.0999C56.0241 21.0794 55.8052 21.0434 55.5976 21.0024C55.4573 20.9715 55.3226 20.9253 55.1879 20.8894C55.1037 20.8637 55.0139 20.8483 54.9354 20.8175C54.7221 20.7405 54.5089 20.6532 54.3068 20.5505L15.4045 0V125.655C15.4214 126.06 15.702 126.374 16.1565 126.615L55.2048 147.242C55.8389 147.628 56.3833 147.73 56.9725 147.741C56.9894 147.741 57.0062 147.746 57.023 147.746V21.1307C57.0062 21.1307 56.995 21.1307 56.9838 21.1307Z" fill="url(#paint9_linear)"/>
<path d="M113.662 116.837C113.799 118.046 115.247 123.26 114.937 125.054C114.627 126.84 109.701 129.828 109.701 129.828L109.017 126.768L111.747 124.096L111.012 119.026L113.662 116.837Z" fill="#FFA8A7"/>
<path d="M109.846 110.974C110.551 110.672 111.862 110.6 112.59 111.803C113.317 113.005 114.066 117.125 114.138 117.83C114.138 117.83 113.122 119.235 111.596 119.004L109.846 110.974Z" fill="#E4F2F2"/>
<path d="M110.537 166.412C110.537 166.412 110.595 166.945 110.753 167.622C110.883 168.148 110.904 168.825 110.321 169.019C109.73 169.206 109.061 169.149 108.679 168.638C108.211 168.004 107.959 167.212 107.282 166.592C106.627 166.002 105.813 165.332 105.582 164.389C105.366 163.539 105.503 163.006 106.086 162.919C106.821 162.811 107.988 163.431 108.585 163.87C109.017 164.18 110.537 166.412 110.537 166.412Z" fill="#2D2979"/>
<path d="M103.796 168.882C103.796 168.882 103.84 169.559 103.883 170.099C103.926 170.64 104.113 171.497 103.94 171.9C103.768 172.296 102.882 172.591 101.838 172.584C101.161 172.577 99.8499 173.102 99.3818 173.506C98.7192 174.082 97.1925 174.312 96.2995 174.031C95.3993 173.751 94.4055 173.333 94.2542 172.922C94.103 172.512 94.5711 172.303 96.7604 171.302C98.9497 170.301 100.563 169.61 101.413 168.45L103.796 168.882Z" fill="#2D2979"/>
<path d="M111.07 154.775C110.695 151.908 110.105 150.209 110.105 150.209C110.105 150.209 110.393 146.269 110.537 142.532C110.703 138.29 112.172 134.56 111.012 131.175L97.927 134.084C97.927 134.084 98.7192 150.994 98.892 153.039C98.9856 154.148 99.0216 155.257 99.4825 157.785C100.08 161.069 101.052 168.875 101.052 168.875C102.435 169.682 103.804 168.882 103.804 168.882C103.804 168.882 104.156 159.362 104.063 156.993C103.955 154.105 103.868 154.328 103.868 154.328L104.3 147.134L104.581 143.554C104.581 143.554 104.941 146.183 105.179 148.531C105.388 150.576 105.878 152.427 106.432 156.236C106.907 159.542 108.16 166.348 108.16 166.348C109.543 167.154 110.544 166.427 110.544 166.427C110.544 166.427 111.437 157.641 111.07 154.775Z" fill="#C4D9FF"/>
<path d="M104.574 143.555C104.574 143.555 104.934 146.183 105.171 148.531C105.272 149.517 105.438 150.461 105.647 151.592C105.647 151.592 105.46 147.22 105.532 145.153C105.604 143.086 105.812 140.854 105.812 140.854C108.563 139.687 109.132 138.009 109.132 138.009C107.094 139.752 104.941 140.285 104.941 140.285L104.574 143.555Z" fill="#9EBCE8"/>
<path d="M109.154 111.046C108.16 111.097 107.419 111.349 107.289 111.061C107.188 110.83 107.066 109.505 107.059 109.505C107.174 109.217 107.275 108.907 107.275 108.907C108.528 108.137 109.421 106.833 109.586 105.263C109.867 102.57 107.908 100.165 105.222 99.8838C102.694 99.6173 100.829 101.396 100.332 103.845C100.066 105.047 99.7057 107.611 100.426 109.592C100.829 110.701 101.175 111.19 101.693 111.363C101.873 111.399 102.838 111.378 103.191 111.342C103.191 111.342 103.328 112.09 103.415 112.566C103.508 113.048 103.472 113.3 102.514 113.891C101.557 114.481 103.962 115.691 105.525 115.569C107.095 115.446 108.859 114.503 109.341 113.488C109.889 112.35 109.838 111.01 109.154 111.046Z" fill="#FFA8A7"/>
<path d="M102.514 113.877C102.478 113.898 102.464 113.92 102.435 113.941L103.803 114.409L107.851 113.783L108.794 111.37C108.794 111.37 108.758 111.255 108.7 111.082C107.937 111.162 107.397 111.306 107.289 111.053C107.217 110.881 107.123 110.081 107.08 109.7C106.353 109.829 105.496 109.98 105.287 109.988C104.912 110.002 103.623 108.101 103.623 108.101C103.623 108.101 103.443 109.692 103.27 110.132C103.098 110.571 101.916 111.255 101.484 111.248C101.549 111.284 101.614 111.313 101.686 111.342C101.866 111.378 102.831 111.356 103.184 111.32C103.184 111.32 103.321 112.069 103.407 112.544C103.508 113.034 103.472 113.286 102.514 113.877Z" fill="#F28F8F"/>
<path d="M109.615 102.196C109.493 101.612 109.082 100.856 105.935 99.9702C102.925 99.1277 100.57 98.7676 99.9866 99.1565C99.4105 99.5453 99.2664 102.52 102.111 103.938C102.226 104.154 102.298 104.406 102.298 104.752C102.298 105.213 102.248 105.58 102.298 106.084C102.37 106.797 103.134 106.848 103.134 106.848C103.134 106.848 103.141 106.437 103.141 105.587C103.407 104.997 104.437 104.846 104.812 105.667C105.186 106.488 104.977 107.172 104.718 107.669C104.387 108.295 103.825 108.346 103.638 108.122C103.638 108.835 103.775 109.901 104.574 110.801C105.64 111.104 106.691 110.643 107.152 110.24C107.267 109.923 107.635 109.347 108.11 108.583C108.693 107.654 109.298 107.049 109.622 105.544C109.91 104.162 109.846 103.326 109.615 102.196Z" fill="#3A2C6D"/>
<path d="M107.714 111.198C107.987 111.889 107.289 112.724 105.416 113.315C103.544 113.905 103.378 113.149 103.378 113.149C103.378 113.149 100.635 114.402 99.7416 115.022C98.6182 115.807 98.1213 118.082 97.97 121.914C97.7972 126.357 97.7828 132.939 97.9268 134.077C97.9268 134.077 100.03 136.173 102.716 135.949C105.402 135.726 109.925 133.35 111.019 131.513C110.991 127.617 110.537 126.983 111.163 124.744C112.604 119.609 113.367 117.506 112.668 114.093C112.092 111.277 111.279 110.931 110.17 110.96C109.046 110.989 107.714 111.198 107.714 111.198Z" fill="#F5FBFB"/>
<path d="M107.231 110.816C106.842 111.306 105.489 112.379 103.393 112.436C102.99 112.372 102.766 113.149 102.536 113.538C102.536 113.538 103.479 114.309 105.575 113.776C107.671 113.243 108.412 111.702 108.232 111.126C108.232 111.126 107.563 110.391 107.231 110.816Z" fill="#E4F2F2"/>
<path d="M93.7427 126.307C95.9464 126.861 96.4649 125.471 96.7529 124.319C97.4515 121.532 97.8332 119.011 98.3517 117.434C98.9638 115.569 99.612 115.274 100.519 114.906C101.585 114.482 102.5 115.382 102.147 117.751C101.729 120.56 101.175 122.533 100.123 125.86C99.8497 126.724 99.2303 128.273 98.3157 129.014C97.1779 129.936 95.4639 129.893 92.8713 129.252C91.7623 128.978 90.5524 128.316 88.4639 127.344C87.9022 127.084 87.4629 126.904 86.3899 126.407C85.3096 125.903 84.1934 125.068 83.6245 124.247C83.0555 123.426 82.9835 123.044 83.0987 122.857C83.2428 122.619 83.502 122.677 83.7973 123.015C84.0998 123.361 84.5391 123.98 85.3816 124.485C85.3816 124.485 84.6831 123.764 84.3086 123.296C83.9341 122.828 83.6389 122.317 83.4732 121.935C83.2716 121.46 83.6821 120.812 83.9989 121.15C84.3158 121.489 84.4598 121.834 85.0288 122.519C85.5473 123.138 86.0514 123.491 86.0514 123.491C86.0514 123.491 85.4753 122.713 85.108 121.978C84.7479 121.237 84.7479 120.862 84.7623 120.61C84.7767 120.358 85.1296 120.063 85.4609 120.538C85.7561 120.963 85.9506 121.625 86.6419 122.346C87.146 122.871 87.5709 123.167 87.5853 123.023C87.5997 122.879 87.2829 122.591 87.1028 121.986C86.93 121.402 87.11 120.732 87.4413 120.66C87.7726 120.588 87.715 120.61 87.9814 121.179C88.2479 121.748 88.6656 122.173 88.9824 123.001C89.2633 123.736 89.3857 124.031 89.8898 124.564C90.4444 125.14 91.647 125.774 93.7427 126.307Z" fill="#FFA8A7"/>
<path d="M101.34 114.525C99.8714 114.309 98.8271 114.971 98.179 117.204C97.5308 119.436 97.0771 121.265 97.0771 121.265C97.0771 121.265 97.7829 122.475 99.5401 122.907C101.304 123.332 101.938 122.49 101.938 122.49C101.938 122.49 102.428 120.149 102.73 118.558C103.033 116.966 103.163 114.791 101.34 114.525Z" fill="#E4F2F2"/>
<path d="M13.4019 172.642C13.4019 172.642 13.1786 173.031 11.9687 172.527C10.7589 172.023 10.4204 171.418 10.4204 171.418C10.4204 171.418 10.7373 168.998 11.479 169.603C12.228 170.208 13.4019 172.642 13.4019 172.642Z" fill="#291D51"/>
<path d="M10.3702 164.166C10.3918 165.433 10.4206 166.405 9.93808 167.089C9.45557 167.774 9.41235 168.234 9.41235 168.234C9.41235 168.234 10.8455 168.436 11.5728 169.423C12.3002 170.409 12.2642 171.396 12.9339 171.562C13.6109 171.727 14.7416 170.949 14.7416 170.949C14.7416 170.949 14.0286 170.921 13.7477 170.02C13.4669 169.12 12.7467 167.205 12.7251 166.7C12.6963 166.196 12.7251 164.245 12.7251 164.245L10.3702 164.166Z" fill="#FFA8A7"/>
<path d="M10.3556 167.413C10.9821 167.449 11.94 168.148 12.2568 168.875C12.5737 169.596 13.1066 170.618 13.5099 170.841C13.9132 171.072 14.6334 170.741 15.2455 170.733C15.8576 170.733 16.2897 171.014 16.3257 171.461C16.3257 171.461 14.3597 172.39 13.7692 172.671C13.1786 172.951 12.6817 172.959 12.2208 171.734C11.7599 170.51 11.5799 169.826 11.2126 170.654C10.8453 171.49 10.6941 173.355 10.6941 173.355C10.6941 173.355 10.19 173.542 9.95231 173.045C9.95231 173.045 9.96672 172.166 9.86589 171.41C9.75787 170.661 9.08093 169.711 9.13134 168.803C9.18175 167.903 9.67865 167.37 10.3556 167.413Z" fill="#2D2979"/>
<path d="M22.9076 177.546C22.9076 177.546 22.6771 177.95 21.4313 177.424C20.1854 176.898 19.8325 176.279 19.8325 176.279C19.8325 176.279 20.1566 173.773 20.9272 174.406C21.6977 175.04 22.9076 177.546 22.9076 177.546Z" fill="#291D51"/>
<path d="M19.7752 168.775C19.7968 170.086 19.8328 171.094 19.3287 171.8C18.8318 172.505 18.7886 172.981 18.7886 172.981C18.7886 172.981 20.2721 173.189 21.0283 174.212C21.7844 175.235 21.7412 176.257 22.4398 176.423C23.1383 176.589 24.305 175.789 24.305 175.789C24.305 175.789 23.5632 175.76 23.2752 174.831C22.9871 173.902 22.2453 171.922 22.2165 171.396C22.1877 170.878 22.0941 168.775 22.0941 168.775H19.7752Z" fill="#FFA8A7"/>
<path d="M19.7608 172.145C20.4089 172.188 21.3955 172.908 21.7268 173.657C22.0581 174.406 22.6054 175.458 23.0231 175.688C23.4408 175.926 24.1898 175.58 24.8235 175.573C25.4572 175.573 25.9037 175.861 25.9397 176.322C25.9397 176.322 23.9089 177.287 23.2967 177.575C22.6846 177.863 22.1733 177.87 21.698 176.61C21.2227 175.343 21.0355 174.63 20.661 175.494C20.2793 176.358 20.1209 178.288 20.1209 178.288C20.1209 178.288 19.6023 178.482 19.3503 177.964C19.3503 177.964 19.3647 177.056 19.2567 176.272C19.1486 175.494 18.4429 174.514 18.4933 173.578C18.5509 172.649 19.0622 172.102 19.7608 172.145Z" fill="#2D2979"/>
<path d="M9.74351 112.055C8.59846 112.386 7.9431 113.654 6.93488 116.369C5.92665 119.084 4.87523 123.044 5.01206 124.089C5.33614 126.645 6.92768 128.835 9.66428 130.649L10.8886 128.41C10.8886 128.41 8.20237 126.249 7.94312 123.685C7.79908 122.245 9.66428 117.355 9.66428 117.226C9.66428 117.096 9.74351 112.055 9.74351 112.055Z" fill="#FFA8A7"/>
<path d="M8.87929 156.496C8.87929 154.141 9.41941 152.564 9.41941 152.564C9.41941 152.564 8.44001 147.732 8.07993 144.016C7.54701 138.528 6.57477 137.21 7.45337 133.962C8.25995 130.966 9.53464 128.878 10.3916 126.775L19.3504 127.481C19.3504 127.481 20.1282 130.023 21.1364 135.078C22.1446 140.134 22.5983 146.111 22.5047 154.083C22.4759 156.136 22.4615 157.972 22.3391 163.093C22.2599 166.535 22.2166 171.166 22.2166 171.166C20.8339 171.972 19.6673 171.058 19.6673 171.058C19.6673 171.058 17.55 160.853 17.2043 158.505C16.8515 156.086 17.514 154.638 17.514 154.638C17.514 154.638 16.8443 151.433 16.3402 148.913C15.728 145.845 14.2229 139.205 14.2229 139.205C14.2229 139.205 14.1797 149.359 14.0356 151.412C13.8916 153.464 13.978 155.099 13.5963 157.828C13.1354 161.134 12.7249 166.701 12.7249 166.701C11.2918 167.046 10.2764 166.269 10.2764 166.269C10.2764 166.269 8.87929 159.391 8.87929 156.496Z" fill="#7FA8E6"/>
<path d="M14.2229 139.205C14.2229 139.205 14.1797 149.359 14.0356 151.412C14.0212 151.671 13.9996 151.894 13.9852 152.11V152.125C13.9852 152.161 13.978 152.197 13.978 152.233L12.9338 140.357C10.0459 139.529 9.13135 137.592 9.13135 137.592C11.0758 139.543 14.2229 139.205 14.2229 139.205Z" fill="#597BC6"/>
<path d="M10.2692 112.005C12.1776 111.889 12.3576 112.206 12.5161 111.529C12.5737 111.284 12.6745 109.606 12.6745 109.606C12.5089 109.426 12.1992 108.901 12.1992 108.901C10.9461 108.13 10.0531 106.827 9.88749 105.257C9.60663 102.563 11.5583 100.158 14.2517 99.877C16.7794 99.6106 18.6446 101.389 19.1415 103.831C19.408 105.033 19.6889 107.503 18.9399 109.477C18.515 110.593 18.1261 111.378 17.1107 111.335C16.9234 111.328 16.5562 111.263 16.1169 111.155C16.0809 111.515 16.0377 112.062 16.0593 112.559C16.0881 113.049 16.0017 113.294 16.9595 113.884C17.9173 114.475 15.5119 115.685 13.9492 115.562C12.3793 115.44 10.6149 114.496 10.1323 113.481C9.59222 112.35 9.36898 112.062 10.2692 112.005Z" fill="#FFA8A7"/>
<path d="M10.1325 113.481C9.59238 112.35 9.37634 112.062 10.2765 112.005C12.185 111.889 12.365 112.206 12.5234 111.529C12.581 111.284 12.6819 109.606 12.6819 109.606C12.5162 109.426 12.2066 108.901 12.2066 108.901C11.5224 108.476 10.9463 107.892 10.5358 107.187C10.6006 107.122 10.651 107.079 10.651 107.079L14.7271 109.182L15.4833 109.016L16.0882 108.332C16.0882 108.332 16.1818 109.513 16.3691 110.046C16.5491 110.579 17.7806 111.191 17.795 111.198C17.6078 111.292 17.3845 111.335 17.1253 111.328C16.938 111.32 16.5707 111.256 16.1314 111.148C16.0954 111.508 16.0522 112.055 16.0738 112.552C16.1026 113.042 16.0162 113.286 16.974 113.877C17.9318 114.468 15.5265 115.677 13.9638 115.555C12.3794 115.44 10.615 114.496 10.1325 113.481Z" fill="#F28F8F"/>
<path d="M11.6663 109.066C10.442 107.943 10.0531 106.834 9.88748 105.257C9.60662 102.563 11.5582 100.158 14.2516 99.8771C15.9944 99.697 17.4203 100.482 18.3061 101.793C18.3061 101.793 18.1261 102.16 17.8453 102.426C17.8453 102.426 18.0685 103.053 17.6724 103.492C17.3915 103.809 17.3051 104.263 17.3699 104.681C17.442 105.141 17.4924 105.71 17.442 106.207C17.3699 106.92 16.7074 107.237 16.7074 107.237C16.7074 107.237 16.6138 106.157 16.3401 105.566C16.0737 104.976 15.0438 104.825 14.6693 105.646C14.2949 106.467 14.4461 107.107 14.835 107.784C15.1878 108.397 15.7496 108.44 16.0809 108.332C16.1601 108.605 16.0665 109.534 15.0078 109.83C13.942 110.132 12.9554 109.851 12.408 109.57C12.0768 109.419 11.6663 109.066 11.6663 109.066Z" fill="#543354"/>
<path d="M17.1035 100.569C17.7733 100.439 19.6529 100.821 19.6385 102.787C19.6241 104.385 18.5654 105.516 17.1827 105.898L17.1035 100.569Z" fill="#543354"/>
<path d="M12.1632 111.968C11.8103 112.408 11.7743 112.962 13.1354 113.301C14.9142 113.747 16.1168 113.07 16.1168 113.07C16.1168 113.07 17.9533 113.834 19.1991 114.705C22.2454 116.822 22.98 120.495 19.9049 121.755C19.7176 123.138 19.4872 126.689 19.4296 127.495C16.8298 129.31 11.5582 128.691 10.37 126.768C10.3556 126.112 10.2332 125.011 10.1899 124.845C8.95127 120.25 7.97906 119.026 8.32473 115.562C8.51918 113.582 8.6776 112.581 9.72903 112.048C10.3772 111.86 11.7815 111.94 12.1632 111.968Z" fill="#F5FBFB"/>
<path d="M16.7506 113.358C16.7506 113.358 16.4337 112.501 16.3617 112.292C16.2897 112.091 16.052 112.055 16.052 112.055C16.052 112.055 15.6991 112.494 14.5541 112.372C13.409 112.256 12.5016 111.738 12.5377 111.327L12.5664 111.068C12.5664 111.068 12.2424 111.011 12.0119 111.255C11.7815 111.5 11.443 111.947 11.443 111.947C11.443 111.947 11.2558 112.89 12.7897 113.459C14.3236 114.042 15.7207 113.812 16.7506 113.358Z" fill="#E4F2F2"/>
<path d="M31.2331 135.842C30.6065 135.748 30.1024 135.438 29.2166 135.374C28.4316 135.323 27.9275 135.258 27.2362 135.014C26.552 134.769 25.7454 133.905 24.4852 132.169C23.0016 130.124 21.871 127.077 21.5685 125.695C20.906 122.713 20.6251 118.565 20.6323 117.11C20.6323 115.368 19.8401 114.676 18.9255 114.331C17.8525 113.927 17.1035 114.302 17.1827 116.7C17.262 119.098 17.6653 123.52 18.6087 126.653C19.0624 128.172 19.8833 130.513 21.7846 133.156C23.1097 134.999 23.6138 135.568 25.3133 137.066C25.7742 137.477 26.0191 137.894 26.8113 138.78C27.6034 139.666 28.7341 140.494 29.6847 140.796C30.6281 141.099 31.0242 141.056 31.1682 140.89C31.3483 140.681 31.2259 140.451 30.8082 140.264C30.3905 140.076 29.6703 139.831 28.943 139.176C28.943 139.176 29.8359 139.63 30.3905 139.86C30.945 140.083 31.5211 140.22 31.9388 140.264C32.4501 140.314 32.9542 139.731 32.5365 139.536C32.1188 139.335 31.7444 139.299 30.9234 138.946C30.1744 138.629 29.6919 138.254 29.6919 138.254C29.6919 138.254 30.5993 138.586 31.4131 138.715C32.2269 138.845 32.5869 138.73 32.8246 138.643C33.0623 138.557 33.2423 138.132 32.6878 137.952C32.1981 137.793 31.5067 137.801 30.6137 137.347C29.9656 137.016 29.5551 136.699 29.6919 136.641C29.8287 136.584 30.196 136.807 30.8298 136.8C31.4347 136.792 32.0252 136.432 31.9964 136.094C31.9676 135.755 31.8524 135.935 31.2331 135.842Z" fill="#FFA8A7"/>
</g>
<defs>
<linearGradient id="paint0_linear" x1="28.2723" y1="121.693" x2="34.9832" y2="121.693" gradientUnits="userSpaceOnUse">
<stop stop-color="#C8E2FF"/>
<stop offset="0.1783" stop-color="#C2DEFC"/>
<stop offset="0.4099" stop-color="#B2D1F4"/>
<stop offset="0.671" stop-color="#97BCE7"/>
<stop offset="0.9518" stop-color="#729FD5"/>
<stop offset="1" stop-color="#6B99D1"/>
</linearGradient>
<linearGradient id="paint1_linear" x1="33.8953" y1="124.954" x2="40.6062" y2="124.954" gradientUnits="userSpaceOnUse">
<stop stop-color="#C8E2FF"/>
<stop offset="0.1783" stop-color="#C2DEFC"/>
<stop offset="0.4099" stop-color="#B2D1F4"/>
<stop offset="0.671" stop-color="#97BCE7"/>
<stop offset="0.9518" stop-color="#729FD5"/>
<stop offset="1" stop-color="#6B99D1"/>
</linearGradient>
<linearGradient id="paint2_linear" x1="39.5183" y1="128.215" x2="46.2289" y2="128.215" gradientUnits="userSpaceOnUse">
<stop stop-color="#C8E2FF"/>
<stop offset="0.1783" stop-color="#C2DEFC"/>
<stop offset="0.4099" stop-color="#B2D1F4"/>
<stop offset="0.671" stop-color="#97BCE7"/>
<stop offset="0.9518" stop-color="#729FD5"/>
<stop offset="1" stop-color="#6B99D1"/>
</linearGradient>
<linearGradient id="paint3_linear" x1="45.1409" y1="131.476" x2="51.8517" y2="131.476" gradientUnits="userSpaceOnUse">
<stop stop-color="#C8E2FF"/>
<stop offset="0.1783" stop-color="#C2DEFC"/>
<stop offset="0.4099" stop-color="#B2D1F4"/>
<stop offset="0.671" stop-color="#97BCE7"/>
<stop offset="0.9518" stop-color="#729FD5"/>
<stop offset="1" stop-color="#6B99D1"/>
</linearGradient>
<linearGradient id="paint4_linear" x1="86.7149" y1="121.693" x2="80.0043" y2="121.693" gradientUnits="userSpaceOnUse">
<stop stop-color="#C8E2FF"/>
<stop offset="0.1783" stop-color="#C2DEFC"/>
<stop offset="0.4099" stop-color="#B2D1F4"/>
<stop offset="0.671" stop-color="#97BCE7"/>
<stop offset="0.9518" stop-color="#729FD5"/>
<stop offset="1" stop-color="#6B99D1"/>
</linearGradient>
<linearGradient id="paint5_linear" x1="81.0919" y1="124.954" x2="74.3813" y2="124.954" gradientUnits="userSpaceOnUse">
<stop stop-color="#C8E2FF"/>
<stop offset="0.1783" stop-color="#C2DEFC"/>
<stop offset="0.4099" stop-color="#B2D1F4"/>
<stop offset="0.671" stop-color="#97BCE7"/>
<stop offset="0.9518" stop-color="#729FD5"/>
<stop offset="1" stop-color="#6B99D1"/>
</linearGradient>
<linearGradient id="paint6_linear" x1="75.469" y1="128.215" x2="68.7584" y2="128.215" gradientUnits="userSpaceOnUse">
<stop stop-color="#C8E2FF"/>
<stop offset="0.1783" stop-color="#C2DEFC"/>
<stop offset="0.4099" stop-color="#B2D1F4"/>
<stop offset="0.671" stop-color="#97BCE7"/>
<stop offset="0.9518" stop-color="#729FD5"/>
<stop offset="1" stop-color="#6B99D1"/>
</linearGradient>
<linearGradient id="paint7_linear" x1="69.8465" y1="131.476" x2="63.1354" y2="131.476" gradientUnits="userSpaceOnUse">
<stop stop-color="#C8E2FF"/>
<stop offset="0.1783" stop-color="#C2DEFC"/>
<stop offset="0.4099" stop-color="#B2D1F4"/>
<stop offset="0.671" stop-color="#97BCE7"/>
<stop offset="0.9518" stop-color="#729FD5"/>
<stop offset="1" stop-color="#6B99D1"/>
</linearGradient>
<linearGradient id="paint8_linear" x1="105.5" y1="170" x2="32.6442" y2="20.3582" gradientUnits="userSpaceOnUse">
<stop stop-color="#FF931E"/>
<stop offset="1" stop-color="#FF931E" stop-opacity="0"/>
</linearGradient>
<linearGradient id="paint9_linear" x1="35.9999" y1="167" x2="36.693" y2="56.8722" gradientUnits="userSpaceOnUse">
<stop stop-color="#FF931E"/>
<stop offset="1" stop-color="#FF931E" stop-opacity="0"/>
</linearGradient>
<clipPath id="clip0">
<rect width="130" height="180" fill="white"/>
</clipPath>
<clipPath id="clip1">
<rect width="48" height="48" fill="white" transform="translate(34 24)"/>
</clipPath>
</defs>
</svg>
