<svg width="130" height="190" viewBox="0 0 130 190" fill="none" xmlns="http://www.w3.org/2000/svg">
<path d="M46.5123 58.4122C45.544 58.479 44.6758 58.1785 43.3179 58.3788C42.1158 58.5569 41.3367 58.6348 40.2126 58.5013C39.0884 58.3566 36.0164 56.0192 33.5455 53.8265C30.6182 51.2331 27.9803 47.3041 27.2123 45.2561C25.9101 41.7946 23.9066 34.6489 22.9605 32.2448C22.0256 29.8517 20.8012 29.3843 19.2986 29.1839C17.5401 28.9391 16.4159 29.6291 17.3286 33.2242C18.2524 36.8193 20.267 43.6868 22.7379 48.0944C23.94 50.2314 26.1438 53.4926 29.8836 56.8428C32.4992 59.1802 34.9256 60.5492 37.9976 62.2411C38.8324 62.7085 39.3444 63.2539 40.8359 64.3224C42.3273 65.391 44.3085 66.2702 45.8445 66.4038C47.3694 66.5485 47.9482 66.3482 48.1151 66.0588C48.3155 65.6803 48.0595 65.3798 47.3694 65.2351C46.6793 65.0904 45.5106 64.968 44.1861 64.2111C44.1861 64.2111 45.6776 64.6007 46.6014 64.7565C47.5141 64.9123 48.4268 64.9235 49.0723 64.8456C49.8626 64.7565 50.4191 63.7103 49.729 63.5433C49.0278 63.3764 48.449 63.4431 47.1023 63.1983C45.8668 62.9757 45.0097 62.5638 45.0097 62.5638C45.0097 62.5638 46.4901 62.7531 47.7589 62.6863C49.0278 62.6084 49.5398 62.319 49.8626 62.1075C50.1854 61.896 50.3189 61.1948 49.4285 61.1169C48.6271 61.039 47.592 61.2839 46.0894 60.8943C44.9986 60.616 44.2752 60.271 44.4644 60.1374C44.6536 60.015 45.2769 60.2153 46.2341 60.0039C47.1468 59.7924 47.9148 59.0466 47.7589 58.5458C47.6031 58.0449 47.4918 58.3454 46.5123 58.4122Z" fill="#FFA8A7"/>
<path d="M23.6952 33.5027C23.0942 31.5326 22.6378 30.5866 21.4469 29.7629C20.2559 28.9281 19.2431 28.9949 19.2431 28.9949L16.6942 40.2811L19.2431 46.0689C23.2611 47.0929 26.6002 42.8299 26.6002 42.8299C26.6002 42.8299 24.2406 35.3281 23.6952 33.5027Z" fill="#E4F2F2"/>
<path d="M10.2386 118.049C10.2386 118.049 9.98257 119.006 9.63753 119.774C9.30362 120.542 8.91405 121.833 8.9697 122.501C9.01422 123.169 10.4055 124.315 11.4073 124.604C12.409 124.894 13.8337 126.218 14.3011 127.042C14.969 128.222 17.0726 129.335 18.5307 129.391C19.9888 129.435 21.6472 129.346 22.0813 128.812C22.5154 128.289 22.1258 127.565 19.4434 124.983C16.7609 122.401 14.9467 120.809 14.3011 118.683L10.2386 118.049Z" fill="#2D2979"/>
<path d="M2.98159 125.985C2.66994 126.797 2.05778 127.254 2.23586 129.402C2.40282 131.55 2.2136 132.407 2.00212 134.154C1.79064 135.913 2.68106 138.317 3.52697 139.43C4.36175 140.554 6.66573 140.788 7.3892 138.796C8.11268 136.803 8.29077 135.123 7.77877 133.119C7.26678 131.116 7.94573 129.591 7.61182 128.244C7.27791 126.897 6.7993 125.985 6.7993 125.985H2.98159Z" fill="#2D2979"/>
<path d="M2.9816 70.6892C3.05951 72.9375 3.74959 82.71 4.07237 87.8745C4.38402 93.0501 4.84037 99.0605 4.84037 99.0605C4.84037 99.0605 3.56038 103.145 2.9816 107.575C2.40282 112.005 2.9816 125.974 2.9816 125.974C2.9816 125.974 4.65115 127.22 6.78818 125.974C6.78818 125.974 9.41495 113.663 10.5168 108.621C11.6188 103.579 12.7652 101.197 12.9766 98.0253C13.1993 94.8532 14.3123 77.2672 14.3123 77.2672L14.9133 77.3006L16.3714 93.384C16.3714 93.384 14.4347 96.4893 13.6111 99.6504C12.7986 102.823 10.2274 118.038 10.2274 118.038C10.2274 118.038 12.0306 120.063 14.3012 118.683C14.3012 118.683 23.2388 98.2368 24.0625 96.2222C24.875 94.2076 23.6952 65.3689 23.6952 65.3689L2.9816 70.6892Z" fill="#7FA8E6"/>
<path d="M14.3346 77.2782C14.3346 77.2782 18.386 75.7756 20.2003 74.3732C20.2003 74.3732 19.154 75.9759 16.6608 77.2893C16.4494 79.4041 16.3937 93.3838 16.3937 93.3838L14.9356 77.3004L14.3346 77.2782Z" fill="#597BC6"/>
<path d="M8.3798 27.2029C8.3798 27.2029 8.6358 32.1114 8.5245 32.5454C8.41319 32.9795 6.27616 34.4153 5.65286 34.9273C5.02957 35.4393 9.04762 39.4017 10.9954 40.3033C12.9432 41.1937 19.1317 38.8341 19.243 35.7955C19.3543 32.7569 18.1856 30.2081 17.2396 30.0745C16.2824 29.9409 8.3798 27.2029 8.3798 27.2029Z" fill="#FFA8A7"/>
<path d="M8.37976 27.1807L8.52446 30.5754C8.52446 30.5754 11.6521 33.5361 14.1453 33.0909C15.5366 32.846 15.3919 31.9333 15.3919 31.9333V29.084L8.37976 27.1807Z" fill="#F28F8F"/>
<path d="M7.8233 33.2799C7.8233 33.2799 11.385 38.5779 16.3492 39.0788C17.9185 37.5316 18.0521 32.0444 15.8928 30.2858C15.8928 30.2858 17.8851 28.683 19.2431 28.9947C19.2431 28.9947 21.3912 30.1077 22.3039 32.9125C23.2166 35.7063 24.1404 39.0565 24.0514 44.2655C23.9623 49.4745 24.0514 65.3686 24.0514 65.3686C24.0514 65.3686 23.3502 68.73 18.8646 71.2343C14.3791 73.7387 11.04 73.9835 7.99027 73.2712C5.47481 72.6813 3.40455 71.802 2.53639 69.9766C2.75899 66.3259 4.39517 56.8094 3.783 52.2237C3.17083 47.638 2.20249 44.2099 1.95762 40.5034C1.71275 36.797 2.44736 36.875 4.30613 35.5504C6.81045 33.7696 7.8233 33.2799 7.8233 33.2799Z" fill="#F5FBFB"/>
<path d="M16.3491 39.0789C16.3491 39.0789 16.772 36.7192 16.772 35.4504C16.6607 33.7474 15.3918 31.5325 15.3918 31.5325V30.1635C15.3918 30.1635 16.3713 30.3193 17.2061 31.3433C18.0409 32.3673 19.3209 34.5822 19.0092 36.7415C19.0092 36.7415 18.3748 38.0103 16.3491 39.0789Z" fill="#E4F2F2"/>
<path d="M16.3491 39.0788C16.7053 38.3776 17.3954 36.0179 17.7293 35.6729C18.386 35.4614 19.0093 36.7414 19.0093 36.7414C19.0093 36.7414 18.987 38.1104 18.1634 38.8896C17.3397 39.6687 16.3491 39.0788 16.3491 39.0788Z" fill="#F5FBFB"/>
<path d="M17.7293 35.6729C17.3954 36.0179 16.7053 38.3776 16.3491 39.0788C16.3491 39.0788 16.7276 38.4221 17.0949 37.9435C17.4622 37.4649 17.9074 36.5633 18.9982 36.7414C19.0093 36.7414 18.386 35.4503 17.7293 35.6729Z" fill="#C8DBDA"/>
<path d="M19.4767 19.9013C18.8868 16.0947 16.1487 13.2119 12.2197 13.4234C8.04584 13.6571 4.84029 17.23 5.07402 21.4039C5.20759 23.8525 6.49872 25.9228 8.36861 27.2028C8.36861 27.2028 8.72479 28.5829 8.98079 28.8723C10.3721 30.4974 14.5682 31.4991 15.7814 31.3321C17.3285 31.1095 18.1745 30.464 18.9091 28.7722C20.2113 25.7781 19.7995 21.7823 19.4767 19.9013Z" fill="#FFA8A7"/>
<path d="M18.9092 16.8295C17.2841 14.3586 14.3123 12.9005 11.0623 13.5794C9.08105 13.9913 7.38923 15.2045 6.30959 16.8518C4.67343 17.4305 4.50649 18.666 4.70683 20.6695C4.91831 22.7731 5.33013 24.8211 6.35412 26.6019C6.69916 27.203 7.7788 26.8023 8.37983 27.2141C8.29079 26.9581 6.32073 23.9974 8.35759 23.3408C8.68037 23.7192 8.7694 24.298 8.78053 24.8879C8.78053 24.8879 9.7934 24.7877 9.55967 23.6079C9.49288 23.274 9.43723 22.9735 9.38158 22.7063C9.20349 21.7825 9.43723 20.8587 9.96036 20.0796C10.3833 19.4563 10.7395 18.577 10.4946 17.6086C10.4946 17.6086 13.0212 18.7328 16.2379 18.0538C17.6069 17.7644 18.5307 17.2525 18.9092 16.8295Z" fill="#543354"/>
<path d="M6.30958 16.8404C6.30958 16.8404 5.84212 15.3378 7.76767 13.8797C10.0605 12.1434 13.2883 12.533 16.6942 13.8797C18.8646 14.7479 22.2371 13.6794 21.5916 16.1726C20.6344 19.8233 13.5777 20.135 10.5057 17.5973C10.2831 17.5305 8.05704 16.4508 6.30958 16.8404Z" fill="#543354"/>
<path d="M8.37989 27.1805C8.37989 27.1805 8.20182 27.5812 7.46721 27.6257C6.08705 27.6925 4.47315 25.1325 5.58618 23.3961C6.27626 22.3054 7.84565 22.6949 8.35764 23.3405L8.37989 27.1805Z" fill="#FFA8A7"/>
<path d="M8.54675 31.5661C8.6358 32.3229 12.6316 35.2947 13.5777 35.6732C14.5349 36.0627 16.3491 39.0791 16.3491 39.0791C14.9244 38.8342 13.7446 39.4241 12.7206 40.4926C12.7206 40.4926 7.04416 38.1107 6.13147 34.293C6.13147 34.293 7.18885 32.245 7.34467 31.7219C7.5005 31.1988 7.93458 30.5977 8.52449 30.5643L8.54675 31.5661Z" fill="#E4F2F2"/>
<path d="M12.7206 40.4926C12.7206 40.4926 13.1435 37.5653 13.7446 37.2982C14.3567 37.0311 16.3491 39.0679 16.3491 39.0679C15.5588 39.7691 14.4792 40.437 12.7206 40.4926Z" fill="#F5FBFB"/>
<path d="M13.7446 37.3092C13.1324 37.5763 12.7206 40.5036 12.7206 40.5036C12.7206 40.5036 14.3122 39.0455 14.802 38.9008C15.2917 38.7561 16.3491 39.09 16.3491 39.09C16.3491 39.09 14.3567 37.0421 13.7446 37.3092Z" fill="#C8DBDA"/>
<path opacity="0.15" d="M116.99 148.713L63.9982 179.31C63.1968 179.777 62.1505 180 61.1043 180C60.058 180 59.0118 179.777 58.2104 179.31L5.2188 148.713C4.41742 148.256 4.01672 147.655 4.01672 147.043C4.01672 146.609 4.22821 146.164 4.65116 145.785C4.80699 145.641 4.9962 145.496 5.2188 145.374L58.2104 114.787C59.802 113.864 62.3954 113.864 63.9982 114.787L116.99 145.374C118.581 146.297 118.581 147.8 116.99 148.713Z" fill="#6B99D1"/>
<path d="M116.99 113.262L63.9982 143.849C63.1968 144.316 62.1505 144.539 61.1043 144.539C60.058 144.539 59.0229 144.316 58.2215 143.86L5.2188 113.262C4.41742 112.795 4.01672 112.194 4.01672 111.593C4.01672 110.981 4.41742 110.38 5.2188 109.923L13.6333 105.07L58.2104 79.3259C59.802 78.4021 62.3954 78.4021 63.9982 79.3259L116.99 109.923C118.581 110.836 118.581 112.339 116.99 113.262Z" fill="#DCEEFF"/>
<path d="M61.1043 132.473V144.539C60.058 144.539 59.0229 144.316 58.2215 143.86L5.2188 113.262C4.41742 112.795 4.01672 112.194 4.01672 111.593V101.142C4.01672 100.707 4.22821 100.262 4.65116 99.8838L13.6333 105.071L61.1043 132.473Z" fill="#A5CBFA"/>
<path d="M61.1042 132.473V144.539C62.1505 144.539 63.1856 144.316 63.987 143.86L116.99 113.262C117.791 112.795 118.192 112.194 118.192 111.593V101.142C118.192 100.707 117.98 100.262 117.557 99.8838L108.575 105.071L61.1042 132.473Z" fill="#C8E2FF"/>
<path d="M116.99 102.811L63.9983 133.409C63.1969 133.876 62.1507 134.099 61.1044 134.099C60.0582 134.099 59.0119 133.876 58.2105 133.409L5.21893 102.811C4.41754 102.355 4.01685 101.754 4.01685 101.142C4.01685 100.708 4.22833 100.262 4.65128 99.8839C4.80711 99.7392 4.99632 99.5945 5.21893 99.4721L58.2105 68.8859C59.8022 67.962 62.3955 67.962 63.9983 68.8859L116.99 99.4721C118.582 100.396 118.582 101.898 116.99 102.811Z" fill="#DCEEFF"/>
<path d="M61.0932 69.3086C61.9836 69.3086 62.8406 69.5089 63.4305 69.854L116.422 100.44C116.89 100.718 117.068 100.997 117.057 101.153C117.057 101.308 116.89 101.587 116.422 101.854L63.4305 132.451C62.8406 132.796 61.9947 132.985 61.0932 132.985C60.1916 132.985 59.3457 132.785 58.7558 132.44L5.76421 101.843C5.37465 101.62 5.11865 101.353 5.11865 101.141C5.11865 101.019 5.21882 100.863 5.39691 100.696C5.50821 100.596 5.61952 100.507 5.76421 100.429L58.7558 69.8428C59.3568 69.5089 60.2139 69.3086 61.0932 69.3086ZM61.0932 68.1956C60.0469 68.1956 59.0007 68.4293 58.1993 68.8856L5.20769 99.4718C4.98509 99.5943 4.79586 99.739 4.64004 99.8837C4.21708 100.262 4.00562 100.707 4.00562 101.141C4.00562 101.754 4.40631 102.355 5.20769 102.811L58.1993 133.408C59.0007 133.876 60.0469 134.098 61.0932 134.098C62.1394 134.098 63.1857 133.876 63.9871 133.408L116.979 102.811C118.57 101.898 118.57 100.396 116.979 99.4718L63.9871 68.8856C63.1968 68.4293 62.1394 68.1956 61.0932 68.1956Z" fill="white"/>
<path d="M59.1676 76.154L17.8072 100.029C16.7387 100.641 16.7387 101.642 17.8072 102.255L59.1676 126.129C60.2361 126.741 61.9613 126.741 63.0187 126.129L104.379 102.255C105.448 101.642 105.448 100.641 104.379 100.029L63.0299 76.154C61.9613 75.5418 60.2361 75.5418 59.1676 76.154Z" fill="#2D3192"/>
<path d="M104.379 100.04L63.0298 76.1538C62.4955 75.8422 61.7943 75.6975 61.1042 75.6975V77.6564L104.056 102.455L104.39 102.266C105.448 101.642 105.448 100.652 104.379 100.04Z" fill="#1E3779"/>
<path d="M61.1043 75.6975C60.4031 75.6975 59.713 75.8533 59.1787 76.1538L17.8184 100.028C16.7498 100.641 16.7498 101.642 17.8184 102.255L18.1522 102.444L61.1043 77.6453V75.6975Z" fill="#031F60"/>
<path d="M47.5364 88.0969L61.0931 95.9327V54.1604L47.5364 46.3358V88.0969Z" fill="#E37600"/>
<path d="M61.0931 95.9327L74.661 88.0969V46.3358L61.0931 54.1604V95.9327Z" fill="#FF931E"/>
<path d="M74.661 46.3358L61.0931 38.5L47.5364 46.3358L61.0931 54.1604L74.661 46.3358Z" fill="#FFAC53"/>
<path d="M61.0931 95.9327C61.0931 95.9327 60.8928 95.7657 60.7815 95.4652C60.6368 95.1647 60.6924 94.7084 60.6813 94.1407C60.6813 92.9943 60.6924 91.3693 60.7036 89.4103C60.7258 85.4924 60.7481 80.2723 60.7703 75.0522C60.8371 69.832 60.8705 64.6119 60.9707 60.694C61.0486 56.7761 61.1043 54.1716 61.1043 54.1716C61.1043 54.1716 61.1599 56.7873 61.2378 60.694C61.338 64.6119 61.3714 69.832 61.427 75.0522C61.4493 80.2723 61.4715 85.4924 61.4938 89.4103C61.5049 91.3693 61.5049 93.0054 61.5161 94.1407C61.5049 94.7084 61.5717 95.1647 61.4159 95.4652C61.2935 95.7657 61.0931 95.9327 61.0931 95.9327Z" fill="white"/>
<path d="M74.661 46.3357C74.6499 46.3135 74.7055 46.5361 74.661 46.6919C74.6387 46.8811 74.4606 46.9145 74.2826 47.0369C73.9153 47.2484 73.381 47.5489 72.7466 47.9162C71.4777 48.6508 69.7636 49.6081 68.0496 50.543C66.3244 51.4668 64.6103 52.4129 63.2969 53.0696C61.9947 53.7485 61.1154 54.1715 61.1154 54.1715C61.1154 54.1715 61.9279 53.615 63.1633 52.8247C64.3877 52.0122 66.0684 50.9993 67.7268 49.9642C69.3963 48.9402 71.077 47.9385 72.3459 47.2039C72.9803 46.8366 73.5034 46.525 73.8819 46.3135C74.0711 46.2133 74.1824 46.0797 74.3605 46.1577C74.5052 46.191 74.6721 46.358 74.661 46.3357Z" fill="white"/>
<path d="M70.1421 101.142L83.6989 108.977L83.71 72.4364L70.1421 64.6006V101.142Z" fill="#E37600"/>
<path d="M83.6989 108.977L97.2667 101.142V64.6006L83.71 72.4364L83.6989 108.977Z" fill="#FF931E"/>
<path d="M97.2667 64.6005L83.6989 56.7648L70.1421 64.6005L83.71 72.4363L97.2667 64.6005Z" fill="#FFAC53"/>
<path d="M83.6988 108.977C83.6988 108.977 83.4985 108.833 83.3872 108.566C83.2425 108.298 83.2981 107.909 83.287 107.408C83.287 106.406 83.2981 104.982 83.3093 103.267C83.3315 99.8393 83.3315 95.2759 83.3872 90.7013C83.454 86.1379 83.4874 81.5633 83.5764 78.1352C83.6543 74.707 83.71 72.4253 83.71 72.4253C83.71 72.4253 83.7656 74.707 83.8435 78.1352C83.9326 81.5633 83.966 86.1267 84.0327 90.7013C84.0884 95.2648 84.0773 99.8393 84.0995 103.267C84.1106 104.982 84.1106 106.406 84.1218 107.408C84.1106 107.909 84.1774 108.298 84.0216 108.566C83.8992 108.833 83.6988 108.977 83.6988 108.977Z" fill="white"/>
<path d="M97.2667 64.6005C97.2556 64.5782 97.3112 64.8009 97.2667 64.9567C97.2444 65.1459 97.0663 65.1793 96.8883 65.3017C96.521 65.5132 95.9867 65.8137 95.3523 66.181C94.0834 66.9156 92.3694 67.8728 90.6553 68.8078C88.9301 69.7316 87.216 70.6777 85.9026 71.3344C84.6004 72.0133 83.7211 72.4363 83.7211 72.4363C83.7211 72.4363 84.5336 71.8798 85.769 71.0895C86.9934 70.277 88.6741 69.2641 90.3325 68.229C92.002 67.205 93.6827 66.2033 94.9516 65.4687C95.586 65.1014 96.1091 64.7897 96.4876 64.5782C96.6768 64.4781 96.7881 64.3445 96.9662 64.4224C97.1109 64.4558 97.2778 64.6228 97.2667 64.6005Z" fill="white"/>
<path d="M24.9194 101.141L38.4873 108.977V67.2161L24.9194 59.3804V101.141Z" fill="#E37600"/>
<path d="M38.4873 108.977L52.0552 101.141L52.0441 59.3804L38.4873 67.2161V108.977Z" fill="#FF931E"/>
<path d="M52.0441 59.3804L38.4873 51.5447L24.9194 59.3804L38.4873 67.2162L52.0441 59.3804Z" fill="#FFAC53"/>
<path d="M38.4873 108.977C38.4873 108.977 38.2869 108.81 38.1756 108.51C38.0309 108.209 38.0866 107.753 38.0755 107.185C38.0755 106.039 38.0866 104.414 38.0977 102.455C38.12 98.537 38.1422 93.3169 38.1756 88.0967C38.2424 82.8766 38.2758 77.6565 38.376 73.7386C38.4539 69.8207 38.5095 67.2162 38.5095 67.2162C38.5095 67.2162 38.5652 69.8318 38.6431 73.7386C38.7433 77.6565 38.7767 82.8766 38.8323 88.0967C38.8546 93.3169 38.8769 98.537 38.8991 102.455C38.9102 104.414 38.9102 106.05 38.9214 107.185C38.9102 107.753 38.977 108.209 38.8212 108.51C38.6765 108.821 38.4873 108.977 38.4873 108.977Z" fill="white"/>
<path d="M52.044 59.3802C52.0329 59.3579 52.0886 59.5805 52.044 59.7363C52.0218 59.9256 51.8437 59.9589 51.6656 60.0814C51.2983 60.2929 50.7641 60.5934 50.1296 60.9607C48.8608 61.6953 47.1467 62.6525 45.4326 63.5874C43.7074 64.5113 41.9933 65.4573 40.68 66.114C39.3777 66.793 38.4984 67.2159 38.4984 67.2159C38.4984 67.2159 39.3109 66.6594 40.5464 65.8692C41.7707 65.0566 43.4514 64.0438 45.1098 63.0087C46.7794 61.9847 48.4601 60.9829 49.7289 60.2483C50.3634 59.881 50.8865 59.5694 51.2649 59.3579C51.4541 59.2577 51.5654 59.1242 51.7435 59.2021C51.8882 59.2355 52.0552 59.4024 52.044 59.3802Z" fill="white"/>
<path d="M47.5364 114.197L61.0931 122.033L61.1043 90.7012L47.5364 82.8766V114.197Z" fill="#E37600"/>
<path d="M61.0931 122.033L74.661 114.197V82.8766L61.1043 90.7012L61.0931 122.033Z" fill="#FF931E"/>
<path d="M74.661 82.8765L61.0931 75.0408L47.5364 82.8765L61.1043 90.7012L74.661 82.8765Z" fill="#FFAC53"/>
<path d="M61.0931 122.033C61.0931 122.033 60.8928 121.911 60.7815 121.677C60.6368 121.443 60.6924 121.109 60.6813 120.686C60.6813 119.829 60.6924 118.605 60.7036 117.136C60.7258 114.197 60.7258 110.279 60.7815 106.362C60.8482 102.444 60.8816 98.5258 60.9707 95.5985C61.0486 92.6601 61.1043 90.7012 61.1043 90.7012C61.1043 90.7012 61.1599 92.6601 61.2378 95.5985C61.3269 98.5369 61.3602 102.455 61.427 106.373C61.4827 110.291 61.4715 114.208 61.4938 117.136C61.5049 118.605 61.5049 119.829 61.5161 120.686C61.5049 121.109 61.5717 121.454 61.4159 121.677C61.2935 121.911 61.0931 122.033 61.0931 122.033Z" fill="white"/>
<path d="M74.661 82.8764C74.6499 82.8541 74.7055 83.0767 74.661 83.2326C74.6387 83.4218 74.4606 83.4552 74.2826 83.5776C73.9153 83.7891 73.381 84.0896 72.7466 84.4569C71.4777 85.1915 69.7636 86.1487 68.0496 87.0837C66.3244 88.0075 64.6103 88.9536 63.2969 89.6103C61.9947 90.2892 61.1154 90.7122 61.1154 90.7122C61.1154 90.7122 61.9279 90.1556 63.1633 89.3654C64.3877 88.5529 66.0684 87.54 67.7268 86.5049C69.3963 85.4809 71.077 84.4792 72.3459 83.7445C72.9803 83.3772 73.5034 83.0656 73.8819 82.8541C74.0711 82.754 74.1824 82.6204 74.3605 82.6983C74.5052 82.7317 74.6721 82.8986 74.661 82.8764Z" fill="white"/>
<path d="M28.5035 68.129C27.5352 68.129 26.667 67.8285 25.298 67.9287C24.0959 68.0177 23.595 68.04 22.5154 67.6949C21.3578 67.3165 18.642 65.0459 16.3269 62.6751C13.6 59.8703 11.1736 55.4404 10.3944 53.3924C8.82506 49.2408 7.51166 42.9855 6.74367 40.5257C5.97567 38.0659 4.79587 37.5205 3.31553 37.2089C1.5792 36.8416 0.0765933 38.1216 0.733284 41.7723C1.38997 45.4231 3.22648 51.7451 5.37464 56.3197C6.40976 58.5458 8.37983 61.9517 11.8636 65.5579C14.3012 68.0845 16.6163 69.6205 19.5658 71.5349C20.3672 72.058 20.8347 72.6368 22.2483 73.8166C23.6618 74.9964 25.5762 76.0093 27.09 76.2542C28.6037 76.5102 29.1936 76.3543 29.3717 76.0761C29.6054 75.7199 29.3605 75.3971 28.6816 75.1968C28.0026 75.0076 26.8451 74.7961 25.5874 73.9502C25.5874 73.9502 27.0566 74.451 27.9581 74.6736C28.8597 74.8963 29.7724 74.9742 30.4179 74.9408C31.2193 74.9074 31.8537 73.9057 31.1748 73.6942C30.4958 73.4827 29.9059 73.505 28.5814 73.1599C27.3682 72.8483 26.5446 72.3808 26.5446 72.3808C26.5446 72.3808 28.0138 72.6813 29.2826 72.6924C30.5515 72.7147 31.0858 72.4587 31.4197 72.2695C31.7536 72.0803 31.9428 71.4013 31.0635 71.2455C30.2732 71.1119 29.2158 71.2789 27.7578 70.778C26.6893 70.4219 25.988 70.0212 26.1884 69.9099C26.3776 69.7986 26.9898 70.0546 27.9581 69.8987C28.8819 69.754 29.7056 69.064 29.5831 68.552C29.4607 68.04 29.483 68.1401 28.5035 68.129Z" fill="#FFA8A7"/>
<path d="M2.2247 37.0197C0.399328 37.7877 -0.468827 39.7689 0.254645 43.3528C0.966988 46.87 2.45845 52.3016 2.45845 52.3016C2.45845 52.3016 5.89772 52.4018 9.39265 49.4857C9.39265 49.4857 7.70084 41.7723 7.04415 39.78C6.38746 37.7765 4.66225 35.9957 2.2247 37.0197Z" fill="#E4F2F2"/>
</svg>
